<?xml version="1.0" encoding="UTF-8"?>
<svg id="Layer_1" xmlns="http://www.w3.org/2000/svg" version="1.1" viewBox="0 0 915.3 915.3">
  <!-- Generator: Adobe Illustrator 30.0.0, SVG Export Plug-In . SVG Version: 2.1.1 Build 123)  -->
  <path d="M606.81,312.03c2.68,49.08,19.04,96.58,35.2,142.6,16.42,46.77,34.3,93.44,43.98,142.2,8.72,43.89,10.62,89.52-.3,133.22-10.01,40.04-31.44,77.33-65.05,102.04-31.68,23.29-71.19,35.55-110.52,33.44-38.05-2.04-74.48-18.62-102.33-44.39-29.9-27.66-50.32-66.19-52.69-107.2s15.73-84.36,53.8-103.77c18-9.17,39.64-11.36,59.06-5.75,18.82,5.44,34.08,18.49,42.45,36.19,7.8,16.49,8.79,36.8-.19,53.04-4.5,8.14-11.61,15.25-20.95,17.23-7.97,1.69-17.88-.49-22.55-7.69-3.91-6.03-5.22-15.04.34-20.54,4.37-4.33-2.43-11.06-6.81-6.71-6.91,6.85-9.3,16.47-7,25.92,2.47,10.15,11.04,17.65,21.09,19.93,22.48,5.08,41.45-11.48,48.76-31.51,6.97-19.12,3.76-41.02-5.92-58.6-10.26-18.62-27.81-31.99-48.34-37.39-21.41-5.62-44.7-3-64.48,6.85-18.98,9.45-34.45,25.44-44.68,43.89-23.24,41.88-18.08,94.12,3.53,135.54,18.96,36.35,51.36,65.86,89.07,81.81,39.21,16.59,83.22,17.95,123.57,4.41,41.43-13.9,76.74-42.14,98.45-80.17,22.71-39.78,30.63-86.74,28.3-132.1-2.69-52.39-18.04-103.34-35.06-152.62-17.38-50.32-36.84-100.12-48.49-152.19-2.84-12.67-5.48-25.43-7.76-38.22-.45-2.52-4.61-2-4.47.56h0Z"/>
  <path d="M444.44,407.16c-.78,1.92.79,3.83,1.86,5.37,1.55,2.23,3.54,3.94,5.77,5.46,4.7,3.2,10.09,4.9,15.72,5.48,13.97,1.45,28.39-3.32,42.09,1.05,12.85,4.1,16.56,17.21,20.2,28.76,2.87,9.11,9.09,20.61,19.61,21.79,1.98.22,2.72-2.87.99-3.71-11.34-5.54-13.59-16.68-16.21-28.02-1.4-6.08-2.2-11.55-6.03-16.7-3.45-4.64-8.08-7.92-13.44-10.03-12.5-4.93-25.68-2.31-38.65-1.76-6.32.27-12.55-.18-18.69-1.75-2.62-.67-5.06-1.78-7.44-3.06-1.74-.94-3.52-3.08-5.6-3.04-.09,0-.15.06-.19.14h0Z"/>
  <path d="M477.69,419.5l-.23.03c-.36.05-.57.38-.69.68-1.22,3.09-.75,6.77-.46,9.99.32,3.51.93,6.81,2.02,10.17,2.29,7.05,6.23,13.18,11.66,18.24,5.24,4.88,11.64,8.71,18.54,10.71,7.06,2.04,14.09,1.65,21.11-.16,1.63-.42,1.28-2.8-.36-2.87-12.93-.52-27.27-5.97-36.28-15.38-4.51-4.71-8.27-10.57-10.73-16.61-1.24-3.04-2.16-6.15-2.71-9.39-.16-.93-.25-5.65-1.88-5.41h0Z"/>
  <path d="M510.74,422.01c-1.58-.04-2.97,1.11-4.05,2.17-1.27,1.24-2.22,2.83-2.92,4.45-1.53,3.53-1.73,7.51-.89,11.24,1.67,7.43,8.15,13.05,15.58,14.3,3.61.61,11.46,1.02,12.41-3.75.2-1.01-.15-2.09-1.09-2.61-2.23-1.26-4.24-.1-6.54.2-.26.03-1.49.08-2.1.06-1-.03-1.56-.1-2.49-.3-3.24-.72-6.42-2.5-8.27-5.17-2.07-2.99-2.64-6.5-2.29-10.15.16-1.68.6-3.38,1.19-4.96.62-1.64,1.7-3.34,1.87-5.08.02-.22-.2-.4-.4-.41h0Z"/>
  <path d="M501.89,342.08c5.78-6.73,12.94-13.85,22.7-12.32,8.43,1.32,15.88,9.59,15.47,18.28-.2,4.17-1.78,8.35-5.01,11.11-3.85,3.29-8.59,1.97-11.11-2.19-2.85-4.72-.06-9.68,5.66-9.35,6.17.36,9.99,6.22,12.78,11.03,10.66,18.36,12.85,40.05,21.2,59.39,7.06,16.36,19.87,33.16,38.41,36.76,15.35,2.98,38.77-4.31,40.49-22.52.25-2.68-3.5-3.25-4.74-1.27-4.92,7.89-11.1,12.94-20.46,14.62-9.34,1.68-19.03-1.01-26.62-6.53-19.54-14.2-26.32-40.15-34.75-61.46-2.28-5.77-4.78-11.49-7.64-17-2.59-4.98-5.53-10.28-10.04-13.78-6.2-4.82-18.93-4.59-19.47,5.46-.44,8.22,7.82,14.27,15.47,12.88,9.7-1.76,14.36-12.77,12.77-21.67-1.99-11.17-12.32-20.11-23.65-20.45-9.99-.31-23.15,7.42-22.23,18.69.03.36.5.65.78.32h0Z"/>
  <path d="M578.33,327.6c.6,2.98,2.03,5.16,3.51,7.84,1.62,2.93,2.81,6.06,3.75,9.27,1.96,6.7,2.88,13.7,3.52,20.64.75,8.15,1.04,16.35,2.28,24.45,1.1,7.19,2.76,14.85,7.51,20.59,3.86,4.67,11.68,8.43,17.1,3.98,5.52-4.54-3.6-6.96-6.36-8.86-5.84-4.02-6.79-12.77-7.76-19.18-1.23-8.1-1.63-16.3-2.81-24.41-1.11-7.64-3.11-14.99-6.77-21.83-2.79-5.21-7.27-12.33-13.64-12.9-.23-.02-.37.22-.33.42h0Z"/>
  <path d="M618.43,477.27l-.05.34,1.49-2.61c-1.19,1.17-1.82,2.8-1.77,4.46v.45c.02.31.03.62.04.93-.04.82.13,1.58.5,2.3.25.78.68,1.46,1.29,2.03.55.59,1.21,1,1.96,1.23.7.36,1.44.52,2.24.5.52-.06,1.03-.13,1.55-.19,1.07-.29,1.99-.82,2.77-1.6l.94-1.25c.52-.92.78-1.9.79-2.95-.03-.31-.06-.62-.08-.93l-.04-.45c0-.08-.01-.16-.02-.24,0-1.08-.27-2.08-.8-3.02-.25-.54-.6-.98-1.05-1.32.52.9,1.04,1.81,1.56,2.71l-.09-.34c-.2-.48-.4-.96-.59-1.44-.37-.71-.89-1.27-1.55-1.69-.37-.36-.79-.6-1.29-.74-.67-.34-1.39-.5-2.16-.48l-1.49.19c-.48.2-.96.4-1.44.59-.71.37-1.27.89-1.69,1.55-.51.56-.85,1.22-1.02,1.98h0Z"/>
  <path d="M635.56,502.08c-.93.32-1.62.7-2.21,1.49-.38.5-.61,1.03-.77,1.64.63-.83,1.27-1.65,1.9-2.48-1.15.62-1.99,1.72-2.31,2.98.39-.68.78-1.36,1.16-2.03-.47.34-.84.78-1.12,1.32-.44.78-.67,1.62-.67,2.52-.02.21-.04.43-.07.64.23-.86.46-1.73.69-2.59-.11.25-.21.5-.31.75-.23.41-.35.85-.35,1.32-.05.35-.09.66-.1,1l-.03.8c-.02.53-.01,1.07-.07,1.6l.2-1.47c-.02.12-.03.25-.05.37-.07.53-.25,1.2-.23,1.74.01.27.07.54.1.8-.04.81.13,1.57.5,2.28.24.78.67,1.45,1.28,2.01.55.58,1.2.99,1.94,1.23.69.35,1.43.52,2.22.49,1.57-.06,3.21-.58,4.29-1.78.31-.41.62-.82.93-1.24.51-.91.77-1.89.78-2.93-.1-.81-.08-1.74-.35-2.49-.14-.38-.28-.75-.39-1.14l-.31-1.07c-.22-.77-.41-1.66-.88-2.3l.54,1.31c-.08-.2-.15-.4-.22-.6-.24-.91-.7-1.7-1.37-2.37-.41-.43-.88-.75-1.41-.97.57.56,1.13,1.13,1.7,1.69-.62-1.15-1.74-1.97-3-2.29.83.63,1.65,1.27,2.48,1.9-.39-.71-.89-1.31-1.61-1.72-.78-.44-1.98-.73-2.88-.42h0Z"/>
  <path d="M645.55,537.52l-.16.54c.47-.61.93-1.21,1.4-1.82-1.15.53-1.93,1.53-2.25,2.75.63-.82,1.25-1.63,1.88-2.45-1.27.68-2.11,1.87-2.43,3.26l3.38-3.36h-.05c-.91.25-1.7.71-2.37,1.38-.63.65-1.07,1.41-1.3,2.28-.12.49-.21.97-.27,1.47-.13.94-.33,1.87-.29,2.82.02.53.1,1.07.16,1.59.15,1.44.14,2.93,1.01,4.18.59.85,1.27,1.66,2.19,2.18,1.12.64,2.39.84,3.65.68.53,0,1.03-.13,1.49-.4.52-.14.98-.4,1.36-.78.46-.27.82-.63,1.09-1.09.51-.57.86-1.24,1.04-2.01.51-1.39.14-2.82-.08-4.23-.08-.52-.14-1.06-.25-1.58-.21-.95-.65-1.83-1.03-2.72-.19-.46-.39-.91-.64-1.35-.47-.8-1.1-1.44-1.91-1.9-.78-.44-1.62-.67-2.52-.68h-.05c1.36.8,2.72,1.59,4.08,2.38-.67-1.28-1.77-2.19-3.19-2.52l2.45,1.88c-.61-1.09-1.64-1.86-2.87-2.07.61.47,1.21.93,1.82,1.4-.1-.16-.19-.32-.29-.48-.57-.95-1.63-1.47-2.73-1.33s-2.01.92-2.32,2h0Z"/>
  <path d="M657.04,573.18c-1.3,1.95-.66,4.43-.27,6.65.56,3.24,1.55,6.47,2.29,9.68,1.5,6.47,2.86,12.95,3.96,19.5,2.15,12.79,3.43,25.73,3.87,38.7.43,12.79.22,25.58-.9,38.33-.59,6.78-1.47,13.53-2.47,20.26-.49,3.29-1.09,6.55-1.63,9.83-.42,2.59-.89,5.02.39,7.4.66,1.23,2.11,1.12,3.06.39,2.26-1.74,2.72-4.77,3.3-7.45.69-3.24,1.3-6.5,1.85-9.76,1.07-6.36,1.85-12.79,2.46-19.21,1.27-13.43,1.7-26.98,1.02-40.46-.65-13.07-2.17-26.09-4.52-38.96-1.19-6.52-2.58-13.01-4.23-19.43-1.06-4.11-2.38-13.94-6.84-15.83-.51-.22-1.01-.12-1.34.37h0Z"/>
  <path d="M505.87,617.71c14.01,10.68,33.96,13.02,51.15,12.11,18.51-.98,36.5-6.73,52.16-16.66,5-3.17,2.59-9.77-2.77-10.44-20.65-2.58-41.02-9.63-59.25-19.6-9.15-5-17.89-10.8-25.93-17.44-4.07-3.36-7.98-6.9-11.72-10.63-3.49-3.48-7.31-8.29-12.42-9.04-2.31-.34-4.61.95-4.63,3.54-.06,5.74,4.66,10.36,8.5,14.19,4.02,4.01,8.25,7.81,12.66,11.4,8.76,7.12,18.12,13.49,28.05,18.86,20.15,10.92,41.96,17.35,64.69,19.91-.92-3.48-1.85-6.96-2.77-10.44-13.91,9.07-29.99,14.67-46.51,16.39-8.12.85-16.29.83-24.4-.11-8.56-1-16.96-3.08-25.45-4.41-1.2-.19-2.61,1.41-1.36,2.37h0Z"/>
  <path d="M407.44,545.65c-.94,2.62.12,6.28.75,8.9.73,3.05,1.7,6.07,2.95,8.95,2.51,5.8,5.92,11.15,9.96,16.01,4.03,4.85,8.86,9.03,14.12,12.5,4.63,3.06,11.37,7.56,17.2,6.02,1.62-.43,1.95-2.32.94-3.49-1.86-2.14-4.63-3.23-7.14-4.37-2.62-1.19-5.16-2.58-7.58-4.13-4.72-3.03-8.92-6.78-12.65-10.97-3.73-4.18-6.83-8.91-9.26-13.96-1.24-2.59-2.39-5.19-3.29-7.92-.82-2.48-1.16-5.86-2.7-7.97-.93-1.28-2.74-1.1-3.28.43h0Z"/>
  <path d="M492.99,547.92c-7.4,4.96-13,13.51-16.72,21.46-1.92,4.1-3.51,8.4-4.48,12.82-.51,2.31-.88,4.65-1.15,7-.3,2.58-.62,4.95.62,7.33,1.01,1.94,4,1.87,5.02-.01,1.07-1.98.99-4,1.13-6.18.13-2.03.36-4.05.72-6.06.75-4.21,1.82-8.37,3.33-12.38,1.46-3.89,3.38-7.63,5.61-11.13,2.34-3.69,5.23-6.89,7.88-10.34,1-1.3-.3-3.61-1.94-2.51h0Z"/>
  <path d="M509.76,566.72c-.2.55-1.41,1.34-1.81,1.73-.73.71-1.35,1.42-1.97,2.22-1.22,1.59-2.26,3.23-3.25,4.96-1.97,3.42-3.56,7.03-5.05,10.69-3.04,7.46-5.2,15.21-6.58,23.15-.7,3.99,5.44,5.63,6.1,1.63,1.25-7.68,3.25-15.23,5.91-22.54,1.31-3.61,2.85-7.13,4.4-10.65.75-1.7,1.52-3.38,2.2-5.12.37-.93.67-1.84.95-2.8.16-.57.3-1.88.75-2.33,1.08-1.08-1.07-2.53-1.64-.94h0Z"/>
  <path d="M459.67,683.96c0-.75.07-1.1.53-1.7.38-.5.72-1.04,1.09-1.56.73-1.03,1.55-1.96,2.46-2.85,1.72-1.69,3.81-2.99,6.15-3.63,2.33-.64,4.79-.55,7.14-.03,1.2.27,2.35.66,3.44,1.23.59.31,1.15.66,1.76.94.82.38,1.42.47,2.28.6,1.36.2,2.88-.84,2.4-2.39-.29-.94-.51-1.69-1.24-2.44-.64-.66-1.38-1.16-2.2-1.58-1.5-.78-3.14-1.4-4.79-1.76-3.26-.7-6.69-.46-9.81.74-2.93,1.12-5.58,2.95-7.55,5.4-.99,1.23-1.74,2.56-2.34,4.01-.61,1.48-.5,3.09-1.14,4.52-.7,1.53,1.84,2.02,1.83.49h0Z"/>
  <path d="M462.86,686.66c.98-.44,1.63-1.31,2.29-2.13s1.42-1.58,2.21-2.29c1.58-1.42,3.32-2.55,5.24-3.46,1.69-.8,3.8-1.32,5.83-1.62.66-.09,1.96-.15,2.95-.11.25.01.51.03.76.05.08,0,.67.07.36.03,1.09.14,1.91.29,2.93-.3,1.58-.92,1.58-2.81.52-4.1-1.01-1.23-3.07-1.2-4.54-1.24-1.36-.04-2.72.09-4.06.29-2.52.38-5.03,1.43-7.22,2.71-2.24,1.31-4.34,3.1-5.89,5.19-1.26,1.69-3.19,4.35-2.42,6.54.16.47.61.64,1.05.44h0Z"/>
  <path d="M650.97,742.01l-.13.13c.74-.31,1.48-.61,2.21-.92l-.22-.03c-.66,0-1.28.16-1.85.49-.57.33-1.02.79-1.35,1.36l-.36.48,1.41-1.41c-.19.08-.35.2-.48.35-.17.11-.33.24-.48.38-.23.24-.5.61-.66.9-.09.16-.18.32-.26.48-.17.3-.34.61-.5.91,1.55-.65,3.1-1.29,4.65-1.94l-.14-.04c-.89-.23-1.77-.24-2.66-.01-.92.25-1.72.71-2.4,1.39-.13.17-.27.34-.4.52l1.15-.88-.07.04c-.39.3-.77.6-1.16.89-.28.38-.57.75-.85,1.13l-.53,1.29-.19,1.38c.06.47.12.94.18,1.4.19.45.37.9.56,1.35.3.39.6.77.89,1.16.5.53,1.09.9,1.77,1.12.41.23.86.35,1.34.36.46.12.93.12,1.39,0,.49,0,.95-.12,1.38-.37.48-.13.9-.37,1.26-.72.43-.25.76-.58,1.01-1.01.34-.34.57-.75.69-1.21.23-.41.35-.86.36-1.34.15-.7.13-1.4-.08-2.09l-.02-.08c.06.46.12.93.17,1.39.03-.22.05-.43.08-.65,0-.94-.23-1.82-.7-2.63-.47-.81-1.12-1.45-1.93-1.92l-.12-.07c.65,1.55,1.29,3.1,1.94,4.65.09-.33.19-.67.28-1,.25-.89.49-1.88.15-2.78,0,.65,0,1.3,0,1.95l.08-.59c.16-.62.17-1.25,0-1.87-.17-.65-.5-1.21-.97-1.69l-.18-.14c.31.74.61,1.48.92,2.21v-.19c-.03-.26-.06-.52-.09-.77l-.31-.75c-.34-.58-.86-1.01-1.47-1.26-.23-.13-.48-.19-.74-.2-.26-.07-.51-.07-.77,0-.65.08-1.31.36-1.77.85h0Z"/>
  <path d="M634.48,768.73l-.28.27.67-.52-.15.09c.55-.14,1.09-.29,1.64-.43-.78.08-1.27.21-1.98.54.59-.16,1.18-.31,1.78-.47-.65.03-1.24.1-1.84.35s-1.04.58-1.49,1c-.24.22-.47.46-.71.67.31-.24.62-.47.92-.71-.53.37-1.07.76-1.5,1.24s-.8,1.07-1.19,1.6c-.37.52-.76,1.03-1.12,1.56-.74,1.08-1.43,2.2-2.15,3.3-.65,1-.79,2.56-.49,3.7.31,1.19,1.23,2.48,2.34,3.05s2.46.87,3.7.49c1.26-.39,2.4-1.15,3.05-2.34s1.29-2.28,1.9-3.44c.29-.57.57-1.15.85-1.72s.57-1.17.8-1.81c.21-.6.27-1.22.34-1.85-.05.37-.1.73-.15,1.1.07-.32.17-.62.25-.94.1-.38.17-.81.19-1.21.04-.83-.32-1.57-.66-2.3.16.59.31,1.18.47,1.78-.02-.38-.03-.83-.17-1.18l.1.83v-.17c-.03.27-.06.53-.1.8l.1-.37c.34-1.25-.25-2.82-1.43-3.43s-2.66-.45-3.67.51h0Z"/>
  <path d="M615.41,792.9c-4.6-1.62-8.72,4.02-11.46,6.92-3.47,3.68-7.74,6.46-12.07,9.03-8.59,5.1-17.96,9.01-27.41,12.19-19.04,6.43-39.4,9.19-59.46,7.97-11.45-.7-22.77-2.61-33.95-5.15-1.35-.31-2.39,1.78-.97,2.37,38.39,15.95,85.31,9.47,121-10.46,5.16-2.88,10.1-6.21,15.33-8.96,4.44-2.34,12.54-5.17,11.4-11.48-.22-1.24-1.31-2.04-2.41-2.43h0Z"/>
  <path d="M454.44,825.79c.58.03,1.13-.09,1.64-.36.56-.17,1.04-.48,1.45-.92.42-.4.71-.86.88-1.4.25-.5.37-1.03.36-1.6l-.14-1.11c-.2-.76-.58-1.42-1.14-1.98l-.89-.67c-.65-.37-1.36-.56-2.11-.56-.58-.03-1.13.09-1.64.36-.56.17-1.04.48-1.45.92-.42.4-.71.86-.88,1.4-.25.5-.37,1.03-.36,1.6l.14,1.11c.2.76.58,1.42,1.14,1.98.3.22.59.45.89.67.65.37,1.36.56,2.11.56h0Z"/>
  <path d="M437.58,816.14c.24.01.47-.04.68-.15.23-.07.43-.2.6-.39.17-.16.3-.36.37-.58.11-.21.16-.43.15-.67l-.06-.46c-.08-.32-.24-.59-.48-.83l-.37-.28c-.27-.15-.57-.23-.88-.24-.24-.01-.47.04-.68.15-.23.07-.43.2-.6.39-.17.16-.3.36-.37.58-.11.21-.16.43-.15.67l.06.46c.08.32.24.59.48.83l.37.28c.27.15.57.23.88.24h0Z"/>
  <path d="M422.28,809.15c.26.01.51-.04.74-.16.25-.08.47-.22.65-.42.19-.18.32-.39.4-.63.11-.22.17-.46.16-.72-.02-.17-.04-.33-.06-.5-.09-.34-.26-.64-.51-.89-.13-.1-.27-.2-.4-.3-.29-.17-.61-.25-.95-.25-.26-.01-.51.04-.74.16-.25.08-.47.22-.65.42-.19.18-.32.39-.4.63-.11.22-.17.46-.16.72l.06.5c.09.34.26.64.51.89l.4.3c.29.17.61.25.95.25h0Z"/>
  <path d="M411.07,795.99"/>
  <path d="M478.71,669.33c-20.99-5.47-40.51,13.61-42.44,33.63-2.23,23.12,13.97,43.22,34.75,51.24,43.08,16.64,93.13-13.83,102.23-58.03,5.02-24.39-1.53-51.26-17.74-70.22-2.17-2.53-5.89,1.2-3.66,3.71,13.58,15.3,20.15,35.32,18.6,55.69-1.54,20.16-11.59,38.29-27.28,50.92-15.41,12.4-35.36,19.02-55.13,16.74-21.13-2.43-41.02-15.6-46.11-37.11-2.65-11.18-.5-23.06,7.06-31.9,7.31-8.55,18.21-13,29.42-12.3,1.37.08,1.61-2.01.32-2.35h0Z"/>
  <path d="M440.63,707.32c2.47-2.34,4.96-4.66,8.24-5.84,1.57-.56,3.22-.87,4.89-.86.85,0,1.68.1,2.51.28.4.09.78.23,1.17.33.56.14.98.02,1.54-.02.93-.07,1.32-1.06.73-1.76-.35-.42-.6-.78-1.11-1.02s-1.11-.36-1.66-.47c-1-.2-2.02-.31-3.04-.3-2.04,0-4.09.4-5.98,1.15-3.55,1.41-7.24,4.33-7.58,8.4-.01.15.19.21.29.12h0Z"/>
  <path d="M447.86,731.84c1.96-5.65,4.84-10.6,9.57-14.37,2.18-1.74,4.7-3.16,7.34-4.08,1.34-.46,2.71-.81,4.11-1.04,1.57-.26,3.28-.08,4.58-1.09.94-.73.4-2.09-.36-2.63-1.34-.96-3.7-.36-5.2-.06s-2.98.73-4.41,1.29c-3.13,1.23-6,2.95-8.55,5.15-4.75,4.08-8.63,10.24-8.77,16.6-.02,1.02,1.38,1.12,1.69.23h0Z"/>
  <path d="M468.31,747.14c.25-2.91-.26-5.81.09-8.73.35-2.88,1.22-5.75,2.43-8.39,1.2-2.63,2.76-5.09,4.71-7.22.97-1.06,2.01-2.06,3.14-2.95,1.23-.97,2.61-1.75,3.16-3.29.28-.78-.34-1.88-1.17-2.02-3.18-.53-6.53,3.12-8.49,5.26-2.26,2.46-4.15,5.3-5.52,8.35-1.4,3.12-2.23,6.4-2.57,9.79s-.36,7.05,1.31,9.96c.81,1.41,2.77.7,2.9-.77h0Z"/>
  <path d="M493.23,716.15c-.36.41-1.03.57-1.43.95-.45.42-.88,1.08-1.17,1.61-.77,1.45-1.25,3.13-1.63,4.72-.74,3.05-.9,6.17-.5,9.28.76,5.96,3.68,11.57,8.08,15.66,1.99,1.85,4.77,4.14,7.45,4.86,2.82.76,4.18-1.91,1.76-3.61-1.12-.79-2.52-1.26-3.7-2.01-1.26-.81-2.43-1.74-3.52-2.77-2.18-2.06-3.95-4.51-5.19-7.24-1.55-3.42-2.08-7.18-1.89-10.91.09-1.82.41-3.62.92-5.37.27-.93.61-1.83.82-2.78.15-.71-.06-1.66.16-2.31.03-.09-.1-.16-.16-.09h0Z"/>
  <path d="M505.26,706.36c.25,1.31.08,2.83.19,4.17.08.97.27,1.92.49,2.86.53,2.18,1.41,4.37,2.45,6.36,2.17,4.18,5.24,8.03,8.82,11.09,6.93,5.93,16.57,10.44,25.88,9.93,2.94-.16,2.99-4.45.02-4.58-4.36-.2-8.44-.7-12.57-2.26-3.92-1.48-7.63-3.7-10.82-6.41-3.24-2.75-6.11-5.87-8.41-9.46-1.16-1.81-2.18-3.66-3.14-5.58-.91-1.83-2.37-4.11-2.61-6.16-.03-.22-.34-.18-.3.04h0Z"/>
  <path d="M516.21,684.67c.81.8,1.28,2.05,2,2.95.8,1.01,1.64,2,2.59,2.87,1.9,1.74,4.03,3.24,6.24,4.56,4.55,2.72,9.81,4.42,15.02,5.33,10.54,1.83,21.49.04,30.83-5.22,2.31-1.3.26-4.84-2.06-3.56-8.53,4.7-18.47,6.1-28.07,4.66-4.73-.71-9.24-2.21-13.59-4.17-2.11-.95-4.16-2.07-6.12-3.31-1.98-1.25-5.12-2.56-6.63-4.33-.13-.15-.36.08-.21.22h0Z"/>
  <path d="M518.78,651.79c1.95,1.41,3.5,2.99,5.63,4.19,2.01,1.13,4.16,1.96,6.35,2.66,4.43,1.42,9.11,2.05,13.77,2.03,9.4-.03,18.63-2.81,26.36-8.18,1.88-1.31.1-4.43-1.79-3.1-7.19,5.02-15.79,7.75-24.55,7.97-4.26.1-8.53-.39-12.67-1.36-2.13-.5-4.2-1.19-6.27-1.9-2.14-.72-4.73-1.43-6.66-2.57-.17-.1-.31.15-.15.27h0Z"/>
  <path d="M370.28,792.93"/>
  <path d="M519.25,535.28c2.7,8.14,8.59,15.29,15.23,20.58,3.34,2.66,6.93,4.91,10.85,6.63,3.82,1.68,8.39,3.25,12.6,3.11,1.06-.04,1.75-1.71.59-2.19-3.72-1.55-7.58-2.59-11.25-4.32-3.59-1.69-7.09-3.79-10.22-6.23-6.53-5.07-11.16-11.51-15.15-18.66-.78-1.39-3.17-.49-2.65,1.09h0Z"/>
  <path d="M539.15,532.97c.15.98.31,1.85.73,2.75.4.86.87,1.69,1.38,2.48,1.08,1.65,2.5,3.2,4.08,4.38s3.27,2.2,5.1,2.83c.86.29,1.74.51,2.63.68.96.18,2.08.47,3.02.16.82-.27.93-1.28.23-1.76-.72-.49-1.65-.61-2.46-.89-.78-.28-1.53-.61-2.27-.99-1.51-.77-2.98-1.53-4.34-2.56-1.4-1.06-2.68-2.2-3.89-3.48-.55-.58-1.07-1.19-1.54-1.84-.54-.75-1.16-1.42-1.72-2.15-.36-.47-1.06-.21-.96.4h0Z"/>
  <path d="M464.11,433.95"/>
  <path d="M469.19,450.79c3.3,0,3.32-5.12.03-5.12s-3.32,5.12-.03,5.12h0Z"/>
  <path d="M476.12,461.61c1.8,3.64,5.35,6.5,8.62,8.81,3.65,2.57,7.65,4.63,11.82,6.2,4.08,1.54,8.34,2.54,12.67,3.04,4.2.49,9.21.59,13.21-.99.81-.32.74-1.49-.19-1.55-4.08-.28-8.2.12-12.3-.24-4.22-.37-8.38-1.27-12.38-2.66-3.9-1.36-7.62-3.2-11.07-5.46s-6.48-5.29-9.99-7.54c-.25-.16-.51.15-.39.39h0Z"/>
  <path d="M462.32,401.31c4.34,2.46,9.88,3.03,14.74,3.89,4.94.87,9.91,1.63,14.87,2.44,9.64,1.57,20.22,2.07,29.33,5.83,19.12,7.9,19.55,30.82,21.78,48.27.28,2.19,3.54,1.53,3.67-.46,1.16-18.5-1.81-41.78-20.13-51.45-9.15-4.83-20.21-5.49-30.26-6.99-5.97-.89-11.95-1.76-17.94-2.56-5.06-.68-10.77-1.86-15.81-.78-.85.18-.96,1.39-.24,1.8h0Z"/>
  <path d="M570.72,452.8c.02,1.16.53,1.88,1.41,2.63.83.7,1.73,1.36,2.61,2,1.68,1.22,3.48,2.27,5.24,3.36,1.75,1.1,3.56,2.14,5.41,3.07.96.48,2.01.8,3,1.22,1.05.45,2.05.8,3.2.63,1.11-.16,1.3-1.46.95-2.28-.42-.98-1.52-1.7-2.37-2.3-.88-.62-1.68-1.34-2.62-1.89-1.73-1.03-3.47-2.01-5.27-2.92-1.8-.9-3.57-1.86-5.42-2.64-1-.43-2.03-.85-3.06-1.2-1.1-.37-1.99-.44-3,.15-.06.03-.1.1-.1.16h0Z"/>
  <path d="M610.27,320.79c.64-3.95.16-7.89.42-11.9.28-4.34.71-8.69,1.64-12.94,1.84-8.45,5.65-16.53,11.02-23.32s12.23-12.35,20.19-15.62c10.49-4.31,22.46-4.47,33.53-2.89,24.41,3.48,47.39,14.97,72.38,14.74,18.51-.17,40.02-7.78,48.63-25.49,7.54-15.5,4-42.83-16.79-45.28-2.38-.28-3.84,3.33-2,4.83,11.43,9.28,16.33,26,7.44,38.85-11.52,16.65-35.01,18.47-53.18,15.36-23.62-4.05-46.22-14.52-70.58-13.77-19.35.59-36.22,9.49-47.48,25.22-5.55,7.75-9.32,16.95-10.81,26.37-1.29,8.17-1.19,19.66,4.87,26.05.21.22.67.13.72-.2h0Z"/>
  <path d="M409.92,367.73c.98-10.09-3.83-20.06-9.17-28.39-5.8-9.05-13.25-16.9-22.03-23.09-19.9-14.04-45.04-19.44-68.97-20.85-26.83-1.58-53.56,2.06-80.3,3.63-23.94,1.41-50.21,2.1-71.04-11.69-9.33-6.18-16.85-15.42-19.16-26.52-2.1-10.13.69-22.02,7.59-29.87,4.35-4.95-2.15-10.91-7.12-7.02-17.62,13.82-16.49,41.03-4.17,58.04,14.48,20.01,38.66,27.97,62.42,29.55,52.68,3.51,108.86-16.01,159.4,6.52,11.17,4.98,21.66,12.03,30.41,20.58,4.2,4.11,7.98,8.59,11.09,13.57,3.26,5.22,5.83,10.83,9.03,16.06.59.96,1.91.5,2.01-.53h0Z"/>
  <path d="M142.66,225.49l-.4-.15c-.91-.8-1.92-.84-2.99-.38-14.82,6.4-23.17,21.91-26.85,37.05-4.5,18.5-1.72,38.35.77,56.93,2.03,15.18,5.09,31.31,14.02,44.12,4.62,6.63,10.5,12.08,17.61,15.96,7.56,4.13,15.89,6.58,24,9.37,8.42,2.89,17.54,6.56,23.55,13.4,5.57,6.35,7.67,14.47,4.45,22.46-1.06,2.64,2.79,4.4,4.57,2.62,11.5-11.51,4.07-30.32-6.93-39.12-13.4-10.72-31.42-11.77-45.82-20.57-12.88-7.87-18.28-22.55-21.23-36.63-3.59-17.14-5.89-35.58-5-53.08.92-18.31,7.24-35.12,19.87-48.61.57-.61.91-1.55.64-2.37l-.04-.62c0-.14-.08-.32-.22-.38h0Z"/>
  <path d="M201.79,417.36c-3.86,4.66-5.32,11.77-6.55,17.56-1.37,6.45-2.5,13.13-1.95,19.74.89,10.74,4.87,21.41,12.56,29.18,3.8,3.84,8.47,6.72,13.59,8.42,5.15,1.71,10.67,2.08,15.96,3.2,4.66.99,9.1,2.09,11.47,6.61,2.68,5.1,2.84,11.66,3.57,17.26,2.07,15.78,3.51,32.47,9.35,47.39,1.21,3.08,5.31,2.64,5.69-.71,1.57-13.72-.49-27.96-2.26-41.58-1.46-11.25-1.19-25.94-10.37-34.15-8.66-7.75-19.8-5.42-30.17-8.05-9.91-2.52-16.4-11.72-19.15-21.11-2.03-6.93-2.3-14.5-1.95-21.67.35-6.96,2.84-14.93,1.23-21.8-.1-.43-.74-.65-1.04-.28h0Z"/>
  <path d="M396.55,342.68c3.94,3.95,5.35,10.94,7.06,16.12,1.8,5.48,3.54,10.95,5.32,16.44,3.43,10.61,6.45,21.38,8.77,32.29,4.54,21.28,7.15,42.52,5.13,64.29-3.41,36.84-20.97,72.31-49.5,96.16-15.32,12.81-33.6,21.8-52.98,26.47-3.44.83-2.86,6.45.78,6.26,38.93-2.09,72.36-28.92,92.05-61.27,22.93-37.7,26.93-83.16,18.13-125.79-2.62-12.7-6.92-24.98-12.1-36.85-2.7-6.19-5.98-11.85-9.22-17.74-1.51-2.74-3.3-5.29-4.96-7.94-2.07-3.3-4.65-6.31-5.49-10.16-.62-2.85-5.19-.47-2.99,1.73h0Z"/>
  <path d="M322.63,600.19c13.39-2.13,26.26-11.27,36.72-19.52,10.99-8.67,20.8-18.78,28.86-30.24,16.31-23.19,24.8-51.34,22.9-79.72-1.89-28.32-12.33-56.71-34.64-75.29-11.3-9.41-25.53-16.01-40.52-14.91-14.27,1.04-28.33,8.38-34.28,21.94-6.06,13.79-3.56,31.35,9.94,39.77,11.05,6.89,28.85,5.03,34.04-8.29.86-2.21-2.16-4.42-4.06-3.12-3.99,2.72-7.84,4.13-12.71,4-4.14-.11-8.76-1.24-12.11-3.76-8.14-6.11-7.37-18.45-2.56-26.33,6.02-9.86,18.91-13.26,29.79-11.83,12.21,1.61,22.83,9.24,31.08,17.97,16.18,17.13,25.45,41.05,26.15,64.47.73,24.43-6.67,48.1-20.14,68.4-7.49,11.28-16.59,21.48-26.83,30.32-5.2,4.48-10.64,8.61-16.3,12.49-5.54,3.8-11.44,7.31-16.47,11.72-.95.84.1,2.12,1.13,1.96h0Z"/>
  <path d="M395.15,385.52c-1.74-4.26-2.88-8.28-5.55-12.09-2.63-3.74-5.61-7.25-8.91-10.41-7.02-6.72-15.46-12.07-24.27-16.12-21.11-9.71-44.04-11.57-66.99-10.06-44.85,2.95-97.71,17.1-137.01-12.68-17.36-13.15-29.97-33.18-35.53-54.12-.94-3.53-6.8-3.03-6.54.82,1.37,20.41,10.16,39.43,24.56,53.96,15.44,15.56,35.65,24.77,57.2,28.05,24.31,3.7,48.65,1.06,72.91-1.59,24.29-2.65,49.9-5.54,74.1-.68,10.92,2.19,21.55,5.88,31.09,11.67,4.66,2.83,9.06,6.13,13,9.91,4.1,3.93,8.84,8.58,11.76,13.4.05.09.22.03.18-.07h0Z"/>
  <path d="M786.17,203.89c2.95,4.89,6.1,9.62,8.57,14.79,2.47,5.16,3.68,10.81,5.05,16.32,2.63,10.56,2.72,21.72-.29,32.22-6,20.93-23.96,36.25-42.96,45.45-2.45,1.19-1.35,5.43,1.38,5.22,20.18-1.54,36.7-14.55,46.61-31.75,9.98-17.32,13.02-40.73,4.87-59.39-4.31-9.87-10.88-20.1-20.27-25.83-1.84-1.12-4.06,1.15-2.96,2.98h0Z"/>
  <path d="M768.58,309.89c-6.88-3.32-13,8.31-14.35,13.53-2.74,10.63.93,20.77,2.48,31.21,1.4,9.4,2.12,18.5-4.74,26.09-2.94,3.26-6.7,5.54-10.79,7.11-2.23.85-4.67,1.6-7,2.08-2.22.46-4.35.4-6.31,1.7-1.69,1.12-1.75,2.98-.58,4.49,2.66,3.41,8.95,3.79,12.93,3.48,5.13-.39,10.05-2.1,14.29-5.02,8.37-5.77,13.91-14.88,15.19-24.96,1.46-11.58-3.89-21.63-6.78-32.49-1.36-5.12-2.19-10.4-.63-15.57.68-2.26,1.68-4.57,3.13-6.45,1.41-1.82,2.73-2.76,3.23-5.04.01-.06,0-.14-.07-.17h0Z"/>
  <path d="M734.42,393.44c-9.35-4.29-17.36,6.69-20.13,14.17-4.24,11.48-.91,24.02-1.4,35.89-.51,12.33-8.98,21.83-17.12,30.28-8.45,8.77-17.26,17.59-21.58,29.24-2.18,5.88-2.85,12.31-1.94,18.51.85,5.83,3.64,14.3,10.7,14.4,1.94.03,4.05-1.44,4.46-3.4,1.03-4.91-2.68-8.75-3.29-13.52-.54-4.28.29-8.83,1.85-12.82,3.84-9.85,12.24-17.3,19.38-24.76,7.41-7.74,14.44-16.23,17.7-26.62,3.72-11.89-.44-23.05-.77-34.99-.13-4.74.69-9.52,3.06-13.69,1.11-1.96,2.59-3.98,4.24-5.52,1.56-1.46,3.62-2.33,5.31-3.7,1.05-.85.72-2.9-.48-3.45h0Z"/>
  <path d="M800.03,230.06c-.83,14-9.1,27.71-20.65,35.55-14.65,9.94-33.39,9.85-50.37,8.53-32.28-2.51-73.19-10.36-95.69,19.74-9.42,12.61-13.02,30.02-2.87,43.36,3.07,4.03,8.89.76,6.83-3.94-5.11-11.67.08-26.41,8.33-35.33,11.08-11.97,28.05-14.76,43.65-14.73,33.55.08,72.22,13.04,100.95-10.93,12.17-10.15,20.8-28,11.46-42.68-.48-.75-1.6-.44-1.65.44h0Z"/>
  <path d="M656.86,477.87c-1.22-4.14-1.51-8.55-2.41-12.79-1-4.74-2.41-9.38-3.59-14.08-2.17-8.7-4.47-17.34-6.06-26.18-3.15-17.52-4.48-35.6-.74-53.15,3.04-14.29,10.46-29.81,25.21-35.03,11.61-4.11,28.31,1.5,28.04,15.83-.11,5.69-3.44,11.93-9.47,12.94-5.85.98-11.87-1.63-14.85-6.79-1.63-2.82-7.03-1.89-6.6,1.75,2.04,17.46,25.53,21.4,36.27,9.21,5.78-6.56,7.69-16.2,5.45-24.59-2.26-8.46-8.8-15.17-16.73-18.61-18.43-7.99-38.14,1.92-48.62,17.73-11.94,18.02-13.24,41.92-10.7,62.74,1.51,12.41,4.66,24.42,8.61,36.26,1.94,5.82,4.19,11.5,6.56,17.15,2.6,6.21,6.5,11.67,9.19,17.77.11.25.51.08.44-.18h0Z"/>
  <path d="M645.88,434.91c-.35-.94.59-3,.78-4.04.21-1.14.49-2.29.76-3.42.48-2.03,1.16-4.07,2.1-5.94,1.94-3.88,4.67-7.52,8.43-9.8,3.89-2.35,8.23-3.09,12.72-2.87,2.24.11,4.38.6,6.52,1.27.99.31,1.99.54,2.96.91,1.18.46,2.59,1.28,3.86,1.12,1.06-.13,2.36-.89,2.21-2.19-.33-2.8-3.4-5.04-5.73-6.39-2.66-1.55-5.91-2.25-8.92-2.62-5.94-.74-12.47.79-17.46,4.11-4.93,3.28-8.71,8.07-10.44,13.76-.81,2.67-1.2,5.48-1.03,8.27.09,1.39.36,2.65.77,3.98.21.67.4,1.2.81,1.77.53.74,1.22,1.12,1.37,2.16.03.2.37.11.3-.08h0Z"/>
  <path d="M359.35,437.83l.64,1.15c.38.72.91,1.29,1.58,1.72.57.51,1.24.86,2.01,1.04.75.23,1.5.27,2.26.11.79-.03,1.54-.26,2.22-.7.42-.32.84-.64,1.25-.97.73-.74,1.22-1.62,1.5-2.62.07-.5.13-1,.2-1.5,0-1.06-.26-2.06-.79-2.98-.19-.4-.37-.8-.56-1.2-.38-.72-.91-1.3-1.59-1.73-.58-.52-1.25-.87-2.02-1.04-.76-.23-1.51-.27-2.27-.11-.8.03-1.55.27-2.24.7l-1.26.98c-.73.75-1.23,1.63-1.51,2.64l-.2,1.51c0,1.07.26,2.08.8,3.01h0Z"/>
  <path d="M372.29,464.38c.81.04,1.57-.13,2.27-.49.77-.24,1.44-.67,2-1.28.58-.55.99-1.19,1.22-1.93.35-.69.52-1.42.49-2.21-.06-.51-.13-1.02-.19-1.53-.28-1.06-.81-1.97-1.58-2.74-.41-.31-.82-.62-1.23-.93-.91-.51-1.88-.77-2.92-.78-.81-.04-1.57.13-2.27.49-.77.24-1.44.67-2,1.28-.58.55-.99,1.19-1.22,1.93-.35.69-.52,1.42-.49,2.21.06.51.13,1.02.19,1.53.28,1.06.81,1.97,1.58,2.74l1.23.93c.91.51,1.88.77,2.92.78h0Z"/>
  <path d="M373.97,473.92l-.16-.02c-.55-.05-1.12.05-1.66.2l-.29.08-1.45.6c-.71.38-1.28.9-1.7,1.56-.36.37-.61.8-.74,1.3-.35.68-.51,1.4-.48,2.18l.19,1.51c.2.48.4.97.6,1.45.38.71.9,1.28,1.56,1.7.57.51,1.23.85,1.99,1.03l.29.08c.53.15,1.09.26,1.64.21l.16-.02c.81.03,1.56-.13,2.26-.49.77-.24,1.44-.67,1.99-1.27.58-.54.98-1.19,1.22-1.93.35-.68.51-1.42.49-2.2l-.19-1.53c-.28-1.05-.81-1.96-1.58-2.73-.41-.31-.82-.62-1.23-.93-.9-.51-1.87-.77-2.91-.78h0Z"/>
  <path d="M371.38,498.77c-1.72,2.69-1.44,5.96-1.66,9.03-.27,3.69-.79,7.38-1.56,11-1.49,6.95-3.92,13.67-7.23,19.96-3.3,6.27-7.45,12.08-12.39,17.16-4.97,5.11-10.82,9.2-16.07,13.99-1.64,1.5.07,4.64,2.24,3.87,14.17-5.06,24.84-19.65,31.4-32.69,3.48-6.92,6.05-14.33,7.47-21.95.67-3.56,1.1-7.16,1.22-10.78.11-3.42.32-7.03-1.95-9.8-.4-.49-1.17-.25-1.46.2h0Z"/>
  <path d="M359.85,502.12c-1.1,5.7-1.76,11.4-3.67,16.91-1.91,5.5-4.69,10.69-8.09,15.41-3.42,4.75-7.59,9.05-12.29,12.55-4.68,3.49-10.09,5.71-14.73,9.21-.81.61-.7,2.22.57,2.14,6.15-.37,11.35-3.86,16.08-7.58,5.02-3.94,9.39-8.66,13.03-13.9,6.59-9.5,12.24-22.98,10.26-34.74-.1-.58-1.04-.58-1.16,0h0Z"/>
  <path d="M573.12,302.17c-5.69,2.48-14.1,2.19-18.69-2.43-1.99-2-3.32-5.05-3.22-7.91.09-2.38,1.1-6.97,3.39-8.24-1.73-2.99-3.45-5.98-5.18-8.97-4.73,2.87-7.84,6.7-13.97,5.91-4.91-.63-8.43-4.45-9.39-9.2-2.16-10.62,9.17-15.47,16.62-19.89,4.32-2.56,8.58-5.43,11.7-9.43,4.37-5.6,5.43-12.12,4.27-19.07-1.35-8.11-4.86-16.09-7.45-23.87-2.7-8.1-5.37-16.21-8.1-24.3-6.05-17.93-12.32-35.84-19.88-53.19-1.5-3.44-6.71-.98-5.92,2.43,4.2,18.06,9.78,35.81,15.52,53.44,2.87,8.83,5.81,17.65,8.72,26.47,1.34,4.05,2.71,8.1,4.01,12.16,1.37,4.3,3.12,9.15,2.07,13.68-1.1,4.73-5.15,7.61-9.05,10.03-4.99,3.11-10.24,5.73-14.85,9.42-10.29,8.23-13.51,22.83-5.47,33.92,4.65,6.41,12.17,10.12,20.14,9.51,7.28-.56,16.73-4.4,18.62-12.19,1.38-5.69-6.48-9.05-9.5-3.91-2.99,5.08-5.4,9.07-4.85,15.24.46,5.19,2.1,10.13,6.01,13.79,7.44,6.95,20.09,6.88,25.95-1.91.67-1-.61-1.89-1.51-1.5h0Z"/>
  <path d="M523.23,127.11c-.15-3.21,4.74-6.38,7.71-6.21,3.83.22,6.47,3.96,8.01,7.05,2,4.02,3.19,8.43,4.66,12.66,1.89,5.45,3.88,10.87,5.81,16.3,7.5,21.04,15.23,42,22.95,62.96,1.26,3.42,4.75,5.26,8.16,3.41,7.92-4.28,16.3,7.28,8.61,12.84-5.08,3.67-3.09,10.57,3.01,11.34,7.19.91,13.17,8.1,13.04,15.24-.12,7.05-6.87,14.77-13.68,16.37-4.89,1.15-4.07,9.23,1.11,8.89,6.72-.44,12.94-2.2,17.56-7.46,4.41-5.01,7.27-11.53,7.19-18.27-.16-14.13-11.6-25.22-25.17-26.93,1,3.78,2,7.56,3.01,11.34,8.28-5.99,11.92-17.68,6.16-26.78-5.66-8.93-17.38-11.14-26.41-6.21,2.72,1.14,5.44,2.28,8.16,3.41-9.87-26.36-19.63-52.77-30-78.95-3.39-8.57-7.61-22.28-18.53-23.64-3.85-.48-8.56,1.29-11.18,4.16-2.55,2.79-2.2,5.44-.33,8.5.04.06.14.04.13-.04h0Z"/>
  <path d="M576.16,271.83l.46-.46c-.7.4-1.39.8-2.09,1.21.43-.07,1-.32,1.38-.53.62-.34,1.16-.86,1.58-1.42.27-.36.5-.7.74-1.08.52-.86.89-1.77,1.21-2.72.32-.96.44-1.94.4-2.95-.01-.26-.02-.53-.04-.79-.09-1.57-.65-3.09-1.82-4.19.47.81.94,1.62,1.4,2.43-.13-.41-.27-.81-.4-1.22-.6-1.81-1.94-3.13-3.88-3.39-.83-.11-1.58-.01-2.36.31-.41.11-.77.32-1.07.62-.52.33-.93.78-1.22,1.34-.26.35-.52.71-.78,1.06.65-.65,1.3-1.3,1.95-1.96-1.19.56-2.07,1.67-2.55,2.86-.18.44-.35.87-.52,1.32-.37.98-.51,1.98-.51,3.03.02,2.47.67,5.62,3.09,6.84-.56-.56-1.12-1.12-1.68-1.67l.28.56c1.21,2.4,4.65,2.61,6.43.82h0Z"/>
  <path d="M542.47,239.34c-.91-.56-1.83-1.11-2.74-1.67.51.89,1.02,1.77,1.54,2.66-.39-7.77-2.59-15.32-4.49-22.83-1.9-7.49-3.93-14.95-6.04-22.39-2.02-7.13-4.82-14.47-5.84-21.82-.41-2.98-.41-6.18.9-8.94,1.31-2.75,4.01-3.82,3.9-7.24-.07-2.02-1.29-3.42-3.12-4.09l-.64-.23c-1.76-.65-3.64.22-4.95,1.34-12.15,10.44-4.71,28.1-1.1,40.72,2.26,7.92,4.58,15.82,7.03,23.68,2.45,7.86,4.65,16.07,8.66,23.32,0-1.01,0-2.02,0-3.03-.47.94-.95,1.87-1.42,2.81-2.33,4.59,1.58,10.29,6.83,8.92,5.23-1.37,5.99-8.46,1.48-11.2h0Z"/>
  <path d="M555.13,148.8c6.44.55,11.82,1.94,15.89,7.34,3.85,5.1,5.84,11.9,7.95,17.85,2.3,6.47,4.51,12.96,6.35,19.58,1.95,7.02,3.27,14.17,5.04,21.22,1.39,5.54,9.01,3.15,8.33-2.17-2.13-16.51-8.32-33.26-15.39-48.24-2.87-6.09-6.59-12.82-12.48-16.48-4.56-2.84-12.33-4.57-15.82.67-.06.1.02.21.12.21h0Z"/>
  <path d="M273.96,295.24c.83-8.76,2.87-18.08,5.3-26.54,2.42-8.42,5.88-16.47,10.17-24.1,8.83-15.67,21.12-29.37,35.34-40.36,33.2-25.65,75.56-34.16,116.78-32.78,12.42.42,24.81,1.65,37.08,3.6,6.4,1.02,12.78,2.2,19.13,3.54,6.29,1.32,12.62,3.44,19.07,3.56,5.23.09,7.5-7.53,2.68-10.01-5.37-2.76-11.38-3.73-17.25-4.99-5.89-1.26-11.8-2.39-17.74-3.38-11.92-1.98-23.94-3.44-36-4.14-23.54-1.37-47.44.18-70.35,5.96-39.25,9.9-74.95,33.61-96.5,68.28-5.64,9.07-10.16,18.89-13.25,29.12-1.56,5.16-2.8,10.45-3.47,15.8-.7,5.58-.26,10.85.21,16.41.49,5.66,8.26,5.7,8.8.05h0Z"/>
  <path d="M414.58,362.73c3.88.68,7.07-6.66,8.98-9.15,3.57-4.66,7.86-8.95,12.46-12.59,10.04-7.95,21.9-13.04,34.01-16.92,13.33-4.27,26.98-7.67,40.47-11.38,7.23-1.99,14.46-3.98,21.69-5.97,3.37-.93,6.76-1.81,10.12-2.8,3.47-1.02,7.65-1.84,10.1-4.65,1.92-2.21,1.09-5.42-1.72-6.34-3.54-1.15-7.44.25-10.93,1.16-3.87,1-7.71,2.14-11.56,3.21-7.7,2.15-15.41,4.3-23.11,6.45-14.32,3.99-28.84,7.61-42.77,12.82-12.47,4.66-24.54,10.69-34.41,19.75-4.6,4.22-8.74,9.08-11.72,14.59-.86,1.59-5.78,11.1-1.58,11.83h0Z"/>
  <path d="M395.4,335.41c3.45-2.73,5.31-7.66,7.38-11.47,2.36-4.35,4.89-8.65,7.64-12.76,5.56-8.3,12.09-15.94,19.54-22.6,16.04-14.32,36.13-23.47,57.39-26.52,6.06-.87,12.22-1.18,18.34-1.03,5.77.14,12.65,2.23,18.08,0,2.15-.89,2.34-4.32.73-5.73-4.11-3.63-10.94-3.37-16.15-3.6-6.09-.27-12.2-.03-18.26.68-11.68,1.38-22.95,4.42-33.75,9.05-20.16,8.65-38.01,23.54-49.92,42-3.17,4.91-6.02,10.04-8.21,15.45-1.94,4.77-4.85,11.19-3.33,16.39.07.25.34.28.52.14h0Z"/>
  <path d="M352.91,300.46c4.73-4.35,6.85-10.74,9.9-16.27,3.2-5.8,6.79-11.38,10.74-16.69,7.8-10.46,16.99-19.96,27.22-28.05,22.39-17.71,50.3-28.16,78.76-29.93,8.14-.51,16.33-.34,24.44.5,8.69.9,16.93,3.15,25.44,4.97,5.63,1.21,7.51-6.51,2.28-8.5-14.42-5.48-31.52-6.74-46.82-6.34-15.8.41-31.61,3.23-46.53,8.47-26.88,9.46-51.04,26.89-68.33,49.58-4.71,6.18-8.98,12.66-12.69,19.49-3.49,6.41-8.13,13.99-7.4,21.53.15,1.51,1.81,2.32,2.99,1.23h0Z"/>
  <path d="M290.73,235.05c.27-11.01-1.13-21.95-1.09-32.97.04-11.17,1.45-22.3,4.39-33.08,5.73-21.07,17.06-40.44,33.73-54.69,30.98-26.47,77.49-32.45,110.92-7.05,8.5,6.46,15.8,14.55,21.21,23.75,2.74,4.65,4.99,9.54,6.62,14.68,1.73,5.47,2.37,11.04,4.7,16.29,1.76,3.96,8.17,2.76,9.06-1.19,2.34-10.32-2.88-22.49-7.53-31.6-4.9-9.61-11.74-18.4-19.68-25.68-16.41-15.04-37.66-24.14-59.95-24.88-48.01-1.6-91.4,32.96-105.63,77.79-4.08,12.86-6.01,26.56-5.92,40.05.09,13.16,1.74,27.31,8.83,38.68.1.16.35.1.36-.09h0Z"/>
  <path d="M280.79,191.55c-.45.48-1.31-.01-1.82-.05s-1.22.15-1.67.39c-1.27.68-2.49,2.06-3.37,3.17-1.77,2.22-3.1,4.75-4.18,7.36-2.18,5.3-3.17,11.16-2.49,16.87.67,5.66,2.78,11.29,6.8,15.44,3.67,3.79,9.43,6.24,14.62,4.33,5.09-1.87,9.01-6.81,7.87-12.39-.35-1.73-2.88-1.28-2.96.37-.23,4.62-5.76,7.02-9.87,6.26-5.04-.94-8.15-6.37-9.38-10.89-1.44-5.3-1.19-10.95.45-16.17.8-2.54,2-4.87,3.4-7.13.7-1.12,1.41-2.24,2.05-3.4.38-.68.7-1.15.7-1.97,0-.56-.54-1.54.04-1.96.18-.13-.04-.4-.19-.24h0Z"/>
  <path d="M462.32,116.46c.93-.04,2.07.67,3.03.9,1.33.32,2.62.83,3.96,1.18,2.95.78,5.79,1.75,8.48,3.2,5.1,2.76,9.52,6.48,12.53,11.48,3.11,5.16,4.58,11.1,4.39,17.12-.19,6-3.36,12.35-2.23,18.28.24,1.26,1.75,2.07,2.95,1.73,7.8-2.22,9.77-13.07,9.74-19.96-.03-7.8-2.37-15.67-7.09-21.93-4.3-5.71-10.33-10.2-17.09-12.56-3.3-1.15-6.82-1.85-10.32-1.92-1.88-.04-3.5.31-5.31.78-1.17.3-1.95,1.12-3.09,1.31-.21.04-.17.38.05.38h0Z"/>
  <path d="M340.73,96.77c.45.61.76,1.29.93,2.04,1.17-.67,2.33-1.35,3.5-2.02-1.85-1.53-3.86-1.88-6.09-2.6-2.23-.71-4.41-1.59-6.46-2.72-3.88-2.14-7.35-5.11-9.9-8.74-5.19-7.4-6.43-16.43-3.12-24.91,3.12-7.99,10.21-13.78,18.83-14.58,8.25-.76,16.55,2.87,20.43,10.36,2.07,3.99,2.86,8.63,2.16,13.09-.72,4.59-3.25,8.07-5.55,11.97-2.56,4.33,2.65,9.52,6.97,6.93,10.33-6.19,12.04-22,8.14-32.38-4.39-11.68-15.34-18.44-27.52-19.29-11.86-.83-23.12,5.08-29.27,15.23-6.12,10.1-6.69,23.05-1.24,33.54,3.01,5.8,7.92,10.56,13.53,13.85,2.75,1.61,5.82,2.97,8.91,3.77,3.09.8,6.92,1.57,9.77-.2,1.96-1.22.77-4.51-1.58-3.84-.75.27-1.52.38-2.33.34-.09,0-.15.1-.1.18h0Z"/>
  <path d="M322.92,36.91c-.47.22-.94.45-1.41.67,1.08.14,2.17.28,3.25.42-3.18-3.06-6.15-6.29-7.56-10.56-.63-1.92-.77-3.2-.57-5.27.13-1.31.61-2.82,1.48-4.2.13-.21.27-.43.42-.62-.11.15-.35.4.12-.11.3-.32.61-.63.94-.92s.01-.01-.06.03c.21-.15.42-.28.64-.41.19-.11,1.3-.6.88-.45,1.76-.61,3.04-.58,4.84-.05,1.41.42,3.2,1.45,4.32,2.46,1.64,1.48,2.54,2.79,3.54,5,1.02,2.26,1.59,4.96,1.97,7.48.47,3.09-.02,6.87,2.84,8.85-.39-.39-.77-.77-1.16-1.16l.15.13c.86,2.35,4.63,2.91,5.27.02l-.22.26c.18-.24.37-.49.55-.73.34-.59.4-1.13.48-1.77.11-.86.13-1.62.05-2.49-.15-1.68-.35-3.35-.6-5.02-.47-3.08-1.3-6.04-2.55-8.9-2.33-5.31-6.74-9.51-12.28-11.32-5.27-1.72-11.38-.43-15.02,3.89-3.49,4.15-4.55,9.76-3.51,15.02,1.27,6.47,6.47,11.63,11.8,15.1-.45-.79-.91-1.58-1.36-2.36-.24,1.84-.54,3.65.53,5.33.58.91,1.34,1.67,2.26,2.25,2.57,1.62,6.09.66,7.84-1.65,1.67-2.2,1.65-5.16-.04-7.34-1.94-2.52-5.05-2.91-7.83-1.58h0Z"/>
  <path d="M336.93,101.66c-6.64,3.79-11.25,10.53-15.29,16.86-4.38,6.86-7.94,14.06-10.48,21.79-5.07,15.4-6.32,31.79-2.59,47.59.53,2.23,4.05,1.81,4-.5-.36-15.01,1.2-30.19,5.58-44.58,2.17-7.13,4.87-14.24,8.3-20.85,3.46-6.68,8.25-12.64,11.31-19.49.23-.52-.27-1.13-.82-.81h0Z"/>
  <path d="M344.02,105.66c-.56.92-1.47,1.26-1.98,2.16-.81,1.43-1.08,3.4-1.43,4.98-.6,2.74-1.07,5.5-1.43,8.27-.81,6.22-1.04,12.58-.86,18.85.17,6.07.75,12.18,1.8,18.17,1.03,5.91,2.23,12.61,5.32,17.83.73,1.23,2.81.77,2.77-.73-.17-5.69-1.85-11.52-2.7-17.15-.94-6.21-1.53-12.45-1.76-18.73-.22-6.08-.03-12.13.37-18.2.2-3.02.49-6.02.74-9.03.1-1.22.4-2.64.21-3.85-.16-.97-.86-1.51-1-2.57,0-.02-.03-.02-.04,0h0Z"/>
  <path d="M350.47,104.65c.64.71.02,1.83.5,2.69.59,1.06,1.87,1.94,2.78,2.71,1.95,1.64,3.88,3.34,5.72,5.1,3.59,3.42,6.82,7.19,9.72,11.22,2.92,4.05,5.49,8.4,7.71,12.86,2.26,4.55,4.11,9.21,6.26,13.8.8,1.71,3.59.87,3.52-.93-.39-10.67-5.6-20.97-11.85-29.41-3.23-4.36-6.94-8.36-11.03-11.93-1.94-1.7-3.96-3.28-6.11-4.71-1.11-.74-2.24-1.5-3.51-1.94-.64-.22-1.08-.41-1.77-.23-.61.15-1.14.78-1.83.58-.12-.03-.19.12-.11.2h0Z"/>
  <path d="M361.44,98.43c1.37.79,1.44,2.24,3.11,2.97,1.5.65,3.12,1.11,4.67,1.62,3.41,1.11,6.82,2.24,10.12,3.65,6.54,2.79,12.87,6.18,18.74,10.19,5.71,3.9,11.01,8.51,15.77,13.51,2.46,2.58,4.78,5.24,7.04,7.99,2.13,2.59,4.39,5.79,7.18,7.68,1.31.88,3.37-.3,3.25-1.88-.52-6.92-6.54-13.97-10.93-18.98-5.06-5.77-10.96-10.74-17.31-15.04-6.18-4.19-12.85-7.65-19.9-10.15-3.5-1.24-7.09-2.35-10.74-3.07-1.92-.38-3.87-.7-5.82-.77-.87-.03-1.78-.13-2.63.13-.94.29-1.57,1.41-2.47,1.61-.25.06-.28.41-.07.53h0Z"/>
  <path d="M411.07,317.37l.3.38v-1.23c-.53.59-.83,1.17-.69,1.98.2,1.11.75,2.36,1.18,3.39.82,1.97,1.65,3.94,2.53,5.88,1.79,3.95,3.45,7.99,5.43,11.85.85,1.65,1.89,4.45,4.18,4.19,2.28-.25,1.77-3.18,1.15-4.63-1.7-3.99-3.7-7.85-5.62-11.74-1.05-2.13-2.14-4.25-3.24-6.36-.59-1.14-1.24-2.21-1.93-3.29-.62-.99-1.16-1.58-2.39-1.54.28.22.56.43.83.65l-.11-.49c-.32-1.44-2.72-.44-1.64.94h0Z"/>
  <path d="M426.04,300.35c.3,2.7,1.25,5.36,2.05,7.94.88,2.85,1.89,5.69,2.92,8.49,1,2.72,2.1,5.41,3.15,8.11.98,2.52,1.86,5.75,3.94,7.6.82.73,1.97.18,2.08-.86.27-2.73-1.23-5.56-2.2-8.05-1.05-2.67-2.07-5.37-3.17-8.02-1.1-2.66-2.24-5.33-3.47-7.94-1.2-2.56-2.36-5.33-4.04-7.61-.34-.46-1.33-.41-1.25.33h0Z"/>
  <path d="M441.4,282.7c.05.69-.25.92-.35,1.55-.14.85.3,2.04.55,2.82.67,2.06,1.59,4.08,2.41,6.09,1.69,4.12,3.38,8.23,5.17,12.31,1.79,4.06,3.54,8.15,5.42,12.17.97,2.07,1.91,4.15,3.02,6.15.89,1.62,1.74,3.52,3.72,3.9.6.12,1.22-.09,1.54-.64,1-1.74.23-3.5-.43-5.24-.79-2.11-1.71-4.14-2.63-6.19-1.82-4.04-3.76-8.02-5.68-12.01s-3.91-7.93-5.92-11.87c-1.03-2.02-2.01-4.11-3.18-6.05-.45-.74-1.05-1.84-1.79-2.32-.5-.32-1.02-.35-1.47-.8-.12-.12-.38-.04-.37.15h0Z"/>
  <path d="M460.75,277.24c.04-1.15.32-1.86.91-2.79-.91-.24-1.82-.49-2.74-.73.06,1.88.84,3.8,1.47,5.56.61,1.7,1.37,3.35,2.05,5.02,1.41,3.46,2.79,6.93,4.27,10.35,1.49,3.46,2.93,6.95,4.48,10.38,1.46,3.22,2.89,7.01,5.8,9.18,1.03.77,2.23-.33,2.32-1.34.34-3.56-1.8-7.51-3.2-10.68-1.46-3.32-3.01-6.61-4.52-9.91s-3.09-6.56-4.67-9.82c-.78-1.63-1.5-3.31-2.36-4.9-.9-1.66-1.79-3.57-3.15-4.89-1.36-1.31-3.32.7-2.06,2.09.68.75,1.09,1.5,1.3,2.49.01.05.09.04.09-.01h0Z"/>
  <path d="M478.98,274.13c-.28-.57-1.17-2.04-.95-2.63.66-1.77-2.68-2.37-2.61-.35.06,1.91,1.03,3.71,1.8,5.43.78,1.76,1.55,3.53,2.39,5.27,1.74,3.59,3.51,7.16,5.26,10.73,1.75,3.58,3.54,7.14,5.33,10.69,1.84,3.67,3.5,7.5,5.85,10.87,1.55,2.22,5.84,1.01,4.78-1.96-1.38-3.85-3.46-7.38-5.38-10.99-1.87-3.51-3.73-7.03-5.63-10.52-1.9-3.49-3.8-6.98-5.71-10.48-.92-1.69-1.89-3.34-2.87-4.99-1.01-1.7-1.97-3.79-3.55-5-.31.76-.63,1.52-.94,2.28.56-.02,1.71,1.33,2.13,1.73.06.06.15-.02.11-.09h0Z"/>
  <path d="M498.75,262.29l.07.8c-.22.18-.3.57-.22.83,2.15,6.96,5.32,13.6,8.19,20.28,1.45,3.36,2.93,6.71,4.4,10.06.73,1.68,1.47,3.35,2.2,5.03.74,1.69,1.32,3.49,3.11,4.31,1.14.52,2.55.11,2.9-1.21.83-3.1-2.09-6.87-3.44-9.53-1.71-3.36-3.4-6.73-5.13-10.09-3.38-6.57-6.56-13.34-10.63-19.51-.22-.33-.58-.5-.97-.41l-.43-.58s-.05,0-.04.02h0Z"/>
  <path d="M380.44,286.45c-.4.12-.89.24-1.2.53-.38.36-.67.97-.9,1.43-.5.99-.95,2.13-1.07,3.24-.25,2.33.22,4.71,1.17,6.84,2.05,4.58,7.13,7.42,12.09,6.3,5.17-1.17,9.38-6.04,9.67-11.35.28-5.07-3.52-9.2-8.27-10.35-2.37-.57-5.01-.56-7.31.3-1.44.54-3.01,1.47-3.81,2.82-.71,1.19-1.32,2.49-.78,3.87.29.73,1.01,1.38,1.87,1.1.4-.13.8-.26,1.16-.47.3-.17.56-.39.82-.61.06-.05.14-.11.2-.17.19-.19-.44.2-.05.04.7-.28,1.3-.79,1.98-1.14.62-.32-.44.17.02-.02,0,0,1.13-.46.51-.21-.4.16-.11.04-.02.01.42-.14.83-.28,1.26-.37.2-.04.4-.08.61-.11.49-.09-.5.03,0,0,.42-.02.83-.05,1.25-.03.21,0,.42.03.63.04.6.04-.32-.08.13.02.41.09.82.17,1.22.29.2.06.39.14.59.2.27.08-.19-.08-.2-.09.08.04.16.07.24.11.4.19.78.4,1.15.64.25.17.34.28.04.01.15.14.31.26.46.4s.29.28.43.43c.06.06.11.14.17.2.23.19-.23-.38-.09-.12.18.33.4.65.59.98.22.37,0-.03-.03-.11.04.1.08.21.11.31.09.28.17.55.23.84.02.1.1.65.08.43s.01.42.01.54c0,.25-.02.49-.03.74-.02.27.01-.04.02-.08-.02.14-.05.28-.08.42-.1.49-.24.97-.42,1.43.14-.36-.06.12-.12.23-.13.26-.27.51-.41.76-.13.22-.27.43-.41.64s.01,0,.04-.04c-.07.09-.14.17-.21.26-.35.42-.73.82-1.14,1.19-.16.15-.33.29-.5.43.32-.25-.22.14-.31.21-.43.28-.87.52-1.33.75-.1.05-.2.09-.3.13.37-.15.02-.01-.05,0-.21.06-.41.14-.62.19-.24.07-.49.12-.73.17-.11.02-.21.04-.32.05.3-.04-.06,0-.18,0-.47.02-.94.03-1.41-.03.26.04-.24-.06-.31-.07-.26-.06-.52-.13-.77-.21-.12-.04-.25-.08-.37-.13.04.02.25.11.04.01s-.41-.2-.61-.31c-.17-.09-.34-.19-.5-.3-.09-.06-.63-.45-.38-.26-.33-.26-.64-.55-.94-.86-.16-.16-.31-.34-.46-.51,0,0-.21-.25-.09-.1.1.13-.12-.17-.14-.19-1.15-1.64-1.88-3.25-2.05-5.26-.09-1-.17-2.05-.04-3.05.07-.49.21-.96.34-1.44s.01-.93-.02-1.42c0-.06-.06-.11-.12-.09h0Z"/>
  <path d="M409.42,260.12c-.15.39-1.16.78-1.51,1.01-.49.32-.95.7-1.37,1.11-.87.85-1.64,1.71-2.2,2.8-1.18,2.28-1.48,5.11-.79,7.58,1.59,5.67,7.37,8.44,12.95,7.49,5.55-.95,9.71-5.77,9.42-11.46-.28-5.49-4.02-11.08-9.7-12.02-3.59-.59-7,.57-9.81,2.81s-4.47,5.67-3.48,9.13c.41,1.41,2.69,1.99,3.38.45.43-.97,1.03-1.85,1.54-2.77.11-.2.23-.39.35-.58s.52-.64.17-.26c.39-.42.76-.85,1.17-1.25.19-.19.39-.37.59-.55.09-.07.18-.14.27-.22.3-.28-.41.24-.04.04.51-.27.96-.63,1.48-.89.22-.11.62-.26.15-.09.25-.09.5-.18.76-.26.55-.17,1.1-.26,1.66-.38.05,0,.42-.05.1-.02-.34.04.14,0,.22,0,.27,0,.53-.02.79,0,.15,0,.68.05.25,0,.3.04.61.11.9.19.24.07.48.15.72.23.35.12-.32-.16.01,0,.1.05.19.09.29.14.22.11.43.25.64.37.09.05.18.12.26.18-.36-.25.03.02.1.09.35.3.69.62,1,.96.1.11.19.22.28.32-.03-.03-.2-.27-.04-.06.17.23.33.47.48.71.13.21.26.43.38.65.07.14.29.61.25.51.06.16.3.98.38,1.39.33,1.59.13,3.5-.67,4.92-.12.22-.26.43-.4.64-.21.32.07-.06-.18.23-.17.19-.33.37-.51.54-.1.1-.58.52-.49.45-.59.46-1.62.98-2.23,1.17-1.81.58-3.55.67-5.36.14-.21-.06-.41-.13-.61-.2-.33-.12.24.11-.09-.03-.1-.04-.19-.09-.29-.13-.48-.23-.93-.51-1.37-.82-.19-.14-.04-.02,0,0-.11-.09-.23-.18-.33-.27-.19-.17-.37-.34-.55-.52s-.34-.37-.49-.56c.14.18-.25-.39-.29-.46-1.06-1.74-1.35-3.86-1.23-6.03.06-1.08.27-2.22.64-3.23.2-.54.52-1.06.85-1.53.27-.39,1.12-1.58,1.68-1.48.4.07.04-.57-.11-.19h0Z"/>
  <path d="M444.04,237.43c-1.13.25-2.2.18-3.29.63-1.14.47-2.21,1.3-2.96,2.28-1.61,2.09-2.53,4.71-2.3,7.36.25,2.88,1.44,5.7,3.74,7.54,2.33,1.87,5.16,2.9,8.15,3.01,5.8.2,10.91-3.84,12.28-9.42.62-2.54.57-5.36-.22-7.86-.87-2.76-2.54-5.02-4.86-6.73-4.59-3.38-11.18-2.66-15.43.88-1.11.92-2.1,2.09-2.61,3.44s-.7,3.17.63,4.11c.71.5,1.6.37,2.35.02.38-.18.64-.36.98-.64.04-.03.28-.25.29-.24-.03-.02-.56.42,0,.02.41-.29,1.32-.87,1.63-1.34-.04.06-.64.45-.2.16.11-.07.21-.14.31-.21.27-.17.54-.33.82-.49.23-.12.45-.24.69-.35.11-.05.25-.1.35-.16-.68.4-.54.21-.28.13.55-.18,1.09-.39,1.66-.54.25-.07.5-.13.76-.18.13-.02.25-.04.38-.07.54-.11-.23.04-.29.03.55.06,1.17-.07,1.73-.05.29.01.57.03.86.05.77.04-.64-.14.11.01.25.05.5.1.74.17.15.04.31.09.46.13.14.04.57.3.16.04-.45-.28.31.15.41.2.26.13.51.28.75.44.04.03.32.22.32.22-.03.05-.57-.52-.16-.11.21.21.42.41.62.63.07.08.22.35.31.37-.07-.02-.43-.62-.14-.17.14.22.29.43.42.66s.25.46.36.69c0,0,.13.34.16.36-.16-.41-.2-.5-.12-.28.03.09.07.18.1.28.17.5.27,1.01.39,1.52.13.55,0-.17,0-.17.03.04.03.32.03.39.02.33.03.66.02.99,0,.26-.03.53-.05.79-.03.56.04-.15.03-.17.02.06-.05.31-.06.39-.11.59-.28,1.14-.46,1.71s.06-.19.08-.17c.02.02-.18.39-.2.44-.11.23-.23.46-.36.69-.13.22-.29.43-.42.66-.21.37.51-.59.07-.09-.11.12-.21.25-.32.37-.18.19-.36.38-.55.55-.1.09-.2.17-.3.26-.31.31.69-.45.12-.09-.49.31-.98.58-1.5.84-.4.21.79-.26.13-.07-.13.04-.25.09-.38.12-.26.08-.52.14-.78.2-.13.03-.27.05-.4.08-.41.09,0-.15.23-.02-.17-.09-.8.06-1.01.06-.24,0-1.49-.18-1.62-.07.13-.12.66.12.22.02-.13-.03-.27-.05-.4-.08-.33-.07-.66-.16-.98-.26-.13-.04-.25-.09-.38-.13-.55-.18.19.04.2.09-.02-.08-.64-.3-.72-.35-.27-.14-.52-.3-.77-.46-.15-.09-.37-.37-.08-.04.33.38-.04-.03-.14-.12-.43-.37-.83-.77-1.22-1.18-.52-.56.3.52-.11-.14-.17-.28-.35-.55-.5-.85-.06-.12-.11-.24-.17-.35-.18-.35.18.58.09.19-.07-.28-.18-.56-.25-.84-.04-.15-.21-.62-.15-.76,0,.02.05.69.02.14,0-.16-.02-.33-.03-.49-.02-.55-.02-1.11,0-1.66,0-.17.13-.88.02-.34.06-.32.12-.65.2-.96.13-.49.3-.98.46-1.46.04-.12.08-.24.12-.35-.09.24.02-.06.04-.09.13-.29.27-.57.41-.86.46-.94.94-2.03,1.92-2.47.25-.12.07-.49-.18-.44h0Z"/>
  <path d="M488.73,216.48c-.38.19-1.19.14-1.62.12-.59-.02-1,.01-1.57.21-1.13.4-2.12,1.28-2.96,2.13-1.7,1.71-2.87,3.97-3.3,6.34-.94,5.15,1.73,10.18,6.23,12.75,4.43,2.53,10.07,1.96,13.66-1.75,3.37-3.48,4.48-8.91,2.35-13.32-2.01-4.16-7.52-6.35-11.91-5.14-2.25.62-4.87,2.12-5.52,4.55-.42,1.57.64,3.17,2.29,3.21,1.05.02,2.26-.8,3.19-1.28.67-.35-.63.16.08-.04.22-.06.43-.14.65-.19s.45-.09.67-.13c-.8.15-.08.02.1.01.38-.03.77-.06,1.15-.05.23,0,.46.02.69.03.35.04.31.03-.11-.02.15.02.3.05.46.09.45.1.89.23,1.33.4-.75-.29-.04,0,.09.08.2.11.4.22.59.35.13.09.72.56.1.04.12.1.24.19.35.3.17.15.32.33.48.48.22.26.2.23-.06-.1.09.13.18.26.26.39.13.21.24.44.36.66-.32-.61.02.06.06.2.07.24.12.48.18.71.19.67.06-.45.03.25,0,.2-.01.41-.01.62,0,.13-.08.67,0,.15-.09.58-.25,1.13-.44,1.69-.25.73.26-.41-.12.26-.12.22-.23.45-.36.66s-.27.43-.41.64c.34-.5-.13.15-.18.21-.28.32-.58.59-.89.89-.56.53.46-.25-.19.15-.29.17-.56.36-.86.51-.1.05-.83.31-.22.11-.33.11-.66.18-.99.28-.75.21.44.02-.34.06-.31.02-.62.03-.93.02-.22,0-.44-.02-.66-.05.52.07-.49-.13-.59-.15-.26-.07-.51-.16-.76-.24-.31-.12-.34-.12-.08-.01-.16-.07-.33-.14-.49-.22-1.25-.61-1.59-.89-2.46-1.8-.6-.63-1.24-1.65-1.49-2.42-.08-.26-.15-.52-.21-.78-.04-.18-.08-.36-.11-.55.02.17.02.16,0-.02-.07-.6-.1-1.2-.07-1.8.04-.94.37-2.13.79-3.13.45-1.07,1-2.06,1.74-2.96.4-.5.92-1.11,1.12-1.72.15-.43.47-1.19,1.02-1.38.21-.07.09-.38-.12-.28h0Z"/>
  <path d="M512.35,187.25c-6.18-6.84-15.71-9.54-24.47-11.4-8.94-1.9-18.06-2.93-27.2-3.05-18.27-.24-36.65,2.91-53.73,9.44-33.06,12.64-60.34,37.43-76.59,68.86-4.42,8.54-8.32,17.64-10.62,26.99-2.14,8.72-4.32,19.03-2.1,27.91.41,1.64,3.05,2.21,3.82.51,3.21-7.12,4.44-15.1,6.79-22.54,2.42-7.66,5.09-15.29,8.5-22.57,6.86-14.64,16.14-28.05,27.56-39.5,23.88-23.95,56.38-37.47,90.09-38.74,9.5-.36,19.11.16,28.5,1.67,9.48,1.52,19.06,4.87,28.72,4.19.91-.06,1.35-1.07.73-1.76h0Z"/>
  <path d="M505.58,180.07l1.36.02c.2,0,.41-.09.55-.23.13-.13.23-.35.22-.53,0-.2-.07-.41-.23-.55s-.33-.22-.53-.22l-1.36.02c-.2,0-.39.08-.53.22-.13.13-.22.34-.21.52,0,.19.07.4.22.53s.32.21.52.21h0Z"/>
  <path d="M299.98,276.46c-.19-.88-.34-1.66-.83-2.48-.09-.16-.2-.31-.3-.46-.04-.06-.09-.13-.13-.19-.52-.9-1.23-1.6-2.13-2.12-.44-.27-.91-.46-1.4-.57-.97-.26-1.93-.26-2.9-.01-1.01.27-1.88.77-2.62,1.51-.31.4-.62.81-.92,1.22-.49.87-.74,1.81-.76,2.82,0,.07.01.15.02.22.05.67.07,1.38.24,2.02.22.83.68,1.65,1.08,2.42.37.71.89,1.27,1.55,1.69.56.51,1.22.85,1.98,1.02l1.47.2c.79.03,1.53-.13,2.22-.48.52-.14.96-.4,1.34-.77.65-.42,1.16-.98,1.53-1.68.19-.46.38-.92.56-1.38.26-.99.27-1.98.01-2.97h0Z"/>
  <path d="M302.94,258.71c.81.04,1.57-.13,2.27-.49.77-.24,1.44-.67,2-1.28.58-.55.99-1.19,1.22-1.93.35-.69.52-1.42.49-2.21-.06-.51-.13-1.02-.19-1.53-.28-1.06-.81-1.97-1.58-2.74-.41-.31-.82-.62-1.23-.93-.91-.51-1.88-.77-2.92-.78-.81-.04-1.57.13-2.27.49-.77.24-1.44.67-2,1.28-.58.55-.99,1.19-1.22,1.93-.35.69-.52,1.42-.49,2.21.06.51.13,1.02.19,1.53.28,1.06.81,1.97,1.58,2.74.41.31.82.62,1.23.93.91.51,1.88.77,2.92.78h0Z"/>
  <path d="M316.55,237.05l.31-.04.15-.02s.05,0,.08,0c.15-.02.3-.04.45-.06.15-.01.3-.03.44-.06.27-.11.54-.22.81-.33.26-.15.5-.33.7-.55.01-.01.02-.02.03-.03l.07-.07.16-.16c.28-.26.47-.57.58-.93.17-.33.25-.68.24-1.06l-.09-.73c-.14-.51-.39-.94-.76-1.31l-.15-.16-.07-.07s-.03-.03-.04-.04c-.1-.11-.22-.19-.35-.27-.31-.28-.68-.47-1.1-.57-.33-.09-.73-.1-1.09-.14l-.32-.04c-.45-.02-.87.07-1.27.28-.43.14-.8.37-1.12.71-.32.31-.55.67-.68,1.08-.2.38-.29.8-.27,1.24.04.28.07.57.11.85.16.59.45,1.1.88,1.53l.69.52c.51.28,1.05.43,1.63.44h0Z"/>
  <path d="M332.89,216.05"/>
  <path d="M350.56,205.17"/>
  <path d="M348.36,278.63c-.02-.45-.05-.91-.07-1.36.03-.8-.13-1.55-.49-2.24-.24-.76-.66-1.42-1.26-1.98-.54-.57-1.18-.97-1.91-1.21-.68-.35-1.41-.51-2.19-.49-.5.06-1.01.13-1.51.19-1.04.28-1.94.8-2.71,1.56-.31.41-.61.81-.92,1.22-.5.89-.76,1.85-.77,2.88-.02.45-.05.91-.07,1.36-.04.81.13,1.57.49,2.27.24.77.67,1.44,1.28,2,.55.58,1.19.99,1.93,1.22.69.35,1.42.52,2.21.49.51-.06,1.02-.13,1.53-.19,1.06-.28,1.97-.81,2.74-1.58.31-.41.62-.82.93-1.23.51-.91.77-1.88.78-2.92h0Z"/>
  <path d="M354.61,257.38c.81.04,1.57-.13,2.28-.5.78-.24,1.45-.67,2.01-1.28.58-.55.99-1.2,1.23-1.94.35-.69.52-1.43.49-2.22-.06-.51-.13-1.02-.19-1.54-.28-1.06-.81-1.98-1.59-2.75-.41-.31-.82-.62-1.24-.93-.91-.51-1.89-.77-2.93-.78-.81-.04-1.57.13-2.28.5-.78.24-1.45.67-2.01,1.28-.58.55-.99,1.2-1.23,1.94-.35.69-.52,1.43-.49,2.22l.19,1.54c.28,1.06.81,1.98,1.59,2.75.41.31.82.62,1.24.93.91.51,1.89.77,2.93.78h0Z"/>
  <path d="M375.01,238.34c.81.04,1.57-.13,2.28-.5.78-.24,1.45-.67,2.01-1.28.58-.55.99-1.2,1.23-1.94.35-.69.52-1.43.49-2.22l-.19-1.54c-.28-1.06-.81-1.98-1.59-2.75-.41-.31-.82-.62-1.24-.93-.91-.51-1.89-.77-2.93-.78-.81-.04-1.57.13-2.28.5-.78.24-1.45.67-2.01,1.28-.58.55-.99,1.2-1.23,1.94-.35.69-.52,1.43-.49,2.22l.19,1.54c.28,1.06.81,1.98,1.59,2.75.41.31.82.62,1.24.93.91.51,1.89.77,2.93.78h0Z"/>
  <path d="M392.62,221.5c.38.08.76.15,1.13.23-.87-.5-1.74-.99-2.61-1.49l.06.05c.41.31.82.62,1.23.93.47.19.94.39,1.41.58.76.23,1.52.27,2.28.11.54,0,1.04-.13,1.51-.4.53-.14.99-.4,1.37-.79.46-.27.83-.64,1.1-1.1.37-.37.62-.81.76-1.32.35-.69.52-1.43.49-2.21l-.19-1.53c-.2-.49-.4-.99-.61-1.48-.33-.42-.65-.84-.98-1.26-.41-.31-.82-.62-1.23-.93-.47-.19-.94-.39-1.41-.58-.76-.23-1.52-.27-2.28-.11-.54,0-1.04.13-1.51.4-.77.24-1.44.67-2,1.28l-.05.05c.9-.52,1.8-1.04,2.71-1.56-.38.08-.76.15-1.14.23-.47.19-.93.38-1.4.58-.69.36-1.23.87-1.64,1.51-.35.35-.59.77-.72,1.25-.33.65-.49,1.35-.47,2.1.06.48.12.97.18,1.45.19.47.38.93.58,1.4.36.69.87,1.23,1.51,1.64.55.49,1.19.82,1.92.99h0Z"/>
  <path d="M425.32,208.33c.8.03,1.55-.13,2.24-.49.76-.24,1.42-.66,1.98-1.26.57-.54.97-1.18,1.21-1.91.35-.68.51-1.41.49-2.19-.06-.5-.13-1.01-.19-1.51-.28-1.04-.8-1.94-1.56-2.71-.41-.31-.81-.61-1.22-.92-.89-.5-1.85-.76-2.88-.77-.8-.03-1.55.13-2.24.49-.76.24-1.42.66-1.98,1.26-.57.54-.97,1.18-1.21,1.91-.35.68-.51,1.41-.49,2.19.06.5.13,1.01.19,1.51.28,1.04.8,1.94,1.56,2.71l1.22.92c.89.5,1.85.76,2.88.77h0Z"/>
  <path d="M456.63,197.01"/>
  <path d="M486.52,198.81c.61.03,1.19-.1,1.72-.38.59-.18,1.09-.51,1.52-.97.44-.41.75-.9.93-1.47.27-.52.39-1.08.37-1.68-.05-.39-.1-.77-.15-1.16-.21-.8-.61-1.49-1.2-2.08-.31-.24-.62-.47-.93-.71-.69-.39-1.43-.58-2.21-.59-.61-.03-1.19.1-1.72.38-.59.18-1.09.51-1.52.97-.44.41-.75.9-.93,1.47-.27.52-.39,1.08-.37,1.68.05.39.1.77.15,1.16.21.8.61,1.49,1.2,2.08.31.24.62.47.93.71.69.39,1.43.58,2.21.59h0Z"/>
  <path d="M334.33,593.37c-8.53-.71-17.44,1.01-25.9,2.04-4.1.5-8.2.97-12.29,1.59-3.83.58-8.84.77-11.85,3.46-.7.63-.53,1.99.33,2.4,3.58,1.72,8.29.57,12.07.07,4.16-.55,8.3-1.21,12.44-1.88,8.43-1.36,17.48-2.19,25.5-5.24,1.31-.5,1.15-2.33-.31-2.45h0Z"/>
  <path d="M120.7,914.11c.08-.06.31.1.39.13l.3.14c.21.1.43.21.64.31.43.21.87.4,1.31.59.08.04.16-.09.07-.12-.61-.27-1.22-.53-1.84-.78l-.46-.18-.23-.09c-.07-.03-.1-.03-.13-.11,0-.03,0-.05-.02-.08-.07-.12-.26-.08-.28.06-.02.15.15.21.26.13h0Z"/>
</svg>