<?xml version="1.0" encoding="utf-8"?>
<!-- Generator: Adobe Illustrator 19.0.0, SVG Export Plug-In . SVG Version: 6.00 Build 0)  -->
<svg version="1.1" id="Layer_1" xmlns="http://www.w3.org/2000/svg" xmlns:xlink="http://www.w3.org/1999/xlink" x="0px" y="0px"
	 viewBox="0 0 1022.9 916.1" style="enable-background:new 0 0 1022.9 916.1;" xml:space="preserve">
<style type="text/css">
	.st0{fill:none;stroke:#262626;stroke-width:3;stroke-linecap:round;stroke-linejoin:round;stroke-miterlimit:10;}
	.st1{fill:none;stroke:#262626;stroke-width:3;stroke-miterlimit:10;}
</style>
<g>
	<path id="XMLID_516_" class="st0" d="M376.2,587.1c2,0.1,3.9,0.3,5.9,0.3c57.6,0.1,115.1,0.3,172.7,0.4c28.1,0,56.3,0,84.4,0
		c6.7,0,13.4,0.1,20.2,0c14.2-0.2,28.5-0.4,42.7-0.7"/>
	<path id="XMLID_515_" class="st0" d="M300.5,575.4c12.3,0.1,24.6,0.3,36.8,0.3c11.7,0.1,23.4,0,35.1,0c8.2,0,16.5,0.4,24.7,0.2
		c2.8-0.1,6-0.3,8-3c1-1.4,2.1-1.3,3.5-1c0.7,0.1,1.4,0,2.1,0c72.2,0,144.3,0,216.5,0c1.3,0,2.6-0.5,3.8-0.3
		c1.9,0.3,3.9,0.2,5.4,2.3c0.9,1.2,3.2,2.2,4.7,2.1c14.8-1.6,29.7-1.2,44.5-1.3c1.2,0,2.3,0.2,3.5,0.3"/>
	<path id="XMLID_514_" class="st0" d="M539.5,174.4c-5.1,1-10-0.4-14.9-1c-6.2-0.8-12.3-0.4-18.4,1c-5.3,1.2-10.6,1.9-16,2.8
		c-2.4,0.4-3.9,1.5-5,4.1c-7.4,18.6-13.4,37.6-18.9,56.8c-3.5,12.3-6.4,24.9-9.4,37.4c-2.4,10.1-4.8,20.3-6.9,30.5
		c-1.4,6.5-3.4,13.2-3.2,19.7c0.1,5.2-1.2,9.9-1.8,14.9c-1.1,9-2.5,18-3.7,27c-0.6,4.6-0.9,9.2-1.4,13.8c-0.3,2.4-0.7,4.8-1,7.3"/>
	<path id="XMLID_513_" class="st0" d="M498.5,176.5c-0.7,4.6-1.4,9.2-2.1,13.9c-0.5,3.9-0.9,7.9-1.4,11.8c-0.9,6.4-1.9,12.7-2.7,19
		c-0.6,4.7-0.9,9.5-1.4,14.2c-0.5,4.7-1.2,9.5-1.7,14.2c-0.6,5.4-1.2,10.8-1.7,16.3c-0.7,6.2-1.4,12.5-2.1,18.7c-0.3,3-0.5,6-0.7,9
		c-0.7,13-1.5,26.1-2.1,39.1c-0.5,9.7-0.8,19.4-1,29.1c-0.1,4.5,0.2,9,0.3,13.5"/>
	<path id="XMLID_512_" class="st0" d="M536.1,184.1c0.9,6,2,12,2.8,18c0.8,6.2,1.3,12.5,2.1,18.7c0.8,6.4,2,12.7,2.7,19.1
		c0.8,7.1,1.4,14.3,2.1,21.5c0.6,6.1,1.4,12.2,2.1,18.4c0.3,3,0.5,6,0.7,9c0.9,16.9,1.9,33.7,2.8,50.6c0.4,7.5,0.5,15,0.7,22.5
		c0,1-0.4,2.1-0.7,3.1"/>
	<path id="XMLID_511_" class="st0" d="M233.8,569.5c0.2-1.4,0.7-2.8,0.6-4.2c0-2.3,0.9-3.2,3.2-3.1c5.7,0.1,11.4,0,17,0
		c19.5,0,38.9,0,58.4,0c3.4,0,7.3,1.7,10.2-2c0.5-0.7,2.4-0.4,3.7-0.4c26.5,0.1,53,0.2,79.6,0.3c2.7,0,5.4,0.6,8,0.2
		c1.9-0.2,3.7-1.5,5.7-2.4c-0.3-5.5,1.4-6.5,7-9.9c4.7-2.9,9.2-1.2,13.7-1.8c0.8-0.1,1.6,0,2.4,0c50.3,0,100.5,0,150.8,0
		c3.2,0,6.5,0,9.7,0c3.5,0,6.6-0.1,9.9,2.5c3.5,2.7,3.6,5.9,4.3,9.3c9.2,1.7,13.2,5.8,13.2,13.2"/>
	<path id="XMLID_510_" class="st0" d="M592,734c-1.2-0.2-2.3-0.7-3.5-0.7c-50.3,0-100.5,0-150.8,0c-0.9,0-1.9,0.5-2.8,0.3
		c-1.6-0.4-3-1.1-4.5-1.7c0.7-1.5,1-3.6,2.2-4.4c6.3-4.5,13-8.5,19.3-13c1.9-1.4,3.5-2,5.6-2c22.2,0.1,44.5,0.3,66.7,0.3
		c14.8,0,29.7-0.2,44.5-0.3c2.4,0,4.5,0.2,6.7,1.9c6.2,4.8,12.9,8.8,19.3,13.3c1.6,1.1,2.3,3,1.5,5.1c-1.4,0.4-2.7,0.7-3.9,1.1"/>
	<path id="XMLID_509_" class="st0" d="M542.3,176.8c3-1,4.9,0.5,5.9,3.1c7.9,20.4,14.6,41.2,20.5,62.3c2.6,9.4,5.4,18.9,7.6,28.4
		c2.2,9.3,3.7,18.7,5.6,28c1.3,6.5,2.8,12.9,4.1,19.4c0.2,0.9,0.1,1.9,0,2.8c-0.7,6,1.6,11.5,2.5,17.3c0.9,6,2,12,2.7,18
		c1,8.5,1.6,17.1,2.5,25.6c0.2,2.3,0.9,4.6,1.4,6.9"/>
	<path id="XMLID_508_" class="st0" d="M712.2,479.8c-4.3-4.3-8.6-8.5-12.8-12.8c-1.2-1.2-2.4-1.8-4.2-1.8c-45.5,0.1-91,0-136.6,0.1
		c-1,0-2.1,0.2-3.1,0.3"/>
	<path id="XMLID_507_" class="st0" d="M319.2,586.8c-2.8,0.1-5.6,0.3-8.3,0.3c-15.4,0-30.8,0-46.2,0c-25.4,0-50.7,0-76.1,0
		c-1.5,0-3,0.8-4.5,1c-3.5,0.4-6.9,1-10.4,1c-12.3-0.1-24.6-0.5-36.8-0.6c-3.6,0-7.3,1.3-10.8,0.9c-12-1.5-24.1-0.7-36.2-0.9
		c-1.3,0-2.5,0.4-3.8,0.7"/>
	<path id="XMLID_506_" class="st0" d="M285.9,827.5c-1.2,0.2-2.3,0.7-3.5,0.7c-18.3,0.2-36.6,0.3-54.9,0.4c-22.1,0.1-44.2,0-66.4,0
		c-1.3,0-2.5-0.2-3.8-0.3"/>
	<path id="XMLID_505_" class="st0" d="M325.1,478.4c1.4,0.2,2.8,0.7,4.2,0.7c40,0,79.9,0,119.9,0"/>
	<path id="XMLID_504_" class="st0" d="M931.8,575c0.3-2.3,1.1-4.6,0.9-6.9c-0.1-2.3-1.9-3.5-4.4-3.5c-2.9,0.1-5.8,0-8.7,0
		c-0.1-1-0.3-1.7-0.3-2.4c-0.1-4.9-0.8-5.5-5.9-5.5c-23.5,0-47,0-70.5,0c-19.3,0-38.7,0-58,0c-1.6,0-3.4,0.4-4.6-1.4
		c-0.3-0.4-1.1-0.7-1.7-0.7c-4.2,0.1-8.4-0.5-12.5,0.7"/>
	<path id="XMLID_503_" class="st0" d="M95.1,575c-0.2-2.4-0.7-4.9-0.6-7.3c0.1-2.3,1.8-3.2,4.1-3.1c3,0.1,6,0,9.4,0
		c-0.1-1.1-0.3-1.9-0.3-2.8c-0.3-3.7,1-5.2,4.9-5.2c4.2,0,8.3,0,12.5,0c39.5,0,79,0,118.5,0c0.8,0,1.8,0,2.4-0.4
		c4.8-3.1,9.9-1.8,15-1"/>
	<path id="XMLID_502_" class="st0" d="M862.7,805.6c-1.3,0.1-2.5,0.3-3.8,0.3c-39.1,0-78.3,0-117.4,0"/>
	<path id="XMLID_501_" class="st0" d="M164.3,805.6c1.3,0.1,2.5,0.3,3.8,0.3c39.1,0,78.3,0,117.4,0"/>
	<path id="XMLID_500_" class="st0" d="M710.1,478.4c-1.4,0.2-2.8,0.7-4.2,0.7c-37.9,0-75.7,0-113.6,0"/>
	<path id="XMLID_499_" class="st0" d="M726.5,586.8c1.3,0.1,2.5,0.3,3.8,0.3c35.9,0,71.8,0,107.7,0.1c1.6,0,3.2,0.8,4.9,1
		c3.5,0.4,6.9,1,10.4,1c11.5-0.1,22.9-0.4,34.4-0.6"/>
	<path id="XMLID_498_" class="st0" d="M702.8,469.8c1.8-1.9,1.4-4.3,1.4-6.6c0-3.2,0.6-6.6-0.2-9.6c-0.6-2.2-2.7-4.2-5.7-4.2
		c-5.6,0-11.1,0-16.7,0c-0.7,0-1.4,0-2.4,0c0-2.9,0-5.4,0-8c0-4.4-2.5-6.9-6.9-6.9c-11.6,0-23.2,0-34.7,0
		c-10.2-0.1-20.4-0.3-30.6-0.3c-21.7,0-43.3,0.2-65,0.3c-0.7,0-1.6-0.3-2,0.1c-0.7,0.4-1.1,1.3-1.6,2"/>
	<path id="XMLID_497_" class="st0" d="M339,464.6c0-2.8,0-5.5,0-8.3c0-4.3,2.6-6.9,6.9-6.9c6,0,12,0,18.4,0c0-3,0-5.7,0-8.3
		c0-4.1,2.1-6.5,6.3-6.5c13.8,0,27.6,0.2,41.3,0.3c2.9,0,5.8-0.3,8.7-0.3c25.8,0,51.7,0,77.5,0c1.5,0,3,0.4,4.5,0.7
		c0.6,0.1,1.3,0.5,1.7,0.3c3.8-2,7.7-0.2,11.5-0.6"/>
	<path id="XMLID_496_" class="st0" d="M741.8,827.1c1.4,0.3,2.8,1,4.2,1c33.7,0.1,67.4,0,101.1,0c7.2,0,14.4,0,21.5,0
		c1.2,0,2.3-0.2,3.7-0.4c-2.3-5.8-4.9-11-6.3-16.6c-1.1-4.2-3.3-7.3-6.1-10.3c-0.9-0.9-2.5-1.7-3.8-1.7c-37.2-0.1-74.4-0.1-111.5,0
		c-1,0-2.1,0.6-3.1,1"/>
	<path id="XMLID_495_" class="st0" d="M408.9,517.9c-2-0.2-3.9-0.6-5.9-0.7c-6.1-0.1-12.3,0-18.4,0c-3.4,0-5.9,2-6.2,5.2
		c-0.2,2.7,0,5.5,0,8.7c2.8,0,5.2,0,7.6,0c10-0.1,19.9,1.6,29.9,1.1c5.9-0.3,11.8,0,17.7-0.1c9.5-0.2,18.8,0.8,28.1,2.4"/>
	<path id="XMLID_494_" class="st0" d="M200.8,572.1c-1.3-0.2-2.5-0.5-3.8-0.5c-7.3,0.1-14.6,0.3-21.9,0.3c-22.4-0.1-44.7,0-67.1-0.4
		c-5.6-0.1-10,1.7-14.3,4.9c-4.4,3.3-9.1,6.2-13.7,9.2"/>
	<path id="XMLID_493_" class="st0" d="M459.6,703.5c-1.3-0.1-2.6-0.2-3.8-0.4c-1.9-0.3-3.5-1-3.1-3.4c0.3-2.3,1.9-3,3.8-3.1
		c2.8-0.1,5.6,0,8.3,0c32.4,0,64.9,0,97.3,0c2.8,0,5.6-0.1,8.3,0c2,0.1,3.5,0.8,3.8,3.1c0.3,2.5-1.2,3.1-3.1,3.4
		c-1.3,0.2-2.5,0.2-3.8,0.4"/>
	<path id="XMLID_492_" class="st0" d="M358.2,611.4c-0.4-2.6,1.1-4.1,3.1-5.6c4-3,7.9-6.3,11.9-9.3c1-0.8,2.5-1.4,3.8-1.4
		c14.6,0,29.2,0.1,43.8,0.3c11.7,0.1,23.4,0.6,35.1,0.6c11.2,0,22.5-0.6,33.7-0.6c8.6,0,17.1,0.6,25.7,0.6
		c15.8-0.1,31.5-0.5,47.3-0.6c12.7-0.1,25.5,0.3,38.2,0.3c19.2,0,38.5-0.1,57.7-0.5c3.7-0.1,6.4,0.8,9.1,3.2c2.8,2.5,6,4.7,9,7
		c1.7,1.3,3.6,2.5,3.6,5.2c0,0.6,1.3,1.2,2,1.7"/>
	<path id="XMLID_491_" class="st0" d="M448.2,611.4c3.7,0,7.4,0,11.1,0c29.4,0,58.8-0.1,88.3,0c11.6,0,23.2,0.5,34.7,0.6
		c4.2,0.1,8.3-0.3,12.5-0.3c14,0.1,28,0.3,42,0.3c12.6,0,25.2-0.4,37.9-0.6c1.7,0,3.5,0,5.2,0"/>
	<path id="XMLID_490_" class="st0" d="M741.4,810.5c41.1,0.1,82.2,0.2,123.4,0.3"/>
	<path id="XMLID_489_" class="st0" d="M847.4,704.2c-2.9-0.2-5.8-0.7-8.7-0.7c-11.4,0-22.7,0.3-34.1,0.3c-18,0-35.9-0.2-53.9-0.3"/>
	<path id="XMLID_488_" class="st0" d="M448.8,707.3c-1.2,0.1-2.3,0.3-3.5,0.3c-20.6,0-41.2,0-61.8,0c-32.9,0-65.8,0-98.7,0
		c-2.5,0-4.4,0.4-6.4,2.3c-2.7,2.6-6.1,4.5-9.3,6.7c-0.6,0.4-1.4,0.5-2.1,0.7c-1.7,0.5-4.2,0.4-5.1,1.5c-1.6,2.1-2.2,4.9-3.2,7.4
		c2.1,1,3.8,2.3,5.9,0.9c0.4-0.3,1.1,0,1.7,0c19.3-0.1,38.7-0.3,58-0.3c11,0,22-0.1,33,0.1c1.8,0,3.3,0.7,4.7,2.6
		c2.4,3.3,5.8,5.9,8.9,8.8c4.1,3.8,6.5,8.3,6.9,13.9"/>
	<path id="XMLID_487_" class="st0" d="M276.2,703.5c-30.8,0-61.6-0.1-92.4,0c-7.2,0-14,1.7-19.4,6.9c-1.4,1.4-2.4,3.2-3.5,4.8"/>
	<path id="XMLID_486_" class="st0" d="M162.2,810.5c5.1,0.1,10.2,0.3,15.3,0.3c1.2,0,2.3-0.3,3.5-0.3c14.9,0,29.9-0.1,44.8,0
		c14.5,0.1,29,0.3,43.4,0.3c5.4,0,10.9-0.2,16.3-0.3"/>
	<path id="XMLID_485_" class="st0" d="M650.7,707c1.5,0.2,3,0.7,4.5,0.7c29,0,57.9,0,86.9,0c2.4,0,4.4,0.3,6.3,2.1
		c2,1.8,4.2,3.5,6.6,4.8c3.1,1.7,6.5,3,10.3,4.6c0.8,1.9,1.8,4.5,3.2,7.9c-2.3,0-3.9,0-5.5,0c-0.9,0-1.9,0-2.8,0
		c-28.7,0-57.4,0-86.2,0c-1.4,0-2.8-0.4-4.2-0.3c-1.3,0.2-2.9,0.5-3.8,1.4c-4.4,4.3-8.8,8.5-12.8,13.2c-1.8,2.2-2.9,5.1-3.8,7.9
		c-0.3,1,0.8,2.5,1.3,3.8"/>
	<path id="XMLID_484_" class="st0" d="M763,547.3c4.3-0.2,8.5,1.8,12.9,1.1c1.2-0.2,2.4,0,3.6,0c0.5-8.5,0.1-7.6,7.1-7.6
		c31.2,0,62.3,0,93.5,0c3,0,6,0,9,0c4.6,0,4.9,0.3,4.9,4.8c0,0.8,0,1.6,0,2.8c2.5,0,5.1,0.2,7.6,0c3.9-0.4,5.1,0.7,4.9,5.2
		c0,0.8-0.2,1.6-0.3,2.4"/>
	<path id="XMLID_483_" class="st0" d="M120.8,556c-0.1-0.8-0.3-1.6-0.3-2.4c-0.2-3.9,1-5.2,4.9-5.2c2.3,0,4.6,0,6.9,0
		c0.1,0,0.2-0.2,0.6-0.6c0,0.1,0.1-0.2,0.1-0.4c-0.1-5.6-0.6-6.7,6.6-6.6c31,0.1,62.1,0.1,93.1,0.1c3.2,0,6.5,0,9.7,0
		c5.2,0,5.2,0,5.2,5.2c0,0.6,0,1.2,0,1.7"/>
	<path id="XMLID_482_" class="st0" d="M486.2,465.6c-1.2-0.1-2.4-0.3-3.6-0.3c-6.3,0-12.5,0-18.8,0c-22.2-0.1-44.5-0.2-66.7-0.3
		c-1.2,0-2.3,0-3.5,0"/>
	<path id="XMLID_481_" class="st0" d="M380,687.6c-0.2-2.4-0.4-4.7-0.7-7.9c-23.4-0.1-46.8-0.4-70.2-0.3c-4.6,0-9.2,0.9-14.2,1.4
		c0,1.4,0.2,3.1-0.1,4.7c-0.1,0.9-1,2.2-1.7,2.3c-2.4,0.4-4.8,0.4-7.3,0.4c-28.4,0-56.8,0-85.1,0c-2.2,0-4.1,0.3-6,2
		c-2.7,2.4-6.1,4.1-9.3,6c-2.4,1.5-5,0.9-7.6,0.8c-5.4-0.2-10.9-0.1-16.3-0.1c-11,0-22,0-33,0c-2.5,0-5.2,1.6-7.6-1.4
		c0.8-0.7,1.5-1.7,2.4-2.3c3.6-2.6,7.2-5.1,10.7-7.7c1-0.8,1.9-1.8,2.8-2.7"/>
	<path id="XMLID_480_" class="st0" d="M548.6,680.6c4.7-0.2,9.5-0.6,14.2-0.7c6-0.1,12,0,18.1,0c4.3,0,8.6-0.3,12.9-0.3
		c11.4-0.1,22.7-0.2,34.1-0.4c4.3,0,5.8,1.5,5.9,5.9c0,0.8,0.1,1.6,0.2,2.6c4.4,0,8.7,0,13.3,0c0-2.5,0-4.8,0-7.6
		c28.4,0,56.4,0,84.4,0c0,0.5,0,0.7,0,0.9c0.1,1.6,0.2,3.2,0.3,4.8c0.2,3.4,2.7,1.3,4.2,1.7c1.6,0.4,3.2,0.7,4.9,0.7
		c28.5,0,57,0,85.5,0c2.1,0,3.8,0.2,5.7,1.9c2.7,2.5,6.4,4,9.6,6c2.3,1.4,4.5,0.9,7,0.7c5.2-0.2,10.4-0.1,15.6-0.1
		c11.2,0,22.5,0,33.7,0c1.3,0,2.5,0.3,3.8,0.5"/>
	<path id="XMLID_479_" class="st0" d="M740.4,699.3c1-0.1,2.1-0.2,3.1-0.3c2.1-0.3,3.9-1.4,3.7-3.4c-0.2-2-2.1-3.2-4.4-3.1
		c-2.5,0-5.1,0-7.6,0c-26.1,0-52.1,0-78.2,0c-8.6,0-17.1,0-25.7,0"/>
	<path id="XMLID_478_" class="st0" d="M287.3,699.3c-1.3-0.1-2.6-0.2-3.8-0.4c-2.1-0.3-3.9-1.4-3.7-3.4c0.2-2,2.1-3.2,4.4-3.1
		c2.5,0,5.1,0,7.6,0c27.6,0,55.1,0,82.7,0c28.5,0,57,0,85.5,0c2.3,0,4.7-0.3,6.9-0.8c0.7-0.2,1.6-1.5,1.7-2.3c0.3-1.8,0.1-3.7,0.1-6
		c5.3,0.6,10.2-0.6,15.3,0c4.9,0.5,9.9,0.1,14.9,0.1c5,0,10,0,14.9,0c4.9,0,9.7,0,14.6,0c5,0,10,0.4,14.9-0.1
		c5.1-0.6,10.1,0.7,15.4,0c0,3,0,5.5,0,8.4c7.2,0.2,14.5,0.5,21.8,0.7"/>
	<path id="XMLID_477_" class="st0" d="M630.2,418.9c0.1-3.6,0.6-7.2,0.2-10.7c-0.2-2.6-2.2-3.9-5.1-3.9c-6,0.1-12,0-18.1,0
		c-27.5,0-54.9,0-82.4,0c-1.9,0-3.5,0.2-4.9,1.7c-2.7,2.9-5.5,5.8-8.7,8.3c-4.5,3.6-6.5,7.7-4.1,13.2"/>
	<path id="XMLID_476_" class="st0" d="M196.2,688.6c-0.3-2.2-1-4.4-1-6.6c0-8.8,0.2-17.5,0.3-26.3c0-1.4-0.2-3,1.7-3.1
		c3.1,0,6.3,0.2,9.4,0.3c4.2,0.1,8.3,0,12.5,0c28.1,0,56.3,0,84.4,0c0.8,0,1.6-0.2,2.4-0.3"/>
	<path id="XMLID_475_" class="st0" d="M413.4,418.9c-0.1-3.6-0.5-7.2-0.3-10.7c0.2-2.5,1.9-3.9,4.8-3.9c14.1,0.1,28.3,0,42.4,0.1
		c18.8,0.1,37.5,0.2,56.3,0.4c1.3,0,2.5,0.4,3.8,0.7"/>
	<path id="XMLID_474_" class="st0" d="M846.7,585.1c-3.2-1.6-6.8-2.8-9.6-5c-3.6-2.7-8.1-3.8-11-7.7c-1-1.4-4-1.7-6.1-1.8
		c-8-0.4-16-0.8-24-0.7c-19.3,0.1-38.7-0.1-58,0.9c-6.8,0.4-10.3-3.9-14.8-6.7c-3.7-2.3-7-4.1-11.6-4.1c-21.1,0.2-42.2,0.1-63.2,0.1
		c-5.8,0-11.6,0-17.4,0c-1.2,0-2.3,0.4-3.5,0.7"/>
	<path id="XMLID_473_" class="st0" d="M447.1,612.1c-1.2-0.1-2.3-0.3-3.5-0.3c-26.6,0-53.3,0-79.9,0c-1.3,0-2.5,0.3-3.8,0.5"/>
	<path id="XMLID_472_" class="st0" d="M830.7,688.6c0.2-2.4,0.5-4.8,0.7-7.3c0.3-3.3,0.5-6.7,0.7-10c0-0.7-0.3-1.4-0.3-2.1
		c0-4.3,0-8.5,0-12.8c0-1.2-0.1-2.3-0.2-3.5c-35.7,0-71.2,0-106.8,0"/>
	<path id="XMLID_471_" class="st0" d="M809.5,618c-3.7-0.6-7.1-1.8-9.4-5.2c-3.3-4.8-8.3-7.5-13.5-9.7c-10.8-4.7-22.3-4.8-33.7-4
		c-9.4,0.7-18.2,4.1-26.1,9.5c-0.6,0.4-1.4,0.7-2.1,1.1"/>
	<path id="XMLID_470_" class="st0" d="M336.3,492.8c-2.1-2-4.1-4.1-5.9-5.9c-1.8,0.2-3.3,0.5-4.8,0.5c-22.7,0-45.4,0-68.1,0
		c-1.3,0-2.5,0.4-3.8,0.7"/>
	<path id="XMLID_469_" class="st0" d="M424.2,494.3c-22.4,0-44.7,0-67.1,0c-2.4,0-4.6,0.2-6.6,1.7c-0.8,0.6-2,0.5-3.1,0.7"/>
	<path id="XMLID_468_" class="st0" d="M947.1,585.8c-6.1-4.2-12.3-8.2-18.4-12.5c-1.7-1.2-3.2-1.8-5.3-1.7
		c-6.6,0.2-13.4,1.3-19.8,0.2c-14.3-2.4-28.6-1.3-42.8-0.9c-9.6,0.3-19.2,0.3-28.8,0.7c-1.9,0.1-3.7,0.4-5.6,0.7"/>
	<path id="XMLID_467_" class="st0" d="M155.9,828.8c-0.6-0.1-1.2-0.3-1.8-0.4c2.7-6.1,5.3-12,7.9-17.9c-1.4-3.8,2.3-5.4,3.7-8
		c1.5-3,4-3.6,7.3-3.5c36.3,0.1,72.5,0.1,108.8,0.1c1.3,0,2.5,0.6,3.8,1"/>
	<path id="XMLID_466_" class="st0" d="M180.3,585.1c5.3-1,8.8-5.3,13.6-7.2c4.1-1.7,6.6-5.7,11.1-6.6c0.7-0.1,1.4-0.6,2.1-0.7
		c8.2-0.3,16.4-0.7,24.7-0.7c23.6,0.1,47.3,0,70.9,0.9c7.3,0.3,11-3.9,15.6-7.5"/>
	<path id="XMLID_465_" class="st0" d="M669.1,726.3c1-2-0.4-2.9-1.7-3.8c-5.5-3.9-11.2-7.5-16.2-11.9c-3.2-2.7-6.4-3.1-10.2-3.1
		c-20.8,0.1-41.7,0-62.5,0"/>
	<path id="XMLID_464_" class="st0" d="M455.1,389.1c0.4-3.1-0.5-6.1,0.1-9.4c0.6-3.2,2.1-3.8,4.7-3.8c10.2,0,20.4,0,30.6,0
		c20.8,0,41.7,0,62.5,0c10.1,0,20.2,0,30.2,0c3.7,0,4.6,0.8,4.9,4.5c0.2,2.9,0.2,5.8,0.4,8.7"/>
	<path id="XMLID_463_" class="st0" d="M431.5,727.7c-1-0.2-2.1-0.7-3.1-0.7c-21.1,0-42.2,0-63.2,0c-1,0-2.1,0.4-3.1,0.7"/>
	<path id="XMLID_462_" class="st0" d="M687.9,535.9c-1.9-3.1-4.9-3.9-8.3-3.8c-14.8,0.1-29.7,0-44.5,0c-9.8,0-19.7,0.2-29.5,0.3
		c-6.5,0.1-13,0.1-19.5,0.4c-3.3,0.2-6.5,1.1-9.7,1.7"/>
	<path id="XMLID_461_" class="st0" d="M635.8,516.5c0.1-3.7,0.5-7.4,0.3-11.1c-0.1-2.4-2.1-3.5-4.4-3.5c-18.5,0-37.1,0-55.6,0
		c-8.5,0-16.9-0.1-25.4,0c-2.8,0-5.7,1.1-8.3-0.7c-0.5-0.3-0.9-0.7-1.4-1"/>
	<path id="XMLID_460_" class="st0" d="M545.4,759.6c-1.6-5.3-5.8-8.3-10.1-11c-6.9-4.4-14.7-5.5-22.9-4.9
		c-10.1,0.6-18.5,4.4-24.7,12.5c-0.5,0.6-1,1.4-1,2.1c-0.6,8.3-3.7,15.8-8.5,22.5c-2.7,3.8-1.5,7.9-1.6,11.8
		c-0.3,13-0.2,26.1-0.1,39.1c0,7.4,0.1,14.8,0.4,22.2c0.2,3.5,1.1,6.9,1.7,10.4"/>
	<path id="XMLID_459_" class="st0" d="M684.8,496.1c-1.9-0.6-3.7-1.6-5.6-1.7c-20.7-0.1-41.5-0.1-62.2-0.1"/>
	<path id="XMLID_458_" class="st0" d="M374.8,752.7c0.9,1.5,2.5,2.9,2.7,4.5c0.6,6.5,5.2,10.9,7.7,16.3c0.5,1,0.7,2.3,0.7,3.4
		c0,12.7-0.2,25.4,0.1,38.1c0.2,8.9-0.6,17.8-0.8,26.7"/>
	<path id="XMLID_457_" class="st0" d="M378.3,759.9c1.4-0.2,2.8-0.6,4.2-0.7c3.9-0.2,3.9-0.1,3.8-4.2c0-3.6,1.1-5.2,4.2-5.9
		c3.8-0.8,8.8,0.8,9.7,3.5c0.4,1.1,0.2,2.5,0,3.8c-0.2,2.4,1,3.2,3.1,3.1c2-0.1,4,0,6.7,0c-2.6,4.2-4.5,7.7-6.7,11.1
		c-1.5,2.4-2.1,4.8-2.1,7.6c0.1,15,0.5,30-0.1,45c-0.3,6.2,1.3,12.2,0.5,18.4"/>
	<path id="XMLID_456_" class="st0" d="M654.2,751.6c-3.6,0.5-4.2,4-4.7,6.3c-1.3,6-5.3,10.6-7.8,15.9c-0.4,0.8-0.7,1.6-0.7,2.4
		c0.1,16,0.6,32.1,0.1,48.1c-0.2,5.3,1.4,10.4,0.6,15.6c-0.1,0.7-0.2,1.4-0.3,2.1"/>
	<path id="XMLID_455_" class="st0" d="M370.7,761c1.6-3.3-0.9-5.8-2.2-8.3c-4.2-8.2-11.4-13.4-20.1-15.1
		c-13.8-2.7-26.5-0.3-35.7,11.6c-0.4,0.5-0.9,1.1-1,1.7c-0.4,3.1-0.7,6.2-1.1,9.3c-0.1,0.6-0.4,1.2-0.7,1.7
		c-1.5,2.8-2.7,5.8-4.6,8.2c-2.4,3-2.8,6.2-2.7,9.8c0.1,10.6,0,21.2,0.1,31.9c0,6.3,0.2,12.6,0.3,18.9"/>
	<path id="XMLID_454_" class="st0" d="M706.7,486.7c1.3,0.2,2.5,0.7,3.8,0.7c19.3,0,38.7,0,58,0.1c1.6,0,3.3,0.7,4.9,0.6
		c1.3-0.1,2.7-0.7,4.9-1.4c-1.8-1.5-2.8-2.5-3.9-3.3c-4.3-3.3-8.5-6.5-12.9-9.7c-0.7-0.5-1.8-0.7-2.8-0.7c-16.2,0-32.4,0-48.6,0
		c-0.9,0-1.9,0.4-2.8,0.7"/>
	<path id="XMLID_453_" class="st0" d="M265.7,466c-0.4-2.7,0.4-4.3,3.5-4.2c4.3,0.1,8.6,0,12.9,0c18.8,0,37.5,0,56.3,0"/>
	<path id="XMLID_452_" class="st0" d="M462.7,520.7c-0.3-0.9-0.8-1.8-1-2.8c-1-5.2,2.2-8.6,8-8.6c24,0,48,0,71.9,0
		c8.9,0,17.8,0,26.8,0c7,0,10.1,5.1,6.9,11.4"/>
	<path id="XMLID_451_" class="st0" d="M757.1,844.8c1.3-3.6-2.1-5.2-3.6-7.6c-1.6-2.7-3.3-5.7-6.9-6.2c-1.9-0.3-3.9-0.1-5.9,0
		c-7.2,0.1-14.4,0.2-21.5,0.4c-0.3,0-0.7,0.2-1,0.3c0,10.3,0,20.5,0,31.2c1.6,0,2.9,0,4.2,0c13.4,0,26.9,0,40.3,0
		c1.3,0,2.5-0.3,3.8-0.5"/>
	<path id="XMLID_450_" class="st0" d="M260.5,862.1c2.8-4.8,5.6-9.7,8.3-14.6c0.7-1.2,0.6-2.8,1.1-4.1c0.5-1.3,1-2.6,1.7-3.8
		c1.2-1.8,2.7-3.4,3.8-5.2c1.3-2.2,3.1-3.1,5.6-3.1c8.9,0,17.8,0,26.8,0c0.3,0,0.7,0.2,1.4,0.5c0,5.6,0,11.4,0,17.2
		c0,3.7-0.4,7.4-0.3,11.1c0.1,2.5-1,3.2-3.2,3.1c-3.6-0.1-7.2,0-10.8,0c-3.9,0-7.9,0-11.8,0c-6.4,0-12.7-0.1-19.1,0.1
		c-1.7,0.1-3.6-1.8-5.2,0.3"/>
	<path id="XMLID_449_" class="st0" d="M405.8,516.5c-0.2-3.3-0.7-6.7-0.6-10c0.1-3.1,2-4.5,5.1-4.5c25.7,0,51.4-0.2,77.1,0.1
		c4,0,7.4-0.1,10.8-2.1c0.9-0.6,2.5-0.1,3.8-0.1"/>
	<path id="XMLID_448_" class="st0" d="M327.9,473.6c-1.2-0.2-2.3-0.7-3.5-0.7c-18.3,0-36.6,0-54.9,0c-2,0-3.6,0.4-5.3,2
		c-3.6,3.2-7.8,5.6-11.7,8.4c-3.2,2.3-2.6,1.9-0.1,4.6c4.4,5,11,8.4,12.3,15.8c0.2,1.1,0.2,2.3,0.4,3.5"/>
	<path id="XMLID_447_" class="st0" d="M573.6,870.7c-3.6,0-7.2,0-10.8,0c-4.7,0-9.5,0-14.2,0c-4.5,5.4-9.2,10.7-13.4,16.4
		c-0.9,1.2-0.4,3.4-0.6,5.3c17.6,0,34.7,0,51.8,0c1.5-4.1-0.5-7-2.8-9.9c-3.2-4-6.5-7.9-9.7-11.8c1-5.4,0.1-6.1-5.2-5.7
		c-5.4,0.4-10.9,0.3-16.3-0.1c-1.8-0.1-3.2-0.6-4.5,0.8c-1.6,1.8-0.5,3.4,0.3,5"/>
	<path id="XMLID_446_" class="st0" d="M247,548.4c2.9,0,5.9,0.4,8.7-0.1c14.4-2.4,29-0.3,43.5-1.2c9.6-0.5,19.2,0.4,28.8,0.5
		c5.6,0,11.1-0.4,16.7-0.6c2.9-0.1,5.8-0.2,8.7-0.3"/>
	<path id="XMLID_445_" class="st0" d="M494.4,887c0,1.7,0,3.5,0,5.4c-17.3,0-34.2,0-51.1,0c-0.8-3.6-0.1-6.5,2.4-9.2
		c3.6-3.8,6.8-8,10.1-12.1"/>
	<path id="XMLID_444_" class="st0" d="M393.9,680.6c4.6-0.1,9.3-0.3,13.9-0.3c17.7,0,35.4,0,53.2,0c4.7,0,9.5-0.3,14.2-0.3
		c1.2,0,2.3,0.4,3.5,0.7"/>
	<path id="XMLID_443_" class="st0" d="M306.7,614.5c-6.1-7-14.2-10.8-22.9-13.5c-8.8-2.8-17.8-2.5-26.7-1.9
		c-6.5,0.4-13.1,2.1-19.1,5c-4.9,2.4-9.3,5.3-11.8,10.4c-0.2,0.3-0.6,0.6-1,0.7c-2.5,0.9-5.1,1.9-7.6,2.8"/>
	<path id="XMLID_442_" class="st0" d="M194.8,682c-17.7,0-35.4,0-53.2,0c-0.3,0-0.7,0-1,0c-2-0.2-4.8,1.4-5.4-1.8
		c-0.3-1.7,0.8-3.8,1.4-6.2c-0.8-0.1-2.2-0.4-3.6-0.4c-11.6,0-23.2-0.1-34.7,0c-4.2,0.1-8.4-1.2-12.6,0.9c-1.1,0.5-3-0.5-4.5-0.5
		c-16.2,0-32.4,0-48.6-0.1c-1.7,0-2.9,0.6-4.2,1.7c-3.7,3-7.8,5.6-11.7,8.4c-1,0.8-1.9,1.8-2.6,2.6c4.2,4.2,8.3,7.9,11.9,12
		c2,2.2,2.7,5.2,2.5,8.3"/>
	<path id="XMLID_441_" class="st0" d="M609.4,663.2c0.3-0.8,0.8-1.5,1-2.3c0.3-1.1,1-2.7,0.6-3.4c-0.6-0.9-2.1-1.6-3.3-1.7
		c-2-0.2-3.1-0.8-3.9-2.8c-0.8-1.9-2.3-3.6-3.7-5.2c-2.2-2.5-4.2-5-4.2-8.7c0-2.4-3.6-4.4-5.8-3.4c-1.1,0.5-2.1,1.1-3.1,1.7
		c-1.7,1.1-3.1,0.7-4.9,0.1c-2.4-0.8-5.1-1.1-7.6-1.1c-18.4,0.1-36.8,0.4-55.2,0.7c-0.3,0-0.7,0.2-1,0.3"/>
	<path id="XMLID_440_" class="st0" d="M883.5,676.5c1.6-0.2,3.4-0.2,4.8-0.8c1.7-0.7,2.8,0,3.4,1.2c0.5,0.9,0.4,2.4,0,3.4
		c-0.5,1.3-1.3,2.2-3.4,1.9c-4.2-0.5-8.6-0.1-12.8-0.1c-13.2,0-26.4,0-39.6,0c-1.2,0-2.3,0.2-3.5,0.3"/>
	<path id="XMLID_439_" class="st0" d="M747,759.9c-1.2-0.1-2.3-0.4-3.5-0.3c-3.4,0.2-4.3-0.5-4.1-3.8c0.1-2.7-0.1-5.3-3.2-6.2
		c-3.1-0.9-6.2-0.8-9,1c-1.5,1-2.1,2.3-1.8,4.2c0.2,1.3,0,2.8,0,4.4c-3.3,0.3-6.2,0.5-9.5,0.8c2.1,3.5,3.7,6.7,5.7,9.7
		c2.1,3.1,2.9,6.3,2.8,10.1c-0.2,11-0.1,21.9,0,32.9c0,1.3,0.6,2.5,1,3.8"/>
	<path id="XMLID_438_" class="st0" d="M998.5,707c-0.1-4.2,1.6-7.5,4.5-10.4c3.2-3.2,6.5-6.5,10.1-10.1c-3.5-2.7-7.7-5.3-11.1-8.7
		c-3.9-4.1-8.5-3.7-13.3-3.7c-14,0-28,0.1-42,0c-14.4-0.1-28.7-0.2-43.1-0.3"/>
	<path id="XMLID_437_" class="st0" d="M128.5,688.3c-1.3-0.2-2.5-0.7-3.8-0.7c-16,0-32,0-48,0c-1.4,0-2.8-0.3-4.2-0.4
		c-0.1-0.3-0.3-0.5-0.4-0.8c2.9-2.4,5.9-4.7,8.7-7.2c1.5-1.3,2.8-2.8,4.2-4.1"/>
	<path id="XMLID_436_" class="st0" d="M793.2,569.5c-0.2-0.9-0.6-1.8-0.7-2.8c-0.4-4.4-0.8-4.9-5.2-4.8c-7.6,0.1-15.3,0.3-22.9,0.3
		c-12.6,0.1-25.2,0-37.9,0c-1.3,0-2.5,0.4-3.8,0.7"/>
	<path id="XMLID_435_" class="st0" d="M941.9,675.1c2.8,2.4,5.6,4.9,8.3,7.3c1.5,1.3,3,2.5,4.5,3.8c-0.1,0.3-0.2,0.6-0.2,0.9
		c-1.4,0.2-2.8,0.5-4.2,0.5c-15.8,0-31.5,0-47.3,0.1c-1.3,0-2.5,0.4-3.8,0.7"/>
	<path id="XMLID_434_" class="st0" d="M35.7,668.9c-2.4-1-6,0.4-6.9-3.5c1.2-3.1,4.2-2.3,6.3-2.3c18.3-0.1,36.6,0.1,54.9,0.2"/>
	<path id="XMLID_433_" class="st0" d="M77.4,694.8c-2.5-3.5-5.2-6.6-10.1-6.6c-15.4,0-30.8,0-46.2,0c-1.3,0-2.5,0.4-3.8,0.7"/>
	<path id="XMLID_432_" class="st0" d="M1009.7,688.9c-1.3-0.2-2.5-0.7-3.8-0.7c-15.3,0-30.6,0-45.9-0.1c-2.3,0-4.3,0-6,2.1
		c-1.3,1.7-3,3-4.5,4.5"/>
	<path id="XMLID_431_" class="st0" d="M323.4,479.8c3.7-5.2,9.2-8.6,13.5-13.2c1.9-2.1,3.7-1.3,5.7-1.3c16.8-0.1,33.6,0,50.4,0"/>
	<path id="XMLID_430_" class="st0" d="M592.4,734.3c-2.1,2.4-4.2,4.8-6.2,7.3c-3.9,4.9-5.9,10.4-6.3,16.6c-0.1,1.4-1,2.7-1.3,4.2
		c-1.4,7.6-5.2,14.1-9.4,20.5c-0.4,0.6-0.4,1.6-0.4,2.4c0,16,0,32.1,0,48.1c0,7.2-0.5,14.4,0.7,21.4c0.5,3.1,1.3,6.2,1.4,9.4"/>
	<path id="XMLID_429_" class="st0" d="M592,736c4.7,1.6,9.7,2.8,14.2,5c3.2,1.6,5.7,4.4,8.4,6.8c2,1.7,1.8,4.1,2.3,6.5
		c1,4.7,1.9,9.6,5,13.5c3.3,4.1,4,8.7,3.9,13.9c-0.3,13.3,0,26.5-0.2,39.8c0,3.5,1.3,6.8,0.2,10.4c-0.9,3.1-0.4,6.6-0.5,10"/>
	<path id="XMLID_428_" class="st0" d="M448.2,328.5c0.8-2.3,1.6-4.6,2.4-6.9c0.2-0.7,0.3-1.5,0.7-2.1c2-2.9,5.1-1.9,7.6-1.6
		c2.3,0.3,3.3,2,2.7,5.1c-0.5,2.5,1.4,5.5,2.2,8.3c2.8,9.6,4.7,19.4,5.6,29.4c0.4,4.9,0.9,9.7,1.4,14.5"/>
	<path id="XMLID_427_" class="st0" d="M923.5,764.8c-2.2,2.3-0.8,5.1-0.9,7.6c-0.3,5.6-0.1,11.3-0.1,17c0,1.2,0,2.4,0,3.5
		c13.3,0,26.3,0,39.3,0c0.6,0,1.2,0.4,1.7,0.7"/>
	<path id="XMLID_426_" class="st0" d="M447.1,759.2c3.5,0.8,3.1,4.1,4.2,6.5c2.4,5.4,5.3,10.6,7.9,16c0.6,1.3,1,2.8,1,4.1
		c0.1,15.6-0.4,31.2,0.3,46.7c0.3,7.2-1.8,14.3-0.2,21.5c0.1,0.3,0.2,0.8,0,1c-2.8,2.6-1.4,6-1.7,9"/>
	<path id="XMLID_425_" class="st0" d="M136.5,674.1c1-4.2,4.6-3.3,7.3-3.4c12.9-0.1,25.7,0.1,38.6,0.2c4.2,0,8.3,0,12.5,0"/>
	<path id="XMLID_424_" class="st0" d="M103.1,764.1c2.7,2.4,1.1,5.6,1.3,8.3c0.3,5.6,0.1,11.3,0.1,17c0,1.2,0,2.4,0,3.8
		c-12.9,0-25.4,0-37.9,0c-1.3,0-2.5,0.4-3.8,0.7"/>
	<path id="XMLID_423_" class="st0" d="M891.2,672.3c-3.5-1.9-7.3-1.4-11.1-1.4c-15.9,0-31.7,0-47.6,0"/>
	<path id="XMLID_422_" class="st0" d="M761.6,466.1c1.2-3-0.8-4-3.1-4.3c-2.2-0.3-4.4-0.1-6.6-0.1c-14.4,0-28.7,0-43.1,0
		c-1.2,0-2.3,0.2-3.5,0.3"/>
	<path id="XMLID_421_" class="st0" d="M630.6,692.1c-0.9-0.1-1.9-0.3-2.8-0.3c-14.6,0-29.2,0-43.8,0c-0.9,0-1.9,0.2-2.8,0.3"/>
	<path id="XMLID_420_" class="st0" d="M630.6,692.8c-0.9,0.1-1.9,0.3-2.8,0.3c-14.6,0-29.2,0-43.8,0c-0.9,0-1.9-0.2-2.8-0.3"/>
	<path id="XMLID_419_" class="st0" d="M687.9,496.8c-3,0.2-4.2,2.1-2.8,4.5c1.5,2.5,3.1,4.9,4.5,7.2c0,3.8,0,7.5,0,11.1
		c0,4.6,0.2,9.2-0.1,13.8c-0.2,4.2-0.9,8.3-1.5,12.8c2.4,0.3,4.4,0.7,6.4,0.7c5.8,0.2,11.6,0,17.4,0.6c8.3,0.8,16.7,0.7,25,0.8
		c8.2,0.1,16.4,0,24.7,0c0.1,0,0.2-0.2,0.3-0.3"/>
	<path id="XMLID_418_" class="st0" d="M585.4,885.6c-1,0.2-2.1,0.7-3.1,0.7c-14.6,0-29.2,0-43.8,0c-0.6,0-1.2-0.2-1.7-0.3"/>
	<path id="XMLID_417_" class="st0" d="M444.3,886c1.3,0.1,2.5,0.3,3.8,0.3c14.8-0.1,29.7-0.2,44.5-0.3c1.3,0,2.5,0.6,3.8,1"/>
	<path id="XMLID_416_" class="st0" d="M512.8,635.6c-1.7,1.8-3.9,2.1-6.3,2.1c-11.2,0.1-22.5,0.2-33.7,0.3c-9,0.1-18.1,0.1-27.1,0.4
		c-3.6,0.1-6.6-0.5-9-3.2"/>
	<path id="XMLID_415_" class="st0" d="M642.4,727c-14.4,0-28.7,0-43.1,0c-1.3,0-2.5,0.4-3.8,0.7"/>
	<path id="XMLID_414_" class="st0" d="M979.1,770c0,5.5,0,11.1,0,17c5.7,0,11.7,0,17.7,0c3.8,0,7.6-0.2,11.5-0.4
		c1.2-0.1,2.3-0.4,3.5-0.7"/>
	<path id="XMLID_413_" class="st0" d="M752.2,752c-1.2,1.2-3.1,2.2-3.3,3.5c-1.2,6.6-5.2,11.9-8.1,17.6c-0.5,1-1,2.1-1,3.1
		c-0.1,6.9-0.8,14,0.2,20.7c1,7.3,0.2,14.6,1,21.8c0.5,4.1,0.6,7.9-0.5,11.8"/>
	<path id="XMLID_412_" class="st0" d="M271.6,461.1c0-0.8,0-1.6,0-2.5c1.5-0.2,2.9-0.3,4.3-0.5c0.2-1.7,0.4-3.4,0.7-5.3
		c3.6,0,7.1,0,10.7,0c14.4-0.1,28.7-0.3,43.1-0.3c2.8,0,5.6,0.4,8.3,0.7"/>
	<path id="XMLID_411_" class="st0" d="M23.9,768.9c1.7-5.1,5.8-6,10.4-5.9c4.6,0.1,9.3,0.4,13.9,0.7c0,7.5,0,15,0,22.8
		c-9.3,0-18.2,0-27.1,0c-2,0-3.9-0.4-5.9-0.7"/>
	<path id="XMLID_410_" class="st0" d="M869.3,718.7c-2.1,2.3-2.1,4.4-0.1,7c3.3,4.1,4.2,8.9,4,14.2c-0.3,8,0.2,15.9,0.2,23.9
		c0,11.1-0.2,22.2-0.3,33.2c0,0.5,0.2,1,0.4,1.7c7,0,14.1,0,21.2,0c2.9,0,5.8-0.3,8.7-0.3c1,0,2.1,0.6,3.1,1"/>
	<path id="XMLID_409_" class="st0" d="M138.2,719.8c-1.6,1.7-1.6,3.5,0,5.2c0.2,0.2,0.2,0.5,0.4,0.7c3.9,5.1,4.5,10.8,4.2,17
		c-0.2,7,0.3,14.1,0.2,21.1c0,3.5-0.6,6.9-1,10.4"/>
	<path id="XMLID_408_" class="st0" d="M808.3,734.5c-6.2-10.1-15.5-15.2-26.9-17.2c-2.2-0.4-4.4-1-6.6-1.4c-3.3-0.5-6.3,0.6-9,2.4"
		/>
	<path id="XMLID_407_" class="st0" d="M30.5,709.4c-2,2-1.9,4.3-0.3,6.2c3.8,4.6,4.4,9.9,4.2,15.6c-0.2,7.4,0.2,14.8,0.2,22.2
		c0,3.1-0.2,6.2-0.3,9.3"/>
	<path id="XMLID_406_" class="st0" d="M261.6,718.4c-7.1-4.8-14.3-1.6-21.2,0.1c-8.4,2.1-15.6,6.7-20.5,14.1
		c-1.5,2.2-3.3,1.1-4.9,1.3c-2.6,0.3-3.9,1.6-3,3.8c0.3,0.8,1.8,1.2,2.7,1.8c0.1-0.5,0.2-0.9,0.3-1.4"/>
	<path id="XMLID_405_" class="st0" d="M996.5,709.4c2,2,1.8,4.3,0.3,6.2c-3.7,4.8-4.4,10.1-4.2,16c0.3,7.7,0,15.5,0.1,23.2
		c0,2.7,0.4,5.3,0.7,8"/>
	<path id="XMLID_404_" class="st0" d="M991.9,662.6c0.8-4.3-3-2.1-4.9-3.2c0-1.5,0-3.1,0-5.1c-3.8,0-7.3,0-10.8,0
		c-10.2,0-20.4-0.1-30.6,0c-3,0-6,0.4-9,0.7"/>
	<path id="XMLID_403_" class="st0" d="M160.8,716c-0.5,5.3-2.9,10-5.5,14.6c-0.8,1.3-1.4,3-1.4,4.5c-0.1,10.2-0.1,20.3,0,30.5
		c0.1,9.6,0.2,19.2,0.3,28.7c0,1.4-0.3,2.8-0.6,4.5c-9.8,0-19.6,0-29.3,0c-1.3,0-2.5,0.4-3.8,0.7"/>
	<path id="XMLID_402_" class="st0" d="M35,662.6c-0.4-3.8,2.8-2.4,4.7-2.9c0.1-0.7,0.1-1.1,0.1-1.6c0.1-3.8,0.1-3.8,3.8-3.8
		c14.4,0,28.7,0,43.1,0c1.2,0,2.3,0.4,3.5,0.7"/>
	<path id="XMLID_401_" class="st0" d="M890.1,682.7c1.7,1.4,3.4,2.8,5.2,4.1c3.2,2.4,6.5,4.6,9.7,7c0.4,0.3,0.6,1.1,0.7,1.4
		c-3.5,3.5-6.8,6.7-10.1,10c-3.2,3.3-5.7,6.5-4.1,11.8c0.6,2.2-1,5.6-2.6,7.8c-3.8,5.2-4.8,10.8-4.5,17c0.3,5.6,0,11.3,0.1,17
		c0.1,5.1,0.2,10.2,0.3,15.2"/>
	<path id="XMLID_400_" class="st0" d="M358.9,877.7c0.5-1.3,0.8-2.6,1.4-3.8c2.1-4.3,4.4-8.5,6.6-12.8c0.5-1,1-2.1,1-3.1
		c0.2-5.1,3.7-8.7,6-12.8c1.1-2.1,2.3-3.1,5.2-2.9c7,0.4,14.1-0.1,21.2-0.2c2.8,0,5.6,0,8.3,0c0,12.3,0,24.2,0,36.4
		c-5.3,0-10.7,0-16,0c-10,0.1-19.9,0.2-29.9,0.3c-1.7,0-3.5,0-5.2,0"/>
	<path id="XMLID_399_" class="st0" d="M49.3,710.1c1.6,1.6,1.9,3.3,0.4,5.2c-0.2,0.2-0.2,0.5-0.4,0.7c-3.6,4.1-3.5,9.1-3.6,14.2
		c0,7.6-0.6,15.2-0.9,22.9c0,0.5,0.3,0.9,0.3,1.4c0.3,2.9,0.5,5.8,0.7,8.7"/>
	<path id="XMLID_398_" class="st0" d="M930.1,726.3c0.9,0.2,1.9,0.5,3.3,0.8c1.6-2.8,3.4-5.8,5-8.8c0.4-0.7,0.5-2.2,0-2.7
		c-3.1-3.6-1.1-7.6-1.3-11.5c0-0.3-0.1-0.9,0-1c4.8-2.5,7.6-7.9,14.2-7.8c5.9,0,11.5,0.1,16.7,3.3c3.8,2.4,7.1,4.8,7.5,10
		c0.3,4,2.2,7.7,4.6,11.2c1,1.5,1.4,3.6,1.4,5.5c0.1,8.1,0.1,16.2,0,24.2c0,4.5-0.2,9-0.3,13.5"/>
	<path id="XMLID_397_" class="st0" d="M761.9,546.6c-2.7-0.1-5.3-0.3-8-0.3c-11.5,0-22.9,0-34.4,0"/>
	<path id="XMLID_396_" class="st0" d="M544.7,176.5c0.8-1.6,1.9-3.2,2.4-4.9c1.4-5.2-2.2-7.9-5.9-10.4c-4.3-2.9-9.2-4.3-14.2-4.8
		c-5.2-0.5-10.4-1-15.6-0.6c-6.7,0.4-13.3,1.7-19.1,5.4c-7.4,4.7-8.1,8.9-2.8,15.6"/>
	<path id="XMLID_395_" class="st0" d="M629.9,681c-5.1,0.1-10.2,0.3-15.3,0.3c-8.2,0-16.4-0.2-24.7-0.3"/>
	<path id="XMLID_394_" class="st0" d="M408.2,856.5c-13.1,0-26.2,0-39.3,0"/>
	<path id="XMLID_393_" class="st0" d="M768.9,863.5c-0.9-0.9-2.1-1.7-2.7-2.8c-3-4.9-5.8-9.9-8.8-14.8c-0.4-0.7-2-1-3-1
		c-11.8-0.1-23.6,0-35.4,0"/>
	<path id="XMLID_392_" class="st0" d="M479.4,682c-0.1-3.5-0.8-7-0.2-10.4c0.8-4.2,3.1-5.6,7.2-5.6c9,0,18.1,0.1,27.1,0
		c6.3-0.1,12.5-0.5,18.8-0.6c3.4,0,6.7,0.3,10.1,0.7c3.4,0.4,7,5.3,6.1,8.9c-0.5,2.3-0.9,4.6-0.9,7"/>
	<path id="XMLID_391_" class="st0" d="M430.4,638.4c-4.6-0.2-9.3-0.6-13.9-0.7c-4.9-0.1-9.7-0.1-14.6,0c-3.2,0-6.5,0.2-9.7,0.3
		c-4,0.1-7.2-1.3-10.1-4.1c-6.3-6-12.9-11.6-19.4-17.4c-2.5-2.2-4-5.7-8-5.9"/>
	<path id="XMLID_390_" class="st0" d="M632.7,517.9c2-0.2,3.9-0.6,5.9-0.7c6.1-0.1,12.3,0,18.4,0c3.8,0,5.7,1.8,5.9,5.5
		c0.1,2.9,0,5.9,0,8.8"/>
	<path id="XMLID_389_" class="st0" d="M308.5,844.8c-11.5,0-22.9,0-34.4,0c-1.2,0-2.3,0.2-3.5,0.3"/>
	<path id="XMLID_388_" class="st0" d="M755.7,461.1c0.4-3.8-2.8-2.4-4.5-2.9c-0.7-5.1-0.7-5.4-6.3-5.4c-13.3-0.1-26.6,0-40,0
		c-0.1,0-0.2,0.2-0.3,0.3"/>
	<path id="XMLID_387_" class="st0" d="M866.2,647.7c1.6-0.5,3.2-1.3,4.9-1.3c13.8,0,27.6,0.2,41.3,0.3c5.5,0,8.5,2.6,9.7,8.3
		c-0.9,0.5-1.9,1.1-2.1,1.2c0,6,0,11.4,0,16.8"/>
	<path id="XMLID_386_" class="st0" d="M349.5,497.1c1.7,1.4,1.9,3,0.7,4.9c-0.1,0.2-0.2,0.5-0.4,0.7c-4.3,4.3-3.9,9.8-3.8,15.2
		c0,9.1-0.2,18.2-0.3,27.4c0,0.3,0.2,0.7,0.3,1"/>
	<path id="XMLID_385_" class="st0" d="M218.8,734.3c1.4,3.6-1.1,6.5-2.6,8.9c-3.7,5.6-3.7,11.2-3.4,17.5c0.4,7.6-0.1,15.2-0.3,22.8
		c0,1.2-0.7,2.4-1.2,3.6c3,3.3,1,7.5,1.6,11.3"/>
	<path id="XMLID_384_" class="st0" d="M160.8,647.7c-1.4-0.5-2.8-1.3-4.2-1.3c-13.8,0-27.6,0.2-41.3,0.3c-6.1,0-8.8,2.2-10.4,8.4
		c1.1,0.5,2.1,1,2.4,1.1c0,2.6,0,4.7,0,6.8c-0.1,3.3-0.2,6.7-0.3,10"/>
	<path id="XMLID_383_" class="st0" d="M505.5,478.1c-2.1-3.6-5.1-4.7-9.4-4.6c-13.5,0.3-27.1,0.1-40.7,0.1c-4.5,0-6.1,1.6-5.9,5.9
		c0.1,2.3,0.2,4.6,0.3,6.9"/>
	<path id="XMLID_382_" class="st0" d="M536.4,473.9c1-0.1,2.1-0.3,3.1-0.3c15.5,0,31,0,46.6,0c4.2,0,6.1,1.8,5.9,5.9
		c-0.1,2.3-0.2,4.6-0.3,6.9"/>
	<path id="XMLID_381_" class="st0" d="M306,679.3c-0.5-2.7-1.2-5.3-1.3-8c-0.3-4.7,1.5-6.6,6.2-7.3c4.2-0.6,8.3-0.5,12.5-0.4
		c12.5,0.3,25,0.1,37.5,0.1c2.5,0,4.9,0.2,7,2.1c2.3,2.1,2.3,4.9,2,7.6c-0.2,1.9-0.9,3.7-1.3,5.5"/>
	<path id="XMLID_380_" class="st0" d="M416.5,420.2c-1.9-0.2-3.7-0.6-5.6-0.7c-5.6-0.1-11.1,0.1-16.7-0.1c-4-0.1-7,2.3-6.3,6.3
		c0.4,2.6,0.1,5.3,0.1,8"/>
	<path id="XMLID_379_" class="st0" d="M810.2,740.5c1.5-0.5,3.1-1,4.7-1.6c0.3-4.7-0.1-5.2-4.4-5c-2.6,0.1-3.5,1.5-2.4,3.8
		c1.5,3.2,3.4,6.2,4.8,9.4c0.9,2,1.4,4.4,1.4,6.5c0.1,9.8,0,19.6,0.1,29.4c0,1.2,0.9,2.3,1.3,3.5"/>
	<path id="XMLID_378_" class="st0" d="M627.1,420.2c2-0.2,3.9-0.6,5.9-0.7c5.6-0.1,11.1,0,16.7,0c3.9,0,5.9,2,5.9,5.9
		c0,2.9-0.2,5.8-0.3,8.7"/>
	<path id="XMLID_377_" class="st0" d="M197.3,737.4c-0.3,1.4-1,2.8-0.9,4.2c0,0.9,0.9,1.9,1.7,2.8c3.1,3.6,3.7,7.8,3.5,12.5
		c-0.3,8.5-0.1,17.1,0,25.6c0,1.4,0.9,2.8,1.3,4.2"/>
	<path id="XMLID_376_" class="st0" d="M371.4,850.7c3.7,0.1,7.4,0.3,11.1,0.3c8.5,0.1,16.9,0.2,25.4,0.4"/>
	<path id="XMLID_375_" class="st0" d="M933.2,727.4c0.1,6.5,0.3,12.9,0.3,19.4c0.1,4.3,0.1,8.5,0,12.8c0,1.2-0.6,2.3-1,3.5"/>
	<path id="XMLID_374_" class="st0" d="M369.3,681c-2.2,0.1-4.4,0.3-6.6,0.3c-18.3,0-36.6,0-54.9,0c-0.6,0-1.2-0.2-1.7-0.3"/>
	<path id="XMLID_373_" class="st0" d="M560,679.3c-0.6-1.8-1.4-3.7-1.7-5.5c-0.6-4,1.4-9.5,6.2-9.7c3.5-0.1,6.9-0.3,10.4-0.3
		c10-0.1,19.9-0.3,29.9-0.3c4.3,0,8.6,0.2,12.9,0.7c4.9,0.5,6.9,3.8,5.9,8.6c-0.4,2-0.5,4.1-0.7,6.2"/>
	<path id="XMLID_372_" class="st0" d="M921.4,714.2c-3,0.3-4.2,1.9-3.1,4.5c0.8,1.9,1.5,4,2.8,5.5c1.9,2.1,2.1,4.4,2,7
		c-0.1,9.3-0.1,18.7,0,28c0,1.3,0.6,2.5,1,3.8"/>
	<path id="XMLID_371_" class="st0" d="M105.5,714.2c3,0.3,4.4,2.5,3.1,5.2c-0.6,1.3-1.1,2.8-2.1,3.8c-2.8,2.8-2.4,6.3-2.4,9.7
		c0,8.4,0.1,16.9-0.1,25.3c0,1.6-0.9,3.2-1.3,4.8"/>
	<path id="XMLID_370_" class="st0" d="M754.3,839.6c-1.2,0.1-2.3,0.3-3.5,0.3c-10.7,0-21.3,0-32,0"/>
	<path id="XMLID_369_" class="st0" d="M155.2,532.4c0-6.2,0-6.2,6.3-6.2c14.2,0,28.5,0,42.7,0c5.7,0,11.4,0,17,0
		c4.4,0,4.3-0.2,4.2,4.2c0,0.7,0,1.4,0,2.1"/>
	<path id="XMLID_368_" class="st0" d="M701.5,614.5c0.5,0.3,0.9,0.8,1.4,1c2.1,1.1,3.9,2.4,3.1,5.2c-0.1,0.2,0.2,0.5,0.3,0.7
		c4,6.3,2.2,13.3,2.4,20.1c0.1,4.6-0.7,9.3-0.1,13.8c0.4,2.6,1.3,4.9-0.2,7.3"/>
	<path id="XMLID_367_" class="st0" d="M745.2,532.8c0.6-6.4-0.5-12.3-4.4-17.7c-1.6-2.2-2.6-5.2-2.8-7.9c-0.3-6.6-5.3-8.6-9.9-10.6
		c-4.8-2.1-9.9-2.9-15.3-1.6c-3.6,0.9-7.4,1.2-11.1,1.8"/>
	<path id="XMLID_366_" class="st0" d="M742.5,576.4c-2.9-0.2-5.8-0.7-8.7-0.7c-10.4,0-20.8,0.3-31.3,0.3c-3.9,0-7.9-0.6-11.8-0.6
		c-2.3,0-4.6,1.2-7,1.2c-9.8,0.1-19.7,0.1-29.5,0.1"/>
	<path id="XMLID_365_" class="st0" d="M658.4,856.5c0-1.2,0.4-2.5-0.1-3.4c-0.5-1-1.7-2.4-2.7-2.4c-7.1-0.1-14.1,0.1-21.2,0.3
		c-5.2,0.1-10.4,0.4-15.6,0.7"/>
	<path id="XMLID_364_" class="st0" d="M339.4,586.8c1.3,0.1,2.5,0.3,3.8,0.3c10.3,0.1,20.6,0.2,30.9,0.4"/>
	<path id="XMLID_363_" class="st0" d="M708.8,588.2c0.3,1.2,1,2.3,1,3.5c0.1,10,0,20.1,0,30.1c0,0.2-0.2,0.5-0.3,0.7"/>
	<path id="XMLID_362_" class="st0" d="M706,663c-2.3-0.1-4.6-0.3-6.9-0.3c-8.5,0.1-16.9,0.2-25.4,0.4c-3.2,0.1-6.5,0.3-9.7,0.7
		c-5.1,0.5-8.3,5.3-7,10.4c0.5,1.8,0.9,3.7,1.4,5.5"/>
	<path id="XMLID_361_" class="st0" d="M822.4,749.2c2.7,0.1,3.6,1.4,3.5,4.2c-0.2,10,0,20.1-0.1,30.1c0,1.2-1,2.4-1.5,3.5
		c2.8,3.4,1.1,7.6,1.6,11.4"/>
	<path id="XMLID_360_" class="st0" d="M143.1,670.2c0.1-1.2-0.5-3,1.7-2.7c3.1,0.3,3.8-1.2,3.5-3.8c-0.1-0.5,0.1-0.9,0.1-1.7
		c4,0,7.8,0,11.7,0c10.2,0,20.4,0,30.6,0c1.3,0,2.5-0.2,3.8-0.3"/>
	<path id="XMLID_359_" class="st0" d="M510.3,308.8c-5.6,9.8-9.3,20.4-12.4,31.2c-1.8,6.3-2.9,12.9-4.2,19.4
		c-0.2,1.2,0.4,2.5,0.6,3.8"/>
	<path id="XMLID_358_" class="st0" d="M77.4,584.4c1.2,1.1,2.4,2.2,3.6,3.3c7.4,1.6,10.8,6.5,9.3,14.4c-0.2,1.2,0.3,2.8,1,3.7
		c2.7,3.2,3.3,6.8,3.1,10.8c-0.2,5.6-0.1,11.3,0,17c0,4,0.7,4.6,5.5,4.5c2.8,0,3.5-0.9,3.5-4.5c0-5.4,0.1-10.9,0-16.3
		c-0.1-4.1-0.2-8,3.1-11.1c0.2-0.2,0.2-0.7,0.4-1c1.6-3.2,0.9-4.5-2.8-4.5"/>
	<path id="XMLID_357_" class="st0" d="M730.6,576.4c-1.7,3.5-3.5,6.9-5.2,10.4c-0.6,1.3-1.3,2.8-1.4,4.1c-0.1,7.4-0.1,14.8,0,22.2
		c0,1,0.5,2.1,0.6,3.1c0.2,1.5,0.4,3,0.3,4.5c-0.2,2.7-0.9,5.3-1,8c-0.1,10.4,0,20.8-0.1,31.2c0,4.5-0.2,9-0.7,13.5
		c-0.2,2.2-1.3,4.3-2,6.4"/>
	<path id="XMLID_356_" class="st0" d="M954.8,779.3c-6.5,0.1-13,0.3-19.5,0.3c-4.1,0.1-8.1,0-12.2,0"/>
	<path id="XMLID_355_" class="st0" d="M940.9,589.2c-1.3-0.2-2.5-0.7-3.8-0.7c-9.3-0.1-18.5,0-27.8,0"/>
	<path id="XMLID_354_" class="st0" d="M72.2,779.7c10.5,0,21.1,0,31.6,0"/>
	<path id="XMLID_353_" class="st0" d="M374.5,532.1c-5.1,0.1-10.2,0.3-15.3,0.3c-3,0-4.9,1.3-5.1,4.2c-0.3,3.4-0.1,6.9-0.1,10.4"/>
	<path id="XMLID_352_" class="st0" d="M677.1,612.4c-1.5,1.7-2.9,3.6-4.5,5.2c-7.3,7-14.7,14-21,20.1c-4.4,0-7.7,0.1-10.9,0
		c-9.8-0.2-19.7-0.4-29.5-0.7c-3.9-0.1-7.9-0.5-11.8-0.6c-1.3,0-2.5,0.4-3.8,0.7"/>
	<path id="XMLID_351_" class="st0" d="M286.9,753c-2.5-0.3-5.1-0.8-7.6-0.9c-0.6,0-1.8,1.7-1.6,2.3c1.9,5.8,4,11.6,7.6,16.6
		c1.4,2,2,4,1.9,6.6c-0.3,6.6,0.2,13.2,0.2,19.7c0,2.2-0.9,4.4-0.9,6.6c-0.1,7.2-0.1,14.3,0,21.5c0,1.8,0.4,3.6,0.7,5.4"/>
	<path id="XMLID_350_" class="st0" d="M757.4,512.4c0.3-1.3,0.7-2.5,1-3.8c0.7,0.2,1.5,0.3,2.1,0.7c1.4,1.1,1.7,2.5,0.7,4.1
		c-0.4,0.7-0.6,1.5-1.1,2.1c-3.4,4.4-4.3,9.4-3.9,14.9c0.2,3-0.2,6-0.3,9"/>
	<path id="XMLID_349_" class="st0" d="M386,638c-0.3,1.2-1,2.3-1,3.5c0,8.1-0.1,16.2,0.4,24.2c0.2,3.4-0.4,6.7-0.2,10.1
		c0.3,5.3-0.4,10.7,1.4,15.9"/>
	<path id="XMLID_348_" class="st0" d="M722.7,667.8c-2.8-3.4-6.5-4.2-10.8-4.3c-6.1-0.1-11.9,1.7-18.1,1.2c-6-0.4-12-0.1-18.1-0.1
		c-1.2,0-2.3-0.2-3.5-0.3"/>
	<path id="XMLID_347_" class="st0" d="M392.2,638.4c0.2,1.3,0.7,2.5,0.7,3.8c0.1,7.2,0,14.3,0,21.5c0,5-1,5.8-6.3,4.8"/>
	<path id="XMLID_346_" class="st0" d="M843.2,526.6c-10,0-19.9,0-29.9,0"/>
	<path id="XMLID_345_" class="st0" d="M643.4,638.7c-0.1,9-0.3,18-0.3,27c0,2.3,1.5,3.2,3.8,3.2s3.8-0.9,3.8-3.2c0-9-0.2-18-0.3-27"
		/>
	<path id="XMLID_344_" class="st0" d="M962.1,792.5c-0.9-2-1.9-3.9-2.8-5.9c-1.4-3.1-2.7-6.3-4.2-9.3c-0.4-0.7-1.3-1.7-2-1.7
		c-9.8,0-19.7,0.2-29.5,0.3"/>
	<path id="XMLID_343_" class="st0" d="M524.2,478.4c8.3-1.2,15.4,1.6,21.5,7c3.2,2.8,3.1,6.8,0,9.6c-2.7,2.5-5.3,5.5-9.7,4.9"/>
	<path id="XMLID_342_" class="st0" d="M552.4,784.9c0,9.8,0,19.6,0,29.4"/>
	<path id="XMLID_341_" class="st0" d="M588.9,487.8c1.6-0.2,3.2-0.6,4.9-0.7c5.1-0.1,10.2,0,15.3,0c6.7,0,7.7,1.2,7.3,8
		c-0.1,2.1,0,4.2,0,6.2"/>
	<path id="XMLID_340_" class="st0" d="M343.6,576.4c-1.7,3.6-3.5,7.2-5.2,10.7c-0.5,0.9-1.3,1.8-1.3,2.8c-0.1,4.7-0.1,9.5-0.1,14.2
		c0,1.7,0,3.5,0,5.2c-0.1,5.4-0.3,10.9-0.3,16.3c0,3.1,0.4,6.2,0.7,9.3"/>
	<path id="XMLID_339_" class="st0" d="M179.9,704.5c3.6,4.6,6.9,9.4,10.9,13.8c2.4,2.7,3.4,5.3,3.1,8.7c-0.1,1.1,0.2,2.3-0.1,3.5
		c-0.5,2.9,0.9,4.6,3.2,5.9"/>
	<path id="XMLID_338_" class="st0" d="M65.2,792.7c1.3-2.6,2.6-5.2,3.8-7.8c1-2.4,1.8-4.9,2.9-7.2c0.4-0.9,1.6-2,2.4-2
		c9.7,0,19.5,0.1,29.2,0.3"/>
	<path id="XMLID_337_" class="st0" d="M513.8,478.4c-7.3-1.3-13.5,1.6-19.5,5.2c-4.7,2.9-6.4,8.9-0.4,12.9c1.4,0.9,2.6,2.3,3.8,3.4"
		/>
	<path id="XMLID_336_" class="st0" d="M320.3,619c0.5,1.3,1.3,2.5,1.3,3.8c0.1,9.5,0,18.9,0.1,28.4c0,1.2,0.4,2.4,0.7,3.6"/>
	<path id="XMLID_335_" class="st0" d="M366.1,601c-6.5-2.8-13-1.7-19.4,0.1c-3.2,0.9-6.1,2.9-9.1,4.4"/>
	<path id="XMLID_334_" class="st0" d="M701.1,533.5c7.1,0,14.1,0,21.2,0c6.8,0.1,13.7,0.2,20.5,0.3c0.3,0,0.7,0,1,0
		c4.7-0.7,4.9-0.6,4.9,3.8c0,0.7,0,1.4,0,2.1"/>
	<path id="XMLID_333_" class="st0" d="M865.5,648.1c-2.9,0.3-5.8,0.9-8.7,1c-5.8,0.2-11.6,0.3-17.4,0.4c-1.5,0-3,0.2-4.5,0.3"/>
	<path id="XMLID_332_" class="st0" d="M585.4,390.5c3.4-0.5,6.7-1.2,10.1-1.3c3.6-0.2,7.2,0.2,10.8,0.3c4.4,0.1,5.6,1.2,5.5,5.5
		c0,2.9-0.2,5.8-0.3,8.7"/>
	<path id="XMLID_331_" class="st0" d="M452.7,487.8c-1.6-0.2-3.2-0.6-4.9-0.7c-5.2-0.1-10.4,0-15.6,0c-6.5,0-7.3,1.2-7.3,8
		c0,2.1,0.2,4.2,0.3,6.2"/>
	<path id="XMLID_330_" class="st0" d="M266.8,508.9c-1.5,1.9-1.9,3.9-0.3,5.9c5.6,6.9,4.8,14.9,4.2,22.9c0,0.6,0.2,1.2,0.3,1.7"/>
	<path id="XMLID_329_" class="st0" d="M514.2,636c2.7,1.2,5.5,2.4,3.9,5.2c1,2.2,1.6,3.8,2.4,5.2c0.4,0.8,1.2,1.4,1.7,2.1
		c2,2.6,3.9,5.2,5.8,7.8c-0.2,0.3-0.4,0.5-0.6,0.8c1,0,2.2-0.3,3.1,0.1c1.4,0.5,3.1,1,3.7,2.1c0.5,1-0.3,2.7-0.6,4.1
		c-0.1,0.7-0.4,1.3-0.7,1.9"/>
	<path id="XMLID_328_" class="st0" d="M700.4,613.8c-3.1,0.2-5.5-1.4-7.2-3.5c-4.5-5.8-10.5-9-17.5-10.6c-1.4-0.3-3,0.4-4.5,0.6"/>
	<path id="XMLID_327_" class="st0" d="M871,610.7c0,3.9,0,7.8,0,11.8s-0.5,7.9,0.1,11.8c0.7,4.1-1.1,7.8-0.5,11.8"/>
	<path id="XMLID_326_" class="st0" d="M880.1,610.7c0,3.9,0,7.8,0,11.8s0.5,7.9-0.1,11.8c-0.6,4,0.6,7.9,0.1,11.8"/>
	<path id="XMLID_325_" class="st0" d="M155.9,610.7c0,3.9,0,7.8,0,11.8s0.6,8-0.2,11.7c-0.8,4.2,1.7,7.8,0.9,11.8"/>
	<path id="XMLID_324_" class="st0" d="M333.5,496.8c-2.6,0.2-3.4,1.7-2.5,4.5c0.4,1.3,0.7,2.7,1,4.1c-0.2,0.1-0.4,0.3-0.6,0.4
		c-0.9-0.8-2-1.5-2.8-2.5c-3.6-4.7-8.3-7.5-14.3-8.3c-3-0.4-6-0.9-9-1.4"/>
	<path id="XMLID_323_" class="st0" d="M923.8,610.7c0,7.7-0.1,15.5,0,23.2c0,1.4,0.6,2.8,1,4.2"/>
	<path id="XMLID_322_" class="st0" d="M284.5,452.1c-0.2-1.7-0.5-3.5-0.7-5.2c-0.5-3.5,0.6-5.3,4.2-5.8c2.6-0.4,5.3-0.3,8-0.4
		c8.3-0.1,16.7-0.3,25-0.3c2,0,3.9,0.4,5.9,0.7c3.9,0.6,5.5,2.7,4.8,6.6c-0.2,1.5-0.7,3-1,4.5"/>
	<path id="XMLID_321_" class="st0" d="M434.6,736c-3.6,1.2-7.2,2.3-10.8,3.5c-4.4,1.5-8.1,4.2-11.1,7.7c-1.4,1.6-3,3.3-2.4,6.2
		c0.4,1.8-1.2,4.1-1.9,6.2"/>
	<path id="XMLID_320_" class="st0" d="M532.6,478.1c1.2-1.3,2.4-2.7,3.6-4c-2.2-3.8-6.2-3.8-9.5-4.6c-6.9-1.7-13.8-0.7-20.5,1.4
		c-1.5,0.5-2.6,2.1-3.9,3.2"/>
	<path id="XMLID_319_" class="st0" d="M947.8,585.4c-1,1.9-2,3.3-4.9,3.3c-3.3,0-8,7.8-6.8,11.6c0.9,3,0.2,5.2-1.6,7.3
		c-1.8,2.1-2.1,4.4-2.1,7c0.1,6.1,0.1,12.2,0,18.4c-0.1,3-0.3,6,0.3,9c0.7,3.7,0.9,4.3,4.6,4.8c0.6,0.1,1.2,0.5,2,0.8
		c-1,1.2-2.1,2.2-3,3.4c-1.2,1.5-1.8,2.9-0.1,4.5c0.5,0.5,0.8,1.6,0.7,2.4c-0.9,4.6-0.6,9.2-0.6,13.9c0,0.5,0.2,0.9,0.3,1.4"/>
	<path id="XMLID_318_" class="st0" d="M688.9,635.3c-1.8,1.5-3.9,2.5-3.4,5.9c0.3,1.8-2.2,4.4-3.9,6.1c-2,2-4,3.7-4.6,6.6
		c-0.1,0.7-1.7,1.6-2.7,1.7c-4.8,0.7-5.4,1.6-3.5,6c0.2,0.4,0.2,0.9,0.4,1.4"/>
	<path id="XMLID_317_" class="st0" d="M90.3,713.9c0-0.3,0-0.7,0-1c0-3.2,1.2-7.2-0.3-9.5c-1.8-2.9-5.7-4.6-8.8-6.7
		c-3.5-2.4-7.7-1.6-11.4-1.3c-6,0.4-11.5,2.4-15.6,7.2c-0.5,0.6-1.2,1.1-1.4,1.7c-0.9,3.7-3.9,4.7-7,5.5"/>
	<path id="XMLID_316_" class="st0" d="M161.5,648.1c3.8,0.7,7.6,1.8,11.5,2c6.1,0.3,12.3-0.1,18.4-0.2"/>
	<path id="XMLID_315_" class="st0" d="M305.3,839.6c-8.8,0-17.6,0-26.4,0"/>
	<path id="XMLID_314_" class="st0" d="M305.3,840.3c-8.8,0-17.6,0-26.4,0"/>
	<path id="XMLID_313_" class="st0" d="M535,434.1c0.6-1.1,1.2-2.3,1.8-3.4c-4.8-6.8-25.9-7-32.1-0.3c0.6,1.2,1.2,2.4,1.9,3.7"/>
	<path id="XMLID_312_" class="st0" d="M88.5,716.3c0.7,2,0.9,4.3,2.2,5.8c2.9,3.3,3,7.2,3,11.2c0,8-0.1,15.9,0.1,23.9
		c0,2.2,0.9,4.4,1.3,6.6"/>
	<path id="XMLID_311_" class="st0" d="M933.9,644.6c3.2-2.9,7-2.1,10.8-2.1c4.1,0,8.1,0,12.2,0c5.8,0,11.6,0.2,17.4-0.1
		c3.9-0.2,6.8,2.3,5.9,7.3c-0.2,1.3-0.5,2.5-0.7,3.8"/>
	<path id="XMLID_310_" class="st0" d="M502,137.7c-3.1-6.1-1.3-9.4,6.6-11.4c6.3-1.6,12.7-1.8,18.7,1.1c1.9,0.9,3.9,2,5.1,3.5
		c0.8,1,0.6,3.3,0,4.7c-0.6,1.5-1.7,2.6-4.1,1.9c-8.5-2.5-17.2-2-25.6,0.4c-4.1,1.2-8.1,3.3-10.5,7.4c-2.1,3.6-1.7,7.2,1.4,10.4
		c0.9,0.9,1.9,1.8,2.8,2.8"/>
	<path id="XMLID_309_" class="st0" d="M70.5,616.2c0,1.4,0.1,2.8,0,4.2c0,0.6-0.3,1.5-0.7,1.7c-1.9,1-2.2,2.6-3,4.5
		c-1.3,3.4-3.9,6.3-6.1,9.4c-0.2,0.3-1.2,0.1-1.7,0.4c-1.2,0.7-2.3,1.6-3.4,2.4c1.4,2.7,3.4,3.2,5.8,3.2c5.3,0,10.7,0.2,16,0.3"/>
	<path id="XMLID_308_" class="st0" d="M320.6,625.9c-2.7,1.8-3.6,4.4-3.5,7.6c0.2,6.3,0,12.7,0.1,19c0,1.3,0.4,2.5,0.7,3.8"/>
	<path id="XMLID_307_" class="st0" d="M832.5,661.6c15.4,0.7,30.8,0.1,46.5,0.4c0,1.9,0,3.5,0,5.1c1.8,0.2,3.3,0.5,5,0.7
		c0,0.8,0,1.6,0,2.4"/>
	<path id="XMLID_306_" class="st0" d="M585.4,324.3c-0.7-1-1.7-2-2-3.1c-0.8-3-3.2-4.2-7.7-3.4c-2.7,0.4-3.3,1.9-3.6,4.8
		c-0.4,3.5-1.6,6.9-2.3,10.4c-1.1,6-2.1,12-3.2,18"/>
	<path id="XMLID_305_" class="st0" d="M47.5,773.4c-8.5,0-16.9,0-25.4,0"/>
	<path id="XMLID_304_" class="st0" d="M553.4,789.4c-0.1,8.3-0.2,16.6-0.3,24.9"/>
	<path id="XMLID_303_" class="st0" d="M979.8,773.1c7.4,0.1,14.8,0.3,22.2,0.3c2.1,0,3.2,0.3,4.3,2.4c1.9,3.7,4.3,7.2,6.5,10.8"/>
	<path id="XMLID_302_" class="st0" d="M503.4,435.8c-1.9,1.2-3.7,2.3-5.6,3.5c-6.3,4.3-6.9,10,0,14.2c1,0.6,1.9,1.6,2.8,2.4"/>
	<path id="XMLID_301_" class="st0" d="M151.1,609.3c-4,0.8-4.4,3.4-4.2,6.9c0.3,5.5-0.4,11.1,0.2,16.6c0.5,4.5-0.5,8.8-0.1,13.2"/>
	<path id="XMLID_300_" class="st0" d="M764.7,728.1c-3.4,3.3-6.6,6.8-10.1,10c-4.1,3.8-6.5,8.3-6.9,13.9"/>
	<path id="XMLID_299_" class="st0" d="M481.5,870.7c1.5-5.1,0.3-6-5.2-5.7c-5.6,0.3-11.3-0.3-17-0.6c-1.8-0.1-4.3,1.5-4.5,3.1
		c-0.2,1.9,1.2,3.1,3.8,3.1c6.7,0,13.4-0.1,20.2,0c1.3,0,3,0.2,3.7,1.1c3.8,4.5,7.3,9.2,10.9,13.8"/>
	<path id="XMLID_298_" class="st0" d="M591,612.1c-1,2.8-2,5.6-3.1,8.3c-2.3,5.3-4.6,10.6-6.9,15.9"/>
	<path id="XMLID_297_" class="st0" d="M433.9,734.3c0.8,0.8,1.6,1.6,2.4,2.4c5.4,5.3,11.9,9.7,14.6,17.3c0.6,1.7,0.7,3.5,1.1,5.2"/>
	<path id="XMLID_296_" class="st0" d="M332.1,505.8c5.5,8.4,2.4,17.7,3.1,26.7c0.4,4.6,0.3,9.2,0.4,13.8"/>
	<path id="XMLID_295_" class="st0" d="M534,336.8c1-1.2,2-2.4,3-3.7c-1.8-4.1-5.8-4.5-8.9-4.8c-5.6-0.4-11.5-1.1-17,1.2
		c-1.8,0.7-4.4,1.1-4,3.4c0.4,2.3,2.3,3.9,5.1,3.9c1.7,0,3.5,0.2,5.2,0.3"/>
	<path id="XMLID_294_" class="st0" d="M263,728.4c3.1,3.1,6.2,6.2,9.4,9.3c3.6,3.6,6.3,7.7,6.9,12.8c0,0.3-0.2,0.7-0.3,1"/>
	<path id="XMLID_293_" class="st0" d="M378.3,708.3c-2.9,2.3-5.7,4.7-8.7,6.9c-3.4,2.6-6.9,5.1-10.4,7.6c-1.3,0.9-2.2,1.8-1.4,3.5"
		/>
	<path id="XMLID_292_" class="st0" d="M153.5,785.2c-7.9,0.1-15.8,0.2-23.6,0.3"/>
	<path id="XMLID_291_" class="st0" d="M450.6,639.1c-0.1,5.1-0.3,10.2-0.4,15.7c2,0.7,5.4,0.7,6.3,4.4"/>
	<path id="XMLID_290_" class="st0" d="M919,600c-1.5-1.5-2.9-3.1-4.5-4.5c-4.4-3.7-9.2-6.1-15.3-4.9c-1,0.2-2.1,0-3.1,0"/>
	<path id="XMLID_289_" class="st0" d="M897.1,784.9c-7.9,0.1-15.8,0.2-23.6,0.3"/>
	<path id="XMLID_288_" class="st0" d="M453,663.7c4.2-2.2,8.1,0,11.8,1.2c3.6,1.2,4.8,5.9,3.6,9.5c-0.6,1.7-0.7,3.5-1.1,5.2"/>
	<path id="XMLID_287_" class="st0" d="M538.8,436.5c2,1.3,4.1,2.4,5.9,3.8c5.3,4.2,5.2,8.9-0.3,12.8c-1.2,0.9-2.3,1.8-3.5,2.8"/>
	<path id="XMLID_286_" class="st0" d="M1003.1,769.3c-1.6,0.3-3.2,1-4.9,1c-5.6,0-11.1-0.3-16.7-0.3c-3.4,0-2.7-2.2-2.8-4.2
		c-0.2-2.4,1.5-2.5,3.1-2.4c5.2,0.1,10.4,0.2,15.6,0.3c0.5,0,1.2-0.5,1.4-0.3c1.1,1.1,2.5,2.1,3.1,3.5c0.9,2.3,4.2,3.4,3.2,6.5"/>
	<path id="XMLID_285_" class="st0" d="M14.2,786.6c2.3-3.8,4.6-7.6,6.9-11.4c0.1-0.2,0.2-0.5,0.4-0.7c1.1-1.4-0.9-4.2,1.8-4.8
		c1.5-0.3,3.2,0.2,4.8,0.2c6.5,0,13,0,19.5,0"/>
	<path id="XMLID_284_" class="st0" d="M532.9,470.8c2.1-4.4,1.4-8.1-1.8-11.1c-1.9-1.7-4-3.2-5.9-4.9c-2.1-1.8-4.1-3.7-6.1-5.5
		c-3.9,3.3-7.8,6.4-11.6,9.7c-3.2,2.7-4.9,6.6-2.4,11.8"/>
	<path id="XMLID_283_" class="st0" d="M315.1,576.4c1.7,3.5,3.6,6.9,5.2,10.4c0.8,1.9,1.6,3.9,1.7,5.9c0.3,4.5,0.6,9.1-0.1,13.5
		c-0.5,3.6,1.3,7.5-1.6,10.8"/>
	<path id="XMLID_282_" class="st0" d="M521.5,406.1c2.7,2.5,5.2,5.2,8,7.6c4.5,3.7,7.6,7.8,4.8,13.9"/>
	<path id="XMLID_281_" class="st0" d="M698.3,614.2c-1.8,1.2-1.5,2.8-1,4.5c0.1,0.3,0.5,0.4,0.7,0.7c3.6,4.6,4.3,9.9,3.9,15.6
		c-0.4,4.6-0.8,9.2-0.6,13.8c0.1,2.2,1,4.6,2.3,6.5c0.6,0.8,3,0.3,4.5,0.5"/>
	<path id="XMLID_280_" class="st0" d="M843.9,526.2c8.1,0,16.2,0.1,24.3-0.1c2.8-0.1,3.9,0.8,3.5,3.5c-0.1,1,0,2.1,0,3.1"/>
	<path id="XMLID_279_" class="st0" d="M661.2,857.2c-1.4-0.2-2.8-0.7-4.2-0.7c-10.3-0.1-20.6,0-30.9,0c-2.3,0-4.6-0.2-6.9-0.3"/>
	<path id="XMLID_278_" class="st0" d="M511,642.5c-2.2-0.6-3.5,0.5-4.1,2.4c-0.7,2.1-2.1,3.6-3.8,4.9c-0.7,0.5-1.4,1.3-1.7,2.1
		c-1.3,3-2.4,5.7-6.6,5.7c-2.2,0-2.9,2.8-1.7,5c0.4,0.8,0.9,1.6,1.4,2.4"/>
	<path id="XMLID_277_" class="st0" d="M665.3,728.1c-3.7-0.2-7.4-0.6-11.1-0.7c-3.7-0.1-7.4,0-11.1,0"/>
	<path id="XMLID_276_" class="st0" d="M404,667.1c1.3-2.3,3.5-3.3,5.9-3.4c4-0.2,8.1-0.3,12.2,0.1c9.9,0.8,19.9,0.5,29.9,0.6"/>
	<path id="XMLID_275_" class="st0" d="M904,798.2c-0.7-1.7-1.2-3.4-2.1-5c-1.8-3.3-4.1-6.4-4.6-10.4c-0.1-0.6-1.3-1.7-2-1.7
		c-7.3,0-14.6,0.2-21.9,0.3"/>
	<path id="XMLID_274_" class="st0" d="M103.8,769.3c-7.3,0-14.6,0.2-21.9-0.1c-3.5-0.2-5.6,0.9-7,3.9c-0.3,0.7-0.7,1.4-1,2.1"/>
	<path id="XMLID_273_" class="st0" d="M397.1,532.8c-7.2,0-14.4,0-21.5,0"/>
	<path id="XMLID_272_" class="st0" d="M552.7,815c0,7.8,0,15.7,0,23.5c0,5.4,0.6,11.1-0.6,16.2c-0.8,3.2-1.3,6.2-1.4,9.4"/>
	<path id="XMLID_271_" class="st0" d="M302.2,618.3c-1.6,1.5-1.8,3.1-0.4,4.9c0.3,0.4,0.4,1,0.7,1.4c5,5.6,3.9,12.5,3.7,19.1
		c-0.1,3.8,0.1,6.4,1.8,10.1c0.4,1,0,2.3,0.1,3.4c0.1,2.3,0.2,4.6,0.3,6.9"/>
	<path id="XMLID_270_" class="st0" d="M923.1,769.3c7.2,0,14.4,0,21.5,0c5.5,0,6.4,0.7,8.3,5.9"/>
	<path id="XMLID_269_" class="st0" d="M221.3,621.8c-1.2,2.1-2,4.4-3.6,6.2c-1.9,2.1-2.1,4.4-2,7c0.2,5.8,0.2,11.5,0.4,17.3"/>
	<path id="XMLID_268_" class="st0" d="M201.4,618.3c-1.7,1.4-1.9,3-0.7,4.9c1,1.6,1.6,3.5,2.9,4.8c1.8,1.8,1.7,3.8,1.7,6
		c-0.1,6.1-0.2,12.1-0.4,18.2"/>
	<path id="XMLID_267_" class="st0" d="M129.5,781.7c2.9-0.1,5.8-0.3,8.7-0.3c5-0.1,10,0,14.9,0"/>
	<path id="XMLID_266_" class="st0" d="M288.7,506.5c-0.6,3.7-1.1,7.3-3.5,10.4c-2.9,3.9-3.6,8.4-3.2,13.1c0.1,1,0,2.1,0,3.1"/>
	<path id="XMLID_265_" class="st0" d="M843.2,525.9c-6.9-0.1-13.9-0.2-20.8-0.3"/>
	<path id="XMLID_263_" class="st0" d="M124.7,697.9c0.3,0.6,0.6,1.2,1.1,1.7c3.7,4,8.8,6.9,10.1,12.8c0.3,1.5,0.5,3,0.7,4.5"/>
	<path id="XMLID_262_" class="st0" d="M826.9,621.4c-0.2,0.7-0.3,1.6-0.7,2.1c-5.3,5.7-4.6,12.8-4.5,19.8c0.1,2.9,0.4,5.8,0.7,8.7"
		/>
	<path id="XMLID_261_" class="st0" d="M527.4,303.2c0.9-2,0.8-3.6-1.4-4.9c-2.1-1.2-4.1-2.6-6.2-3.9c-2,1.3-3.7,2.5-5.6,3.6
		c-2.3,1.3-3,3-2.1,5.4"/>
	<path id="XMLID_260_" class="st0" d="M908.5,588.2c-6.7,0-13.4,0-20.2,0"/>
	<path id="XMLID_259_" class="st0" d="M306.7,495.7c-7.1-1.4-16.3,3.8-17.7,10"/>
	<path id="XMLID_258_" class="st0" d="M181.6,612.1c0.8,2.4-0.6,4.2-1.8,5.8c-1.2,1.8-1.6,3.2-0.7,5.3c0.5,1.2,0.1,2.7,0.1,4.4
		c4.2,0.2,3.3,4.5,5.1,6.7c2.1,2.5,3.5,5.5,5.3,8.2c0.3,0.4,1.1,0.6,1.7,0.7c3.9,0.8,4,0.9,2.8,4.5c-0.1,0.3-0.2,0.7-0.3,1"/>
	<path id="XMLID_257_" class="st0" d="M565.2,355.8c-0.7,6.5-1.4,12.9-2.1,19.4"/>
	<path id="XMLID_256_" class="st0" d="M704.6,497.1c1.1,2.1,0.8,4-0.7,5.9c-3.3,4.2-4.2,8.9-3.9,14.2c0.4,8.6,0.1,17.3,0.1,26
		c0,0.9,0.2,1.8,0.3,2.8"/>
	<path id="XMLID_255_" class="st0" d="M87.5,647.2c0.8,0.9,1.6,1.7,2.4,2.6c1.7,1.9,3,3.7,0.4,5.9c-0.5,0.4-0.4,1.5-0.7,3
		c5.7,0.3,11.1,0.5,16.6,0.7"/>
	<path id="XMLID_254_" class="st0" d="M457.5,390.1c-1.9-0.2-3.7-0.6-5.6-0.7c-5.1-0.1-10.2-0.2-15.3,0c-3.9,0.2-4.9,1.4-4.9,5.1
		c0,3,0.2,6,0.3,9"/>
	<path id="XMLID_253_" class="st0" d="M695.5,448.3c-0.7-5,1.1-7.5,5.9-7.6c6.5-0.1,13,0.3,19.5,0.3c5.2,0,10.4-0.2,15.6-0.3
		c6.6-0.1,7.5,3.2,6.6,8c-0.2,1.1-0.2,2.3-0.4,3.5"/>
	<path id="XMLID_252_" class="st0" d="M537.1,321.9c3,5.9,5.6,12,5.9,18.7"/>
	<path id="XMLID_251_" class="st0" d="M705.6,435.5c2.5,0.3,4.2-0.5,4.9-3.1c0.3-1.1,1.1-2.5,2.1-3.1c2.3-1.4,2.5-3.8,3.4-6
		c0.7-1.5,1.3-3.3,3.5-3.1c2,0.2,3.2,1.1,3.6,3.4c0.3,1.7,1.4,3.3,2.3,4.8c0.9,1.6,2,3,3.1,4.5c0.5,0.6,1,1.4,1.7,1.7
		c4.2,1.7,4.2,1.7,2.8,5.4"/>
	<path id="XMLID_250_" class="st0" d="M773.7,488.5c-2,2.1-3.9,4.2-5.9,6.2c-2.9,2.9-5.2,6-5.6,10.4c-0.1,1.2-1.3,2.3-2,3.5"/>
	<path id="XMLID_249_" class="st0" d="M644.1,668.9c-0.3,1.4-1,2.8-1,4.2c-0.1,4.7,0,9.5,0,14.2"/>
	<path id="XMLID_248_" class="st0" d="M314.7,588.2c0.1,6.1,0.2,12.2,0.4,18.4c0,1.4,0.4,2.8,0.7,4.2"/>
	<path id="XMLID_247_" class="st0" d="M167.1,610.9c0.4,3.2,1,6.4,3.4,8.9c0.3,0.3,0,1.1,0,1.7c0.2,5.5,0.4,11.1,0.7,16.6
		c0.1,2.3-1.6,4.9-3.9,5.2c-3,0.3-2.4,2.7-2.8,4.5"/>
	<path id="XMLID_246_" class="st0" d="M158,533.8c-4.3-1.6-8.8-0.3-13.2-0.6c-0.5,0-1.4,1.7-1.7,2.7c-0.3,1.3-0.1,2.8-0.1,4.1"/>
	<path id="XMLID_245_" class="st0" d="M804.3,533.8c-4.3-1.6-8.8-0.3-13.2-0.6c-0.4,0-1.2,1.2-1.3,2c-0.2,1.6-0.1,3.2-0.1,4.8"/>
	<path id="XMLID_244_" class="st0" d="M334.2,533.5c-18.5,0-37.1,0-55.9,0c0,2.4,0,4.1,0,5.9"/>
	<path id="XMLID_243_" class="st0" d="M849.1,609.3c3.9-2.8,9.2-1.3,10.3,3.1c0.3,1.3-0.2,3.3-1,4.4c-1.7,2.4-2,4.9-2.1,7.7
		c0,4.6-0.7,9.2-0.5,13.8c0.1,2,0.1,5.1,4,4.9c2.8-0.1,1.6,3.3,3.1,4.4"/>
	<path id="XMLID_242_" class="st0" d="M576.7,637.4c-1.5,1.6-1.9,3.4-1.8,5.5c0.2,4,0.3,8.1,0.4,12.1"/>
	<path id="XMLID_241_" class="st0" d="M338,635.3c1.8,1.6,4.2,2.3,3.4,6c-0.4,1.7,2.2,4.4,3.9,6.1c2,2,4.1,3.6,4.5,6.6
		c0.1,0.7,1.5,1.6,2.3,1.7c5.5,0.7,6,1.6,3.5,6.7c-0.1,0.2,0,0.6,0,0.9"/>
	<path id="XMLID_240_" class="st0" d="M435.3,635.3c-1.4,1-2.8,2-3.7,2.6c-0.5,2-0.8,3.3-1.2,4.7c-0.9,3.2-3.8,5-5.5,7.6
		c-1,1.5-1.6,3.1-2.5,4.9c-1.1,0.2-2.7,0.1-4.1,0.7c-2.8,1.1-2.9,3-0.7,7"/>
	<path id="XMLID_239_" class="st0" d="M460.7,855.5c3.7,2.4,12.8,2.4,16,0"/>
	<path id="XMLID_238_" class="st0" d="M642,841.6c1,0.1,2.1,0.3,3.1,0.3c6.8,0,8.4,1.3,10.8,8.3"/>
	<path id="XMLID_237_" class="st0" d="M578.5,767.2c-3.4,0-6.7,0-10.4,0c0-1.4,0-2.6,0-3.8c0-4.2-1.6-6-5.9-6.6
		c-1.5-0.2-3-0.2-4.5,0c-3.5,0.6-4.6,2-4.5,5.5c0,1.6,0,3.2,0,4.9c-3.1,0.2-5.9,0.4-8.7,0.6"/>
	<path id="XMLID_236_" class="st0" d="M526.3,337.1c6-1.5,11.2,1.4,16.3,3.6c5.2,2.3,5.3,6.8,3.8,12.7c-1.3,4.8-4,4.9-7.5,4.8
		c-0.7,0-1.4,0.2-2.1,0.3"/>
	<path id="XMLID_235_" class="st0" d="M468.7,522c-1.5-0.2-3-0.3-4.5-0.7c-3.7-0.9-6.7,0.9-9.7,2.6c-1,0.6-1.5,2.6-1.7,4
		c-0.3,1.4-0.1,3-0.1,4.5"/>
	<path id="XMLID_234_" class="st0" d="M569.4,522c2.3-0.2,4.7-0.8,6.9-0.6c7.5,0.5,9,2.3,9,9.6c0,0.5,0,0.9,0,1.4"/>
	<path id="XMLID_233_" class="st0" d="M484.3,767.5c-0.7,0-1.4,0-2.1,0c-2-0.1-4.5,0.4-5.7-0.6c-1-0.8-0.8-3.5-0.8-5.3
		c-0.1-2.6-1.9-4.2-3.9-4.7c-2.3-0.6-5-0.7-7.2,0c-2.4,0.7-4.6,2.4-3.9,5.7c0.3,1.4,0,3,0,4.6c-2.9,0.2-5.4,0.4-8,0.6"/>
	<path id="XMLID_232_" class="st0" d="M584.7,638.7c-0.3,3.8-0.7,7.5-3.7,10.5c-1.5,1.5-2.1,3.9-3.2,6c-6.7,0.4-7.7,2-4.9,7.8"/>
	<path id="XMLID_231_" class="st0" d="M648.6,759.9c-0.9-0.1-1.9-0.3-2.8-0.3c-4.4-0.1-5.1-0.8-5.2-4.9c-0.2-4.7-1.4-5.6-7.6-5.5
		c-4.2,0.1-6.3,2.1-6.3,5.9c0,4.5,0,4.5-4.5,4.5c-1.2,0-2.3,0-3.5,0"/>
	<path id="XMLID_230_" class="st0" d="M812.6,526.2c-2.3,0-4.6,0.1-6.9,0c-3.7-0.2-4.5,0.5-4.2,4.2c0.1,0.7,0,1.4,0,2.1"/>
	<path id="XMLID_229_" class="st0" d="M304.5,424.1c-0.7-2.6,0.8-3.6,3-3.8c2-0.1,3.2,0.7,3.6,3.1c0.3,1.7,1.4,3.3,2.3,4.8
		c1.2,1.9,2.5,3.7,3.8,5.5c0.3,0.4,0.9,0.9,1.4,1c4,0.9,4,0.9,3.1,5.4"/>
	<path id="XMLID_228_" class="st0" d="M552.7,855.5c3.1,0.2,6.3,0.6,9.4,0.6c2.2,0,4.4-0.4,6.6-0.6"/>
	<path id="XMLID_227_" class="st0" d="M309.9,759.6c-2.6-0.2-5.2-0.3-7.7-0.5c-0.8-3,0.8-6.1-2-8.2c-2.1-1.6-8-2.4-10.1-1
		c-2,1.3-2.6,3.1-2.5,5.5c0.2,4.1,0.1,4.1-4.1,4.2c-1.2,0-2.3,0-3.5,0"/>
	<path id="XMLID_226_" class="st0" d="M811.3,630.8c0,5.9,0,11.8,0,17.7c0,1.3-0.2,2.5-0.3,3.8"/>
	<path id="XMLID_225_" class="st0" d="M457.9,641.2c0,5.1,0,10.2,0,15.2"/>
	<path id="XMLID_224_" class="st0" d="M903,699.7c3.8,2.7,7.8,5.1,11.4,8c1.8,1.5,2.9,3.8,4.2,5.8"/>
	<path id="XMLID_223_" class="st0" d="M306.7,424.4c-0.9,0.1-2.3-0.1-2.7,0.4c-2,2.6-3.7,5.5-5.7,8.2c-0.5,0.7-1.3,1.5-2.1,1.7
		c-4,1.1-4.1,1.2-2.4,5.2"/>
	<path id="XMLID_222_" class="st0" d="M184.8,588.9c4.7,5.3,9.5,10.6,13.9,15.5c0,3.6-0.1,6.9,0,10.1c0.2,3,2.5,4,5.9,2.6"/>
	<path id="XMLID_221_" class="st0" d="M842.2,588.9c-4.2,4.6-8.4,9.2-12.4,13.9c-0.9,1-1.3,2.7-1.4,4.1c-0.3,3.7-0.6,7.4-0.3,11.1
		c0.2,3.1-1.6,2.9-3.6,2.8"/>
	<path id="XMLID_220_" class="st0" d="M935.7,659.2c-5,0.1-10,0.2-14.9,0.3"/>
	<path id="XMLID_219_" class="st0" d="M530.2,307.7c1.3-2.1-0.4-3.1-1.8-3.8c-5.5-2.4-11.1-1.7-16.6-0.3c-0.9,0.2-1.9,1.9-1.9,3
		c0,0.7,1.7,1.4,2.6,2.1"/>
	<path id="XMLID_218_" class="st0" d="M869.6,533.8c4.1-1.5,8.3-0.4,12.5-0.6c0.7,0,1.7,1.6,2,2.7c0.3,1.3,0.1,2.7,0.1,4.1"/>
	<path id="XMLID_217_" class="st0" d="M455.8,596.5c-2.2,3.7-4.4,7.4-6.6,11.1c-0.7,1.3-1.2,2.8-1.8,4.1"/>
	<path id="XMLID_216_" class="st0" d="M582.6,596.5c2.2,3.9,4.4,7.8,6.6,11.8c0.5,1,0.9,2.1,1.4,3.1"/>
	<path id="XMLID_215_" class="st0" d="M124,699.7c-2.7,1.6-5.7,2.9-7.9,4.9c-2.9,2.6-5.2,5.9-7.7,8.9"/>
	<path id="XMLID_214_" class="st0" d="M983.6,662.6c3.9,0.2,7.9,0.3,11.8,0.8c1,0.1,1.9,1.5,2.8,2.3c-0.9,0.8-1.7,1.9-2.8,2.4
		c-1.3,0.5-2.7,0.5-4.1,0.8"/>
	<path id="XMLID_213_" class="st0" d="M122.2,589.9c-0.9,0.5-1.8,1-2.8,1.4c-3.2,1.4-6.3,2.8-8.4,5.9c-0.7,1.1-2,1.9-3.1,2.8"/>
	<path id="XMLID_212_" class="st0" d="M568,836.5c-4.9,0-9.7,0-14.6,0"/>
	<path id="XMLID_211_" class="st0" d="M53.1,642.5c-5.2,0.2-6.8,2.4-5.6,7.6c0.3,1.1,0.3,2.3,0.4,3.5"/>
	<path id="XMLID_210_" class="st0" d="M301.5,816c-4.7,0.1-9.5,0.2-14.2,0.3"/>
	<path id="XMLID_209_" class="st0" d="M702.8,587.5c1.7,0.2,3.4,0.3,4.9,0.4c0,5.7,0,11.8,0,17.9"/>
	<path id="XMLID_208_" class="st0" d="M536.8,456.3c3-1.3,5.3,0.6,7.6,1.8c5,2.5,9.6,5.4,12.2,10.7c0.6,1.3,1,2.8,1.4,4.1"/>
	<path id="XMLID_207_" class="st0" d="M740,816c-4.1,0.1-8.1,0.3-12.2,0.3c-2.2,0-3.7-0.2-3.3,3.2c0.5,3.7-0.3,7.5-0.5,11.2"/>
	<path id="XMLID_206_" class="st0" d="M196.9,516.5c3.2,1.1,5.2-0.6,6.5-3.2c0.5-0.9,0.5-2.6,0-3.4c-1.9-2.6-4.5-4.5-7.9-4.5
		c-3.5-0.1-7-0.1-10.4,0c-3.2,0.1-5.7,1.8-7.6,4.2c-1.3,1.6-1.2,3.3,0.3,4.8c0.7,0.8,1.4,1.6,2.1,2.4"/>
	<path id="XMLID_205_" class="st0" d="M440.2,382.5c0.8,0.3,1.6,0.9,2.4,1c3.8,0.2,7.6,0.3,11.5,0.4"/>
	<path id="XMLID_204_" class="st0" d="M531.9,138c2.8,2,5.7,3.8,8.3,5.9c3.3,2.6,2.8,8.3,0,11.1c-1.1,1.1-2.1,2.4-3.1,3.6"/>
	<path id="XMLID_203_" class="st0" d="M475.6,836.5c-4.6,0-9.3,0-13.9,0"/>
	<path id="XMLID_202_" class="st0" d="M504.8,456.3c-1.9,0.2-3.9,0.1-5.5,0.8c-2.9,1.3-5.7,3-8.4,4.8c-4,2.6-6.3,6.4-7.3,11.1"/>
	<path id="XMLID_201_" class="st0" d="M131.3,589.9c3.1,1.8,6.3,3.6,9.3,5.6c0.8,0.5,1.6,1.8,1.7,2.7c0.2,2.5,1.8,2.5,3.6,2.4"/>
	<path id="XMLID_200_" class="st0" d="M194.2,601c-3.2,2.7-6.5,5.3-9.7,8c-1.5,1.3-3,2.5-5.2,2.1"/>
	<path id="XMLID_199_" class="st0" d="M993.7,708.3c-3.3-5.1-6.3-5.5-11.1-1.7c-0.2,0.2-0.5,0.3-0.7,0.3c-2.9-0.1-5.8-0.2-8.7-0.4
		c-0.5,0-0.9-0.6-1.4-1"/>
	<path id="XMLID_198_" class="st0" d="M834.9,505.4c-3.6-0.4-6.9,0.3-9.7,2.8c-2.8,2.5-2.8,3.9-0.4,6.6c0.6,0.6,0.9,1.4,1.4,2.1"/>
	<path id="XMLID_197_" class="st0" d="M391.5,668.9c0.5,0.8,1.3,1.6,1.3,2.4c0.1,5.4,0.1,10.8,0.1,16.4c-2.1,0.2-4.2,0.4-6.3,0.6"/>
	<path id="XMLID_196_" class="st0" d="M387,827.8c4.3,0,8.6,0,12.9,0"/>
	<path id="XMLID_195_" class="st0" d="M895.3,589.9c-0.7,0.6-1.3,1.4-2.1,1.7c-4.6,1.6-8.8,3.5-9.2,9c-1.1,0-2,0-3,0"/>
	<path id="XMLID_194_" class="st0" d="M528.4,308.4c0.8,0,2.1-0.3,2.4,0c2.4,3.9,5.6,7.4,5.3,12.4"/>
	<path id="XMLID_193_" class="st0" d="M159.1,721.5c-0.9-0.1-1.9-0.4-2.8-0.3c-1.8,0.1-2.8-0.3-2.8-2.4c0-2.7-1.1-5-4.1-5.5
		c-2.6-0.4-5,0.4-6.9,2.4c-0.3,0.3-0.5,0.7-0.7,1"/>
	<path id="XMLID_192_" class="st0" d="M832.8,601c3.5,2.8,7,5.5,10.4,8.3c1.4,1.2,2.7,2,4.5,1.7"/>
	<path id="XMLID_191_" class="st0" d="M627.4,827.8c4.2,0,8.3,0,12.5,0"/>
	<path id="XMLID_190_" class="st0" d="M222.6,533.8c4.3-1.6,8.8-0.3,13.2-0.6c0.4,0,1.2,1.2,1.3,2c0.3,1.6,0.3,3.2,0.4,4.8"/>
	<path id="XMLID_189_" class="st0" d="M196.9,505.1c1.9-1.9,0.9-3.5-1.1-3.7c-3.7-0.4-7.4-0.4-11.1,0c-2,0.2-2.9,1.8-1.1,3.7"/>
	<path id="XMLID_188_" class="st0" d="M474.9,855.5c-4.2,0-8.3,0-12.5,0"/>
	<path id="XMLID_187_" class="st0" d="M300.8,525.2c-0.3-0.6-0.6-1.2-1.1-1.7c-2.9-3.3-2.7-4.2,1-7c3.2-2.4,6.9-2.1,10.4-2
		c2.6,0.1,5.3,0.5,7.6,1.4c1.9,0.8,3.4,2.7,5.1,4.2c-1.5,2-2.6,3.5-3.7,4.9"/>
	<path id="XMLID_186_" class="st0" d="M722.3,524.8c1.4-0.1,3.2,0.3,4.3-0.4c3.8-2.6,3.4-5.3-0.4-7.9c-3.1-2.1-6.4-2.2-9.8-2
		c-2.9,0.2-6,0.3-8.6,1.4c-4.5,1.9-4.7,4.5-1.5,8.2c0.2,0.3,0.2,0.7,0.4,1"/>
	<path id="XMLID_185_" class="st0" d="M864.4,598.2c-1.7,1.2-3.5,2.2-5.2,3.5c-1.5,1.1-2.5,2.4-2.2,4.5c0.1,0.8-0.4,1.6-0.6,2.4"/>
	<path id="XMLID_184_" class="st0" d="M836.3,505.4c1.6,0,3.3,0.2,4.9-0.1c1.2-0.2,2.3-1.1,3.8-1.8c-3.9-3.1-11.7-3.9-14.6-1.9
		c-1.5,1-1.8,2.1-0.4,3.5"/>
	<path id="XMLID_183_" class="st0" d="M286.9,511.3c-0.9,0-1.9-0.1-2.8,0c-1.8,0.1-3.1-0.3-2.8-2.4c0.3-2.2-0.1-4-2.4-4.8
		c-2.4-0.9-4.8-0.4-6.9,0.7c-0.7,0.4-1.2,1.3-1.8,2"/>
	<path id="XMLID_182_" class="st0" d="M830.4,501.3c-2-2.6,0.2-4.5,1.5-6.2c1.3-1.8,3.3-3.1,5-4.6c1.8,1.7,3.6,3.2,5.3,4.9
		c1.7,1.8,2.5,3.8,1.1,6.2"/>
	<path id="XMLID_181_" class="st0" d="M873.5,774.8c4.5,0,9.1,0.4,13.5-0.1c5-0.6,6.7,2.4,8.4,6"/>
	<path id="XMLID_180_" class="st0" d="M890.1,721.5c-1.7-0.2-3.5-0.4-5.7-0.7c0.6-3.4,0.5-6.8-3.7-7.6c-3.1-0.6-5.6,0.7-7.3,3.4"/>
	<path id="XMLID_179_" class="st0" d="M153.5,774.8c-4.3,0-8.6,0.4-12.8-0.1c-5-0.6-7.3,2.1-9,6"/>
	<path id="XMLID_178_" class="st0" d="M903,674.1c-3.9,0.2-7.9,0.5-11.8,0.7"/>
	<path id="XMLID_177_" class="st0" d="M756.7,506.8c-1.3-2.2-3.3-3.2-5.9-3.1c-4.1,0.2-5.2,1.3-5.2,5.5c0,0.5-0.1,0.9-0.1,1.2
		c-2,0.3-3.7,0.6-5.5,0.8"/>
	<path id="XMLID_176_" class="st0" d="M183.7,501.6c-1.8-2.9-0.1-5,1.8-6.9c1.6-1.6,3.4-2.8,5-4.1c1.6,1.4,3.2,2.6,4.6,4.1
		c1.8,1.9,3.6,4,1.8,6.9"/>
	<path id="XMLID_175_" class="st0" d="M866.2,648.4c0.9,0.6,1.8,1.3,2.8,1.7c2.5,1,3,2.9,2.7,5.2c-0.2,2-0.7,3.9-1,5.9"/>
	<path id="XMLID_174_" class="st0" d="M440.5,638.7c-0.7,1.5-0.2,2.6,0.5,4.2c1.8,4,5.6,6.1,7.8,9.6"/>
	<path id="XMLID_173_" class="st0" d="M104.2,712.5c-2.6-4.7-8.6-4.4-11.1,0"/>
	<path id="XMLID_172_" class="st0" d="M933.9,712.5c-2.6-4.5-7.8-4.5-11.1,0"/>
	<path id="XMLID_171_" class="st0" d="M502.4,358.6c-2.2,1.4-4.4,2.8-6.6,4.2c-4.7,2.9-7.9,7-9,12.5"/>
	<path id="XMLID_170_" class="st0" d="M129.2,782.4c0.4,3.3-1.1,6-2.7,8.7c-1.4,2.2-2.4,4.7-3.5,7.1"/>
	<path id="XMLID_169_" class="st0" d="M723,514.4c0.5-3.1-0.1-3.9-3.8-4.1c-2.8-0.1-5.6,0.2-8.3,0.3"/>
	<path id="XMLID_168_" class="st0" d="M316.1,510.6c-3.5,0.1-6.9,0.2-10.4,0.3c-2.7,0.1-2.2,1.8-1.7,3.5"/>
	<path id="XMLID_167_" class="st0" d="M712.6,548c3,3.4,1.9,7.5,2.1,11.4"/>
	<path id="XMLID_166_" class="st0" d="M509.7,336.8c-3.8,1.8-7.6,3.7-11.5,5.5"/>
	<path id="XMLID_165_" class="st0" d="M328.6,548c-2.8,3.4-1.1,7.7-2.1,11.4"/>
	<path id="XMLID_164_" class="st0" d="M956.8,615.5c-0.1,1.4-0.3,2.8-0.3,4.2c0,0.6,0,1.7,0.4,1.8c3.4,1.3,2.8,4.9,4.5,7.2
		c1.8,2.5,3.5,5.1,5.2,7.6"/>
	<path id="XMLID_163_" class="st0" d="M45.4,707.3c-4.3-4-6.7-4.2-10.8-1"/>
	<path id="XMLID_162_" class="st0" d="M710.1,514.4c-0.5-3.7-1-7.3,2.4-10.1c1.4-1.1,2.8-2.3,4.3-3.7c1.9,3.5,7.9,4.5,5.8,10.2"/>
	<path id="XMLID_161_" class="st0" d="M204.6,619.3c3.7,1.7,7.4,1.7,11.1,0"/>
	<path id="XMLID_160_" class="st0" d="M829.7,737.4c1.6,1.1,1.8,2.7,1,4.1c-1.6,2.9-3.4,5.6-5.2,8.3"/>
	<path id="XMLID_159_" class="st0" d="M955.8,626.6c-0.9,0.2-2.2,0.2-2.7,0.7c-1.7,1.8-3.1,3.8-4.6,5.8c-1.1,1.5-1.3,3.3-4.2,3.4
		c-2.3,0.1-2.6,2.8-1.1,4.9"/>
	<path id="XMLID_158_" class="st0" d="M702.2,576.4c1.9,3.6,3.7,7.2,5.6,10.7"/>
	<path id="XMLID_157_" class="st0" d="M649.7,668.9c0.3,2.2,0.8,4.4,1,6.6c0.2,1.4,0,2.8,0,4.2"/>
	<path id="XMLID_156_" class="st0" d="M316.8,514.4c0.5-3.8,1.1-7.7-2.8-10.4c-1.2-0.9-2.2-2.2-3.5-3.5c-2.4,3.6-8,4.8-6.2,10.5"/>
	<path id="XMLID_155_" class="st0" d="M445.7,533.1c-0.5,0.7-0.8,1.7-1.4,2c-6.1,3.3-6.4,4-5.2,10.4"/>
	<path id="XMLID_154_" class="st0" d="M825.5,734c-3.8-3.2-6.9-3-10.8,0.7"/>
	<path id="XMLID_153_" class="st0" d="M215.3,615.5c-3.8-3.2-7.2-3-10.4,0.7"/>
	<path id="XMLID_152_" class="st0" d="M160.1,649.1c-0.8,0.3-1.8,0.5-2.4,1.1c-1.8,1.5-3,3.2-2.2,5.9c0.5,1.6,0.5,3.4,0.7,5.2"/>
	<path id="XMLID_151_" class="st0" d="M202.5,787.6c-2.1,1.5-1.3,3.6-1.4,5.5c-0.1,1.7,0,3.5,0,5.2"/>
	<path id="XMLID_150_" class="st0" d="M211.9,734c-3.9-3-6.6-3-10.4,0"/>
	<path id="XMLID_149_" class="st0" d="M640.6,576.4c1.6,3.3,3.7,6.4,3.1,10.4"/>
	<path id="XMLID_148_" class="st0" d="M950.2,662.6c-3.5,0.1-6.9,0.2-10.4,0.3"/>
	<path id="XMLID_147_" class="st0" d="M822,615.9c-3.9-3.4-6.5-3.4-10.4,0"/>
	<path id="XMLID_146_" class="st0" d="M397.4,576.4c-1.6,3.3-3.6,6.5-3.1,10.4"/>
	<path id="XMLID_145_" class="st0" d="M489.5,759.2c-3.1,0.3-6.3,0.7-9.4,1c-1.4,0.2-2.8,0.5-4.2,0.7"/>
	<path id="XMLID_144_" class="st0" d="M578.5,760.6c-3.4,0.1-6.7,0.2-10.1,0.3"/>
	<path id="XMLID_143_" class="st0" d="M544.7,358.3c2.2,2.3,4.5,4.5,6.6,6.9c2.5,2.9,5,6,5.6,10"/>
	<path id="XMLID_142_" class="st0" d="M815.1,788.3c-0.3,1.8-0.8,3.7-1,5.5c-0.2,1.5,0,3,0,4.5"/>
	<path id="XMLID_141_" class="st0" d="M515.6,116.9c1.4,0.9,2.7,1.9,4.2,2.8c2.3,1.3,2.9,3.1,2.1,5.6"/>
	<path id="XMLID_140_" class="st0" d="M807.4,618.3c-1.9,1.5-1.6,3.1-0.8,5.2c2.1,5.2,5.2,8.1,11.2,7c1.1-0.2,2.3,0.4,3.5,0.6"/>
	<path id="XMLID_139_" class="st0" d="M700.4,495c-2.9-4-8.7-3.7-11.1,0"/>
	<path id="XMLID_138_" class="st0" d="M103.5,599.6c-3.4-3.6-5.1-3.7-9-0.3"/>
	<path id="XMLID_137_" class="st0" d="M593.7,533.1c0.5,0.7,0.8,1.7,1.4,2c4.7,2.3,4.8,6.1,3.8,10.4"/>
	<path id="XMLID_136_" class="st0" d="M933.6,646c-3,0.2-6,0.4-9,0.7c-2,0.2-3.9,0.5-5.9,0.7"/>
	<path id="XMLID_135_" class="st0" d="M88.5,647.7c1.3-0.3,2.6-1,3.8-1c5.7,0.1,11.4,0.4,17,0.6"/>
	<path id="XMLID_134_" class="st0" d="M411,561.5c-2.5,2.8-4.6,5.7-4.2,9.7"/>
	<path id="XMLID_133_" class="st0" d="M982.9,707.3c0.4,3.2-0.4,4.3-3.5,4.5c-0.9,0.1-1.9,0.2-2.8,0.3"/>
	<path id="XMLID_132_" class="st0" d="M903,673.4c-3.2-0.1-6.5-0.2-9.7-0.3"/>
	<path id="XMLID_131_" class="st0" d="M183,516.9c-4.6-0.4-9.7,3.7-10.8,8.7"/>
	<path id="XMLID_130_" class="st0" d="M201.1,516.9c2.7,2.3,6.3,3.8,7.3,7.6c0.1,0.3,0,0.7,0,1"/>
	<path id="XMLID_129_" class="st0" d="M153.2,763.7c-3.2,0-6.5,0-9.7,0"/>
	<path id="XMLID_128_" class="st0" d="M833.8,649.1c-2.1,0.1-4.2,0.3-6.3,0.3c-1.8,0-2.8,0.7-3.1,2.5"/>
	<path id="XMLID_127_" class="st0" d="M430.1,663.7c0.9-0.3,1.9-1,2.8-1c6.4,0,12.7,0.2,19.1,0.3"/>
	<path id="XMLID_126_" class="st0" d="M883.5,601c0.6,2.6-1.7,8.3-3.8,9.3c-0.4,0.2-1,0.2-1.4,0c-1.9-1.1-3.7-1-5.6,0
		c-0.3,0.1-0.7,0.1-1,0c-2.7-0.8-5.1-6.6-3.8-9.3"/>
	<path id="XMLID_125_" class="st0" d="M89.9,661.2c0.1,3.9,0.2,7.8,0.3,11.8"/>
	<path id="XMLID_124_" class="st0" d="M187.9,648.8c3.8,0.2,7.7,0.3,11.4,0.8c1.3,0.2,2.3,1.7,3.5,2.7"/>
	<path id="XMLID_123_" class="st0" d="M874.1,763.4c3.1,0.1,6.3,0.2,9.4,0.3"/>
	<path id="XMLID_122_" class="st0" d="M847.7,516.9c1.6,1.4,3.4,2.6,4.8,4.2c1,1.2,1.5,2.9,2.2,4.4"/>
	<path id="XMLID_121_" class="st0" d="M991.9,752.7c-3.1,0.1-6.3,0.2-9.4,0.3"/>
	<path id="XMLID_120_" class="st0" d="M880.4,599.6c-3.1-3.5-5-3.6-9-0.7"/>
	<path id="XMLID_119_" class="st0" d="M413.4,751.6c-2.2,0.3-4.4,0.8-6.6,1c-2,0.2-3.9,0.3-5.9,0.4"/>
	<path id="XMLID_118_" class="st0" d="M830,516.5c-5.8,0.2-9.2,3.6-11.8,8.3"/>
	<path id="XMLID_117_" class="st0" d="M157,600.7c3.6,0,4.7,1.6,2.7,4.4c-1.4,2-1.6,5.7-5.5,5.3"/>
	<path id="XMLID_116_" class="st0" d="M922.8,600.7c-3.6,0-4.4,1.4-2.8,4.5c0.6,1.1,1.5,2,2,3.1c1.3,2.7,3.2,2.3,5.2,1"/>
	<path id="XMLID_115_" class="st0" d="M278.9,540.1c-2.5-0.1-5.1-0.3-7.6-0.3c-3.6-0.1-4.2,0.4-4.2,4.1c0,0.9,0,1.8,0,2.8"/>
	<path id="XMLID_114_" class="st0" d="M845.7,611.4c-0.1,1.2-0.8,2.7-0.3,3.4c2.6,3.2,3.5,6.6,2,10.5c-0.2,0.6,0,1.4,0,2.1"/>
	<path id="XMLID_113_" class="st0" d="M314.7,751.6c-2.1,2.1-4.7,0.5-7,1c-1.8,0.4-3.7,0.5-5.6,0.7"/>
	<path id="XMLID_112_" class="st0" d="M44.4,753c-3,0-6,0-9,0"/>
	<path id="XMLID_111_" class="st0" d="M78.1,642.5c3,0,6,0.1,9,0c2.2-0.1,4.2,0.4,5.9,1.8"/>
	<path id="XMLID_110_" class="st0" d="M316.5,524.8c5.3,0.3,9,2.8,10.8,8"/>
	<path id="XMLID_109_" class="st0" d="M537.8,435.5c-3.7-1.9-7.6-0.7-11.5-0.7"/>
	<path id="XMLID_108_" class="st0" d="M861.3,589.6c1.7,2.4,3.2,4.8,3.6,7.9c0.3,2.5,2.6,3.4,5.1,3.1"/>
	<path id="XMLID_107_" class="st0" d="M165.7,589.6c-0.7,1.2-1.5,2.3-2.1,3.5c-1.9,4-1.9,4,1.4,6.6c0.6,0.5,1.1,1,1.7,1.4
		c2.3,1.3,3.9,2.9,3.2,5.9c-0.1,0.5,0.4,1.1,0.6,1.7"/>
	<path id="XMLID_106_" class="st0" d="M716.1,752.3c2.9,0.2,5.8,0.5,8.7,0.7"/>
	<path id="XMLID_105_" class="st0" d="M648.3,698.3c4.1,3.5,4.2,6.6,0.3,9.7"/>
	<path id="XMLID_104_" class="st0" d="M345.3,494.7c-4.1-3.6-7.6-3.4-10.4,0.3"/>
	<path id="XMLID_103_" class="st0" d="M614.9,752.3c3.7,0.2,7.4,0.5,11.1,0.7"/>
	<path id="XMLID_102_" class="st0" d="M304.6,524.8c-5.5,0.2-9,3.1-11.1,8"/>
	<path id="XMLID_101_" class="st0" d="M535.4,321.6c-0.3,2.8-0.7,5.5-1,8.3"/>
	<path id="XMLID_100_" class="st0" d="M746.6,540.7c3.8-1.3,7.6-0.7,11.5-0.6c0.6,0,1.5,1.2,1.7,2c0.3,1.2,0.1,2.5,0.1,3.8"/>
	<path id="XMLID_99_" class="st0" d="M335.2,641.9c-2.1-1.7-3.8,0.2-4,1.4c-0.6,3-3,4.2-4.6,6.2c-1.1,1.4-1.9,3.2-2.8,4.8"/>
	<path id="XMLID_98_" class="st0" d="M726.8,525.2c2.6,2.2,5.6,4,6.6,7.6"/>
	<path id="XMLID_97_" class="st0" d="M143.8,601c-1.1,1.7-0.9,3.3,0.3,4.9c1.1,1.5,2.1,3.2,3.1,4.8"/>
	<path id="XMLID_96_" class="st0" d="M843.6,505.4c1.6,0.9,3.2,1.9,4.9,2.8c2,1.1,2.3,3.3,1.6,4.8c-0.8,1.6-1.7,3.9-4.4,3.6
		c-0.6-0.1-1.2,0.2-1.7,0.3"/>
	<path id="XMLID_95_" class="st0" d="M649.3,752c-1.4,0.2-2.8,0.5-4.2,0.7c-1.3,0.2-2.5,0.5-3.8,0.7"/>
	<path id="XMLID_94_" class="st0" d="M534.3,175.4c0.2,1.7,0.4,3.5,0.7,5.2c0.2,0.9,0.4,1.8,0.7,2.8"/>
	<path id="XMLID_93_" class="st0" d="M577.8,309.4c0.8,1.2,1.5,2.5,2.5,3.4c1.6,1.5,2.1,3.2,1.4,5.2"/>
	<path id="XMLID_92_" class="st0" d="M102.4,638c2.6,2.3,0.9,5.3,1.4,8"/>
	<path id="XMLID_91_" class="st0" d="M931.1,638c-0.5,0-0.9,0-1.4,0c-6.5,0-7.5,1.3-6.3,8"/>
	<path id="XMLID_90_" class="st0" d="M450.2,760.6c0.6-0.3,1.2-1,1.7-1c2.7,0.2,5.3,0.6,8,1"/>
	<path id="XMLID_89_" class="st0" d="M314.7,613.5c-3.6,0.1-7.6-0.7-9.7,3.5"/>
	<path id="XMLID_88_" class="st0" d="M322.7,479.8c2.2,2.3,4.4,4.6,6.6,6.9"/>
	<path id="XMLID_87_" class="st0" d="M713.3,479.8c-4.7,4.4-9.5,8.8-14.2,13.2"/>
	<path id="XMLID_86_" class="st0" d="M375.9,753.4c3.2-1.7,6.5-0.5,9.7-0.3"/>
	<path id="XMLID_85_" class="st0" d="M969.7,641.5c0.3-1.2,1.3-2.9,0.9-3.4c-1-1.1-2.4-2.9-4.4-1.1"/>
	<path id="XMLID_84_" class="st0" d="M749.6,753c-3.2,0-6.4,0-9.6,0"/>
	<path id="XMLID_83_" class="st0" d="M272.7,467.3c-2.3-0.3-4.6-0.6-7.4-1c-0.6,0.7-1.5,1.7-2.7,3c0.9,1.2,1.8,2.5,2.7,3.8"/>
	<path id="XMLID_82_" class="st0" d="M456.8,311.2c1.2,1,2.6,1.9,3.4,3.2c0.5,1,0.1,2.5,0.1,3.7"/>
	<path id="XMLID_81_" class="st0" d="M506.9,358.6c-5.1,0.6-7.4-3.8-10.8-6.2"/>
	<path id="XMLID_80_" class="st0" d="M456.5,308.8c0.5,2.2-1.3,3-2.4,4.1c-1.4,1.5-2.9,2.9-1.5,5.2"/>
	<path id="XMLID_79_" class="st0" d="M291.4,505.4c-3.2,0.3-6.5,0.7-9.7,1"/>
	<path id="XMLID_78_" class="st0" d="M690.3,635.3c1.7,1.7,5.5,2,3.8,5.9"/>
	<path id="XMLID_77_" class="st0" d="M206,630.1c3.1,0.2,6.3,0.5,9.4,0.7"/>
	<path id="XMLID_76_" class="st0" d="M29.5,667.8c-3.6,2.6-3.6,2.8-0.7,6.2"/>
	<path id="XMLID_75_" class="st0" d="M998.2,667.8c3.1,2.4,2.8,4.1,0,6.6"/>
	<path id="XMLID_74_" class="st0" d="M71.1,622.1c2,1,1.8,3.1,2.6,4.8c1.5,3.3,4,6.1,6.1,9.1c0.2,0.2,0.7,0.3,1,0.4
		c4.1,0.9,4.5,1.6,3.1,5.5"/>
	<path id="XMLID_73_" class="st0" d="M547.2,503c1.7,1.8,3.5,3.7,5.2,5.5"/>
	<path id="XMLID_72_" class="st0" d="M93.4,768.6c-0.4-3.8,0.8-5.3,4.9-4.9c1.4,0.1,2.8,0,4.2,0"/>
	<path id="XMLID_71_" class="st0" d="M163.6,715.3c-3.4,0.5-6.7,0.9-10.1,1.4"/>
	<path id="XMLID_70_" class="st0" d="M755,467.3c1.4-0.2,2.8-0.4,4.2-0.7c1.7-0.4,3-0.5,4.3,1.3c1.3,2,0.2,3-0.8,4.2
		c-0.3,0.4-0.7,0.7-1,1"/>
	<path id="XMLID_69_" class="st0" d="M336.6,635.3c-1.8,1.6-5.3,2.1-3.8,5.9"/>
	<path id="XMLID_68_" class="st0" d="M811.3,619.3c2.3,0.3,4.6,0.7,6.9,1"/>
	<path id="XMLID_67_" class="st0" d="M378.3,588.2c-1.9,1.8-2.6,4-1.7,6.6"/>
	<path id="XMLID_66_" class="st0" d="M659.8,588.2c1.7,1.9,2.9,3.9,1.7,6.6"/>
	<path id="XMLID_65_" class="st0" d="M403,668.9c0.5,3.6,0.9,7.3,1.4,10.9"/>
	<path id="XMLID_64_" class="st0" d="M137.5,675.1c2.2,0.5,4.4,0.9,6.6,1.4"/>
	<path id="XMLID_63_" class="st0" d="M542.3,760.6c3.4,0,6.7,0,10.1,0"/>
	<path id="XMLID_62_" class="st0" d="M490.9,503c-1,0.9-2.2,1.8-3.1,2.8c-0.8,0.9-1.4,1.9-2.1,2.9"/>
	<path id="XMLID_61_" class="st0" d="M538.8,759.2c3.1,1,4.7,3.5,4.9,8"/>
	<path id="XMLID_60_" class="st0" d="M744.9,506.5c-3.1-0.3-6.3-0.7-9.4-1"/>
	<path id="XMLID_59_" class="st0" d="M577.8,310.5c-1,0.9-2.1,1.8-3.1,2.8c-1.4,1.4-1.6,3.1-0.7,4.8"/>
	<path id="XMLID_58_" class="st0" d="M379,693.4c-1.1,3.3-0.4,4.5,2.8,5.2c1.4,0.3,2.8,0.5,4.2,0.7"/>
	<path id="XMLID_57_" class="st0" d="M647.9,693.4c1.3,3.9,1,4.4-2.8,5.2c-1.2,0.2-2.3,0.5-3.5,0.7"/>
	<path id="XMLID_56_" class="st0" d="M707.7,607.2c-0.1,2.8-0.2,5.5-0.3,8.3"/>
	<path id="XMLID_55_" class="st0" d="M280.8,698.3c-0.6,0.3-1.4,0.6-1.9,1.1c-3.4,3.3-2.9,4.5,0,7.3c0.4,0.4,0.7,1,1.1,1.5"/>
	<path id="XMLID_54_" class="st0" d="M573.9,702.8c5.1,3.1,5.6,6.3-0.3,10"/>
	<path id="XMLID_53_" class="st0" d="M453,702.8c-4.9,3.5-4.8,6.5,0.3,10"/>
	<path id="XMLID_52_" class="st0" d="M323.4,655c-0.7,0.1-1.4,0.2-2.1,0.4c-4.6,1.3-4.8,1.8-3.5,6.2c0.1,0.3,0.2,0.7,0.3,1"/>
	<path id="XMLID_51_" class="st0" d="M272.7,839.6c1.9,0.1,3.7,0.2,5.6,0.3"/>
	<path id="XMLID_50_" class="st0" d="M746.6,698.3c0.6,0.5,1.2,0.9,1.7,1.4c2.7,2.9,2.7,3.9,0,6.9c-0.4,0.5-0.9,0.9-1.4,1.4"/>
	<path id="XMLID_49_" class="st0" d="M831.4,615.2c-1.9,0.1-3.7,0.5-5.6,0.3c-2.4-0.2-4,0.5-4.9,2.8"/>
	<path id="XMLID_48_" class="st0" d="M95.1,638.7c-0.5,2.4-0.9,4.8-1.4,7.3"/>
	<path id="XMLID_47_" class="st0" d="M846,628.4c-2.6,0.8-1.6,3.6-2.8,5.2c-1.9,2.5-3.7,5.1-5.6,7.6"/>
	<path id="XMLID_46_" class="st0" d="M710.5,524.8c-3.9-0.7-6.2,2.7-9.4,3.8"/>
	<path id="XMLID_45_" class="st0" d="M147.2,598.9c3.6-2.7,4.7-2.7,8.3,0"/>
	<path id="XMLID_44_" class="st0" d="M890.5,715.6c-1.7,0.2-3.5,0.5-5.2,0.7"/>
	<path id="XMLID_43_" class="st0" d="M730.6,614.8c-1.6,0.8-3.2,1.6-4.9,2.4"/>
	<path id="XMLID_42_" class="st0" d="M325.5,493.7c1.6,0.8,3.2,1.6,4.9,2.4"/>
	<path id="XMLID_41_" class="st0" d="M321,609.3c-1,0.2-2.1,0.3-3.1,0.7c-3.4,1.5-3.6,2.5-1.1,6.2"/>
	<path id="XMLID_40_" class="st0" d="M338.7,507.5c-1.5,0.5-3,0.9-4.5,1.4"/>
	<path id="XMLID_39_" class="st0" d="M85.7,598.2c1.6,0.7,3.2,1.4,4.9,2.1"/>
	<path id="XMLID_38_" class="st0" d="M941.2,598.2c-1.6,0.7-3.2,1.4-4.9,2.1"/>
	<path id="XMLID_37_" class="st0" d="M930.4,596.5c-2.9-1.4-4.5,0.7-6.3,2.4"/>
	<path id="XMLID_36_" class="st0" d="M651.1,755.8c1.4,0.9,2.9,1.7,4.1,2.8c0.6,0.5,0.7,1.6,1.1,2.4"/>
	<path id="XMLID_35_" class="st0" d="M691.7,641.9c2.9-1.8,4.5,1.1,4.7,2.4c0.3,3,2.5,3.4,4.4,4.5"/>
	<path id="XMLID_34_" class="st0" d="M942.3,710.8c-1.4,0.9-2.8,1.8-4.2,2.8"/>
	<path id="XMLID_33_" class="st0" d="M817.5,525.2c-1.4,0.2-2.8,0.5-4.2,0.7"/>
	<path id="XMLID_32_" class="st0" d="M707,434.1c-3.4,1.2-1.6,3.9-1.7,6.1"/>
	<path id="XMLID_31_" class="st0" d="M734.8,571.6c0.9,1.2,1.9,2.3,2.8,3.5"/>
	<path id="XMLID_30_" class="st0" d="M846,697.9c1.1,2.4,3.3,3,5.6,3.5"/>
	<path id="XMLID_29_" class="st0" d="M588.9,641.5c-1.3-0.2-2.5-0.5-3.8-0.7"/>
	<path id="XMLID_28_" class="st0" d="M177.8,609.3c-3.1-2.2-5.9-1.9-8,0.7c-0.5,0.6-1.4,0.9-2.1,1.4"/>
	<path id="XMLID_27_" class="st0" d="M375.9,703.5c0.3,1.2,0.7,2.3,1,3.5"/>
	<path id="XMLID_26_" class="st0" d="M342.2,507.5c1.2,0.5,2.3,0.9,3.5,1.4"/>
	<path id="XMLID_25_" class="st0" d="M178.9,632.9c-2.4-1.3-3.9,1.2-4,2.1c-0.1,2.5-2.2,2.3-3.3,3.5"/>
	<path id="XMLID_24_" class="st0" d="M928.7,609.3c1.2,0.5,2.3,0.9,3.5,1.4"/>
	<path id="XMLID_23_" class="st0" d="M77.4,642.9c-1.2,0.1-2.3,0.2-3.5,0.3"/>
	<path id="XMLID_22_" class="st0" d="M702.2,619.7c1.2,0.1,2.3,0.2,3.5,0.3"/>
	<path id="XMLID_21_" class="st0" d="M848.1,632.9c2.3-1.1,3.1,0.6,4.2,2.1c0.9,1.2,2.1,2.3,3.1,3.5"/>
	<path id="XMLID_20_" class="st0" d="M180.9,697.9c-0.8,2.8-3.2,3.2-5.6,3.5"/>
	<path id="XMLID_19_" class="st0" d="M914.1,710.4c0.8,0.3,1.6,0.7,2.4,1"/>
	<path id="XMLID_18_" class="st0" d="M56.6,641.5c-0.9,0.2-1.9,0.5-2.8,0.7"/>
	<path id="XMLID_17_" class="st0" d="M212.2,749.9c-0.9-0.2-1.9-0.5-2.8-0.7"/>
	<path id="XMLID_16_" class="st0" d="M174,619.7c-0.9,0.2-1.9,0.5-2.8,0.7"/>
	<path id="XMLID_15_" class="st0" d="M171.2,648.1c-0.9,0.1-1.9,0.2-2.8,0.3"/>
	<path id="XMLID_14_" class="st0" d="M556.2,782.4c-0.9,0.2-1.9,0.5-2.8,0.7"/>
	<path id="XMLID_13_" class="st0" d="M568,783.1c-0.9-0.2-1.9-0.5-2.8-0.7"/>
	<path id="XMLID_12_" class="st0" d="M566.6,352.4c-0.3,0.9-0.7,1.8-1,2.8"/>
	<path id="XMLID_11_" class="st0" d="M379.7,688.3c1.9-0.2,3.7-0.5,5.6-0.7"/>
	<path id="XMLID_10_" class="st0" d="M864.1,601.7c0.9,0.1,1.9,0.2,2.8,0.3"/>
	<path id="XMLID_9_" class="st0" d="M928.7,597.5c1.6,0.5,3.6,0.1,4.5,2.1"/>
	<path id="XMLID_8_" class="st0" d="M223.3,619.7c-0.8,1.5-1.6,2.7-3.1,0.7"/>
	<path id="XMLID_7_" class="st0" d="M378,530.7c-0.8,0.2-1.6,0.5-2.4,0.7"/>
	<path id="XMLID_6_" class="st0" d="M98.3,609.3c-1.2,0.5-2.3,0.9-3.5,1.4"/>
	<path id="XMLID_5_" class="st0" d="M819.9,619.3c-0.3,0.2-0.7,0.5-1,0.7"/>
	<path id="XMLID_4_" class="st0" d="M693.1,508.2c-0.9,0.2-1.9,0.5-2.8,0.7"/>
	<path id="XMLID_3_" class="st0" d="M515.2,116.9c-1.4,0.9-2.7,1.9-4.2,2.8c-2.3,1.3-2.9,3.1-2.1,5.6"/>
	<path id="XMLID_2_" class="st1" d="M514.9,27c0,0,15.9-2.5,19.4,6s31,1.8,31,1.8S552.3,46.3,542,44.9c-10.2-1.4,12.7,10.3,20.8,7.5
		c1.7-0.6-13.9,7.9-30.7,0.6c0,0-11.4-5.4-17.3,0.4V27z"/>
	<line id="XMLID_1_" class="st1" x1="514.9" y1="25.6" x2="514.9" y2="116.7"/>
	<path id="XMLID_556_" class="st0" d="M625.3,843l-7.8,7.7v5.5l-1.8,23.3l53.7-0.8c-3.6-7.2-7.2-14.3-10.8-21.5"/>
</g>
</svg>
